<svg xmlns="http://www.w3.org/2000/svg" xmlns:xlink="http://www.w3.org/1999/xlink" width="2688.594" height="1404.673" viewBox="0 0 2688.594 1404.673">
  <defs>
    <linearGradient id="linear-gradient" x1="0.5" x2="0.5" y2="1" gradientUnits="objectBoundingBox">
      <stop offset="0" stop-color="#c5b07b"/>
      <stop offset="1" stop-color="#b29e6f"/>
    </linearGradient>
    <linearGradient id="linear-gradient-2" x1="0.703" y1="0.561" x2="-0.093" y2="0.45" gradientUnits="objectBoundingBox">
      <stop offset="0" stop-color="#d9caaa"/>
      <stop offset="1" stop-color="#c8b688"/>
    </linearGradient>
    <filter id="Unión_221" x="1127.156" y="28.594" width="428.291" height="686.751" filterUnits="userSpaceOnUse">
      <feOffset dx="-3" dy="-5" input="SourceAlpha"/>
      <feGaussianBlur stdDeviation="3" result="blur"/>
      <feFlood flood-color="#a49870"/>
      <feComposite operator="in" in2="blur"/>
      <feComposite in="SourceGraphic"/>
    </filter>
    <linearGradient id="linear-gradient-3" x1="0.5" y1="0.5" x2="0.042" y2="0.487" xlink:href="#linear-gradient-2"/>
    <filter id="Sustracción_150" x="1080.556" y="0" width="521.454" height="749.345" filterUnits="userSpaceOnUse">
      <feOffset dx="-3" dy="-5" input="SourceAlpha"/>
      <feGaussianBlur stdDeviation="3" result="blur-2"/>
      <feFlood flood-color="#a49870"/>
      <feComposite operator="in" in2="blur-2"/>
      <feComposite in="SourceGraphic"/>
    </filter>
  </defs>
  <g id="Grupo_2712" data-name="Grupo 2712" transform="translate(-5914.703 -5750.662)">
    <g id="Grupo_2709" data-name="Grupo 2709" transform="translate(-3792.234 -210.869)">
      <path id="Unión_215" data-name="Unión 215" d="M194.576,667.017a2.255,2.255,0,0,1-1.562-.866,2.584,2.584,0,0,1-.815-1.761,22.129,22.129,0,0,1,1.495-2.962q2.175-4.026,3.941-7.658,6.319-13.08,6.319-17.943a5.19,5.19,0,0,1,.1-.839,5.11,5.11,0,0,0,.1-.839c0-.335-.136-.5-.408-.5q-.273,0-1.292,1.565a59.67,59.67,0,0,0-4.145,8.161q-2.786,6.261-4.553,9.336a48.242,48.242,0,0,1-5.027,7.211c-1.4,1.6-3.057,2.757-7.322,2.379s-9.019-3.888-9.734-3.888a.574.574,0,0,1-.306-.112.671.671,0,0,0-.374-.112q-.069,0-2.446,1.034a12.476,12.476,0,0,1-5.028,1.034,5.129,5.129,0,0,1-2.854-.671c-.731-.489.176-1.286.176-1.286a81.829,81.829,0,0,0,27.751-18q12.57-12.018,12.57-14.7a4.417,4.417,0,0,0-.985-1.593,3.934,3.934,0,0,1-.986-2.376q0-4.136,6.727-4.136,6.522,0,6.522,4.3a3.286,3.286,0,0,1-.951,1.621q-.95,1.118-.951,1.509,0,1.062,4.281,6.26a116.53,116.53,0,0,0,13.386,13.528,79.249,79.249,0,0,0,9.513,7.434,39.489,39.489,0,0,0,12.23,4.975q1.563.28,3.194.615t1.631,1.4q0,.391-.748.783a3.089,3.089,0,0,1-1.426.391,13.287,13.287,0,0,1-1.495-.279,10.815,10.815,0,0,0-2.243-.28q-.271,0-1.325.112a17.649,17.649,0,0,1-1.8.112c-3.759,0-14.061,2.323-14.333,2.323-.634,0-4.715.006-6.935-2.044a49.613,49.613,0,0,1-7.678-9.446,102.248,102.248,0,0,1-7.067-13.136,46.634,46.634,0,0,0-2.309-4.975.488.488,0,0,0-.544.56q0,3.241,5.163,16.49a78.713,78.713,0,0,0,5.164,10.732,33.99,33.99,0,0,1,2.31,4.192,2.193,2.193,0,0,1-2.446,2.516c-1.041,0-8.4,1.565-11.619,1.565C201.778,668.75,195.437,667.017,194.576,667.017Zm67.064-37.254-.162-.153-.141-.183c-1.954-2.595-8.392-6.345-16.795-9.79-8.294-3.4-17.449-6.1-23.889-7.024l-1.688-.244-.447-1.651a39.965,39.965,0,0,1-.936-4.037,3.869,3.869,0,0,1,.482-3.129,2.673,2.673,0,0,1,2.137-1.06,2.563,2.563,0,0,1,.789.118c.4-.036.829-.056,1.306-.056,5.468,0,16.6,2.374,27.07,5.773a98.061,98.061,0,0,1,13.868,5.52c4.1,2.09,6.6,4.036,7.745,6.049a6.345,6.345,0,0,1,2.281,3.1,7.861,7.861,0,0,1,.2,4.316,6.273,6.273,0,0,1-5.967,5.178A8.733,8.733,0,0,1,261.639,629.763ZM136.3,626.976a7.833,7.833,0,0,1,.2-4.322,6.363,6.363,0,0,1,2.278-3.1c1.156-2.013,3.652-3.955,7.752-6.05a98.632,98.632,0,0,1,13.864-5.519c10.472-3.395,21.6-5.77,27.073-5.77.474,0,.911.015,1.31.052a2.671,2.671,0,0,1,2.919.947,3.875,3.875,0,0,1,.487,3.129c-.151.938-.457,2.258-.94,4.031l-.447,1.651-1.689.245c-6.439.932-15.594,3.623-23.889,7.024-8.4,3.45-14.836,7.2-16.795,9.795l-.137.178-.168.158a8.721,8.721,0,0,1-5.853,2.726A6.269,6.269,0,0,1,136.3,626.976Zm60.268-20.162c.025-6.548,16.679-6.61,16.633-.336.082,3.556-4.072,5.172-8.253,5.172C200.622,611.651,196.271,609.919,196.567,606.814Zm-5.634-9.71a80.884,80.884,0,0,1-13.541-3.784,91.11,91.11,0,0,1-13.07-6.156,107.259,107.259,0,0,1-12.53-8.4,129.145,129.145,0,0,1-11.921-10.518,156.133,156.133,0,0,1-11.245-12.513,204.545,204.545,0,0,1-20.183-30.5,278.588,278.588,0,0,1-16.654-36.968,351.963,351.963,0,0,1-12.574-42.431,413.019,413.019,0,0,1-7.946-46.888,458.669,458.669,0,0,1,0-100.685,413.018,413.018,0,0,1,7.946-46.888,352.012,352.012,0,0,1,12.574-42.431,278.587,278.587,0,0,1,16.654-36.968,204.6,204.6,0,0,1,20.183-30.5,156.275,156.275,0,0,1,11.245-12.512,129.013,129.013,0,0,1,11.921-10.518,107.258,107.258,0,0,1,12.53-8.4,91.1,91.1,0,0,1,13.07-6.156,80.879,80.879,0,0,1,13.541-3.785,76.022,76.022,0,0,1,27.887,0,80.879,80.879,0,0,1,13.541,3.785,91.1,91.1,0,0,1,13.07,6.156,107.258,107.258,0,0,1,12.53,8.4,129.013,129.013,0,0,1,11.921,10.518,156.29,156.29,0,0,1,11.245,12.512,204.555,204.555,0,0,1,20.183,30.5,278.471,278.471,0,0,1,16.654,36.968,351.9,351.9,0,0,1,12.574,42.431,413.018,413.018,0,0,1,7.947,46.888,455.177,455.177,0,0,1,2.77,50.342,455.165,455.165,0,0,1-2.77,50.342,413.018,413.018,0,0,1-7.947,46.888,351.9,351.9,0,0,1-12.574,42.431,278.471,278.471,0,0,1-16.654,36.968,204.475,204.475,0,0,1-20.183,30.5,156.155,156.155,0,0,1-11.245,12.513,129.145,129.145,0,0,1-11.921,10.518,107.259,107.259,0,0,1-12.53,8.4,91.11,91.11,0,0,1-13.07,6.156,80.884,80.884,0,0,1-13.541,3.784,76.023,76.023,0,0,1-27.887,0Zm1.232-484.878a71.2,71.2,0,0,0-12.344,3.6,81.521,81.521,0,0,0-11.915,5.854,97.59,97.59,0,0,0-11.423,7.99,132.008,132.008,0,0,0-21.118,21.906,195.536,195.536,0,0,0-18.4,29.013,270.78,270.78,0,0,0-15.182,35.165,345.735,345.735,0,0,0-11.462,40.36,408.731,408.731,0,0,0-7.245,44.6,455.245,455.245,0,0,0,0,95.77,408.714,408.714,0,0,0,7.245,44.6,345.8,345.8,0,0,0,11.462,40.361,270.822,270.822,0,0,0,15.182,35.164,195.462,195.462,0,0,0,18.4,29.013,132.049,132.049,0,0,0,21.118,21.907,97.576,97.576,0,0,0,11.423,7.989,81.529,81.529,0,0,0,11.915,5.855,71.272,71.272,0,0,0,12.344,3.6,66.473,66.473,0,0,0,25.423,0,71.272,71.272,0,0,0,12.344-3.6,81.616,81.616,0,0,0,11.915-5.855,97.579,97.579,0,0,0,11.423-7.989,132.088,132.088,0,0,0,21.119-21.907,195.537,195.537,0,0,0,18.4-29.013,270.821,270.821,0,0,0,15.181-35.164,345.975,345.975,0,0,0,11.463-40.361,408.537,408.537,0,0,0,7.244-44.6,451.679,451.679,0,0,0,2.526-47.885,451.649,451.649,0,0,0-2.526-47.885,408.554,408.554,0,0,0-7.244-44.6,345.91,345.91,0,0,0-11.463-40.36,270.832,270.832,0,0,0-15.181-35.165,195.61,195.61,0,0,0-18.4-29.013,132.047,132.047,0,0,0-21.119-21.906,97.625,97.625,0,0,0-11.423-7.99,81.521,81.521,0,0,0-11.915-5.854,71.2,71.2,0,0,0-12.344-3.6,66.475,66.475,0,0,0-25.423,0Zm.244,467.93a69.1,69.1,0,0,1-12.1-3.566,79.521,79.521,0,0,1-11.661-5.788,95.868,95.868,0,0,1-11.157-7.885,129.608,129.608,0,0,1-20.577-21.566,192.1,192.1,0,0,1-17.888-28.5,266.911,266.911,0,0,1-14.743-34.5,342.14,342.14,0,0,1-11.125-39.568,403.935,403.935,0,0,1-7.025-43.708,450.652,450.652,0,0,1,0-93.834,403.917,403.917,0,0,1,7.025-43.707,341.835,341.835,0,0,1,11.125-39.568,266.6,266.6,0,0,1,14.743-34.5,192.087,192.087,0,0,1,17.888-28.5A129.406,129.406,0,0,1,157.491,133.4a95.216,95.216,0,0,1,11.157-7.884,79.081,79.081,0,0,1,11.661-5.789,69.184,69.184,0,0,1,12.1-3.565,64.356,64.356,0,0,1,24.938,0,69.093,69.093,0,0,1,12.1,3.565,78.922,78.922,0,0,1,11.663,5.789A95.34,95.34,0,0,1,252.26,133.4a129.507,129.507,0,0,1,20.584,21.567,192.528,192.528,0,0,1,17.886,28.5,267.1,267.1,0,0,1,14.745,34.5,341.3,341.3,0,0,1,11.12,39.568,404.62,404.62,0,0,1,7.03,43.707,448.191,448.191,0,0,1,2.449,46.914,448.217,448.217,0,0,1-2.449,46.92,404.818,404.818,0,0,1-7.03,43.708,341.606,341.606,0,0,1-11.12,39.568,267.412,267.412,0,0,1-14.745,34.5,192.538,192.538,0,0,1-17.886,28.5,129.71,129.71,0,0,1-20.584,21.566,95.993,95.993,0,0,1-11.155,7.885,79.36,79.36,0,0,1-11.663,5.788,69.013,69.013,0,0,1-12.1,3.566,64.636,64.636,0,0,1-24.938,0Zm.666-459.2a64.994,64.994,0,0,0-11.479,3.427,75.031,75.031,0,0,0-11.1,5.584,91.24,91.24,0,0,0-10.652,7.638A125,125,0,0,0,140.1,158.594a188.364,188.364,0,0,0-17.251,27.863,263.88,263.88,0,0,0-14.252,33.815,338.926,338.926,0,0,0-10.77,38.841,401.567,401.567,0,0,0-6.807,42.939,448.556,448.556,0,0,0,0,92.215,402,402,0,0,0,6.807,42.939,338.859,338.859,0,0,0,10.77,38.84,263.825,263.825,0,0,0,14.252,33.811A188.23,188.23,0,0,0,140.1,537.725a125.276,125.276,0,0,0,19.752,20.988A91.389,91.389,0,0,0,170.5,566.35a76.012,76.012,0,0,0,11.1,5.584,65.11,65.11,0,0,0,11.479,3.427,60.222,60.222,0,0,0,23.608,0,65.115,65.115,0,0,0,11.472-3.427,76.012,76.012,0,0,0,11.1-5.584,91.832,91.832,0,0,0,10.659-7.637,125.335,125.335,0,0,0,19.749-20.988,188.161,188.161,0,0,0,17.253-27.868,263.825,263.825,0,0,0,14.25-33.811,339.231,339.231,0,0,0,10.771-38.84,402.683,402.683,0,0,0,6.806-42.939,444.247,444.247,0,0,0,2.376-46.111,444.126,444.126,0,0,0-2.376-46.1,402.248,402.248,0,0,0-6.806-42.939,339.3,339.3,0,0,0-10.771-38.841,263.88,263.88,0,0,0-14.25-33.815,188.3,188.3,0,0,0-17.253-27.863,125.057,125.057,0,0,0-19.749-20.988,91.3,91.3,0,0,0-10.659-7.638,75.031,75.031,0,0,0-11.1-5.584,65.111,65.111,0,0,0-11.472-3.427,60.265,60.265,0,0,0-23.608,0Zm203.31,442.069q-13.6,0-26.6-18.383-13.9-19.875-21.463-53.164-1.21,0-4.232,10.434a98.226,98.226,0,0,1-11.79,26.831Q318.391,550.6,309.927,550.6q-3.325,0-3.326-7.95a11.534,11.534,0,0,1,6.651-10.931q8.767-4.968,9.068-5.465,11.186-17.887,16.929-47.7,7.557-41.238,8.465-43.723,8.162-26.334,20.254-41.24a87.368,87.368,0,0,1,22.068-18.88q10.882-6.957,13.3-6.956h5.744a6.117,6.117,0,0,1,1.21,3.974q0,5.466-2.117,8.447-28.114,9.936-28.113,24.843,0,1.987,2.721,8.943T385.5,424.4q0,5.963-4.233,5.962-5.442,0-13-8.447-2.419,1.49-5.744,14.906,4.535,20.868,4.534,26.83,0,1.492-4.685,4.969t-4.685,11.428a116.171,116.171,0,0,0,10.883,48.692q9.069,20.371,15.115,20.372,1.512,0,5.593-2.237t6.2-2.236a13.916,13.916,0,0,1,9.976,3.726q3.931,3.727,3.93,7.7a7.093,7.093,0,0,1-1.814,4.969,6.606,6.606,0,0,1-5.139,1.987Zm-388.526,0a6.607,6.607,0,0,1-5.14-1.987A7.093,7.093,0,0,1,.906,556.07q0-3.974,3.93-7.7a13.918,13.918,0,0,1,9.976-3.726q2.117,0,6.2,2.236t5.593,2.236q6.045,0,15.115-20.371A116.173,116.173,0,0,0,52.6,480.05q0-7.949-4.686-11.427t-4.685-4.969q0-5.962,4.534-26.83-3.325-13.415-5.744-14.906-7.557,8.447-13,8.447-4.232,0-4.232-5.962,0-3.478,2.721-10.434t2.721-8.943q0-14.907-28.114-24.843Q0,377.2,0,371.735a6.117,6.117,0,0,1,1.21-3.974H6.953q2.418,0,13.3,6.956A87.368,87.368,0,0,1,42.322,393.6q12.092,14.907,20.255,41.24.907,2.484,8.465,43.723,5.744,29.812,16.929,47.7.3.5,9.069,5.466a11.535,11.535,0,0,1,6.65,10.931q0,7.949-3.326,7.95-8.464,0-22.37-21.862A98.2,98.2,0,0,1,66.2,501.912q-3.024-10.434-4.233-10.434-7.557,33.29-21.463,53.164-13,18.383-26.6,18.383ZM234.27,547.5H176.021c-.014,0-.09.008-.21.008a3.033,3.033,0,0,1-2.248-.94,4.556,4.556,0,0,1-.762-3.641c.191-1.623,2.716-2.74,5.913-4.157,6.707-2.97,16.842-7.458,16.842-21.209V398.576l9.486,13.984,10.742-15.126v120.13c0,6.159,1.885,11.028,5.762,14.884,3.282,3.264,7.331,5.14,10.585,6.646,3.005,1.391,5.176,2.4,5.36,3.837a4.552,4.552,0,0,1-.763,3.641,3.03,3.03,0,0,1-2.247.94C234.35,547.512,234.271,547.5,234.27,547.5Zm1.067-99.343c.437-3.453,14.607-3.453,14.607-17.554V311.189c-4.36,16.4-12.426,32.517-26.16,54.961-3.488,6.043-7.412,11.8-11.336,17.266-2.4,3.453-4.8,7.195-7.195,10.647-2.4-3.452-4.8-7.194-7.195-10.647-3.706-5.467-7.63-11.222-11.335-17.266-13.735-22.444-21.8-38.56-26.161-54.961V430.608c0,14.1,14.171,14.388,14.606,17.554.436,3.452-2.4,3.165-2.4,3.165H129.387s-2.834.287-2.4-3.165,14.606-3.453,14.606-17.554V362.514l-11.377-8.351,6.031-4.11,5.346-3.644v-68.6c0-14.1-14.17-14.387-14.606-17.553-.437-3.453,2.4-3.165,2.4-3.165H172.77s2.834-.288,2.4,3.165c-.218,1.726-3.052,2.3-4.142,2.877a22.236,22.236,0,0,0-7.195,5.18c-10.028,12.086,2.18,36.545,7.412,47.48,8.939,17.553,20.056,32.516,30.085,48.631,1.308,2.3,2.615,4.316,3.924,6.331,1.308-2.014,2.616-4.028,3.924-6.331,10.028-16.115,21.146-31.078,29.867-48.631,5.668-10.935,17.658-35.394,7.629-47.48a20.918,20.918,0,0,0-7.412-5.18c-.872-.575-3.706-1.151-4.142-2.877-.219-3.453,2.4-3.165,2.4-3.165h43.6s2.616-.288,2.18,3.165-14.606,3.452-14.606,17.553v68.714l11.045,7.528-11.045,8.108v68.449c0,14.1,14.171,14.388,14.606,17.554.374,2.959-1.495,3.171-2.036,3.171-.091,0-.144-.005-.144-.005h-43.6s-.053.006-.143.006C236.834,451.332,234.964,451.121,235.337,448.161ZM373.41,342.421q10.58,0,18.742-.5a114.2,114.2,0,0,1,15.116,4.471,33.027,33.027,0,0,1,2.721,2.982l-2.116,1.987a49.457,49.457,0,0,1-8.465,2.981l-16.929,1.49q-1.376.006-2.694.006C306.849,355.842,367.037,342.421,373.41,342.421Zm-345.6,13.415-16.928-1.49a49.4,49.4,0,0,1-8.464-2.981L.3,349.377A33.028,33.028,0,0,1,3.022,346.4a114.238,114.238,0,0,1,15.116-4.471q8.162.5,18.742.5c6.373,0,66.561,13.42-6.375,13.42Q29.187,355.842,27.811,355.836Zm177.5-4.883-9.754-15.04V235.521c0-6.157-1.975-11.024-6.042-14.88-3.442-3.265-7.687-5.14-11.1-6.646-3.153-1.393-5.431-2.4-5.615-3.841a4.554,4.554,0,0,1,.762-3.641,3.035,3.035,0,0,1,2.248-.941c.128,0,.206.008.21.008H234.27c.014,0,.09-.008.21-.008a3.032,3.032,0,0,1,2.247.941,4.551,4.551,0,0,1,.763,3.641c-.191,1.622-2.6,2.739-5.645,4.153-6.4,2.969-16.062,7.457-16.062,21.214v99.223l-10.471,16.208v0Zm181.4-26.419a69.309,69.309,0,0,1-21.766-20.867q-8.162-12.423-17.231-48.693a264.548,264.548,0,0,1-5.29-30.805q-1.964-16.893-2.872-21.365-5.442-23.352-11.185-33.289-6.953-12.421-19.045-15.4A13.577,13.577,0,0,1,306,145.168q0-6.957,5.441-6.956,2.722,0,8.465,7.453,10.279,11.925,13.906,15.9,6.651,6.46,17.534,42.73,10.278-67.573,43.229-70.057a10.186,10.186,0,0,1,8.767,2.981,10.658,10.658,0,0,1,3.326,7.453,5.445,5.445,0,0,1-3.628,5.466q-2.418-.5-5.744-.994a39.376,39.376,0,0,0-4.232-.5q-11.185,0-22.068,15.4-12.7,18.881-13,46.7a11.973,11.973,0,0,0-.907,4.969q0,6.46,3.929,6.459a6.524,6.524,0,0,0,2.872-1.242,6.523,6.523,0,0,1,3.174-1.242q5.139,0,5.139,6.458,0,2.485-4.383,12.422a46.828,46.828,0,0,0-4.383,18.881q0,13.912,6.2,19.625t7.1,12.173q1.813,14.409,9.069,20.867,4.836,4.473,23.579,13.415l.3,5.466a13.812,13.812,0,0,1-7.255,2.484Q397.594,331.49,386.711,324.534ZM.6,329.006l.3-5.466q18.743-8.944,23.58-13.415,7.255-6.458,9.068-20.867.907-6.46,7.1-12.173t6.2-19.625a46.83,46.83,0,0,0-4.384-18.881q-4.383-9.937-4.383-12.422,0-6.458,5.139-6.458a6.52,6.52,0,0,1,3.174,1.242,6.524,6.524,0,0,0,2.872,1.242q3.93,0,3.929-6.459a11.988,11.988,0,0,0-.906-4.969q-.3-27.823-13-46.7-10.882-15.4-22.068-15.4a39.375,39.375,0,0,0-4.232.5q-3.325.5-5.744.994a5.445,5.445,0,0,1-3.628-5.466,10.658,10.658,0,0,1,3.326-7.453,10.186,10.186,0,0,1,8.767-2.981q32.951,2.484,43.229,70.057,10.884-36.272,17.534-42.73,3.627-3.974,13.906-15.9,5.744-7.453,8.465-7.453,5.442,0,5.441,6.956a13.577,13.577,0,0,1-3.326,8.943q-12.092,2.981-19.045,15.4-5.744,9.937-11.185,33.289-.907,4.473-2.872,21.365a264.361,264.361,0,0,1-5.29,30.805q-9.069,36.27-17.231,48.693a69.309,69.309,0,0,1-21.766,20.867Q12.7,331.49,7.86,331.49A13.813,13.813,0,0,1,.6,329.006ZM146.591,233.87l-7.088,3.3,4.21-7.314-15.833-2.566,15.067-2.9-3.444-7.236,7.088,4.279,3.315-18.442,2.9,18.442,7.918-4.279-4.93,7.236,16.946,2.9-16.946,2.566,4.93,7.314-7.918-3.3-2.9,16.227Zm100.336.559c-1.092-7.043,1.421-16.305,14.753-16.305,11.807,0,15.008,8.437,14.814,14.358a14.037,14.037,0,0,1-3.094,8.671s2.989-13.715-11.72-13.715-11.152,14.468-11.152,14.468A15.67,15.67,0,0,1,246.927,234.429Zm-48-34.576v-8.708l-.752-2.9L196.7,186.34l-2.669-1.264-3.82-.243-4.765.931-.731,1.751-.777,2.062-1.8.778.5,1.557-2.317,1.556-1.8-2.335-1.553,1.816-3.093-.779-1.553,1.8h0l-2.016-.478-.558-1.584-1.813,1.038-1.118-1.516-1.716-1.079-.45,1.639-1.621,1.215-2.058-.779-1.8-.914.122-1.543,1.417-.642-.777-2.075,1.485-.382,1.363-1.42-1.4-.669-.15-2.308,1.418-1.038-1.677-2.062,1.3-2.2-.518-2.854,2.549-.86,1.321-1.338-.94-1.843-.355-2.157.668-1.706,1.662-.628-1.349-1.6,1.212-1.884,1.3.259,1.239-1.939-.6-2.335,2.276-.178,1.076-1.365v-1.815l1.553-1.188,2.057.41-.763-1.543,1.281-2.075-2.057-1.8-2.071.259-1.282-1.556,1.54-2.062,1.486-1.038,2.384.778-1.036-2.075h5.683l-6.7-2.062,2.317-1.816,2.071.26,1.54-.779.777,1.3,2.057,1.038,1.036-1.3-.518-2.321.832-1.31,2.18.614,1.376-1.12v-2.062l-1.281-2.075,1.54-2.061,2.33-.26,2.834.779,4.6,3.155a3.852,3.852,0,0,0-.66-.052c-.111,0-.227,0-.355.011a1.011,1.011,0,0,0-.7.347,2.011,2.011,0,0,0-.3,1.527,1.143,1.143,0,0,0-1.1,0A2.72,2.72,0,0,0,193.037,138c-.04.018-.076.038-.11.057a2.33,2.33,0,0,0-.8.869l-.009-.009a1.136,1.136,0,0,0-.842-.366,1.351,1.351,0,0,0-.407.065,1.707,1.707,0,0,0-.718.472,1.314,1.314,0,0,0-.45-.945.982.982,0,0,0-.841-.2c-.54.121-.77.6-.974,1.019l-.014.03a2.669,2.669,0,0,1-.158.3.649.649,0,0,1,.452-.2h.03a.673.673,0,0,1,.488.2l-.148.132a.493.493,0,0,1-.113-.192,1.557,1.557,0,0,1,.013.281l-1.047.933a1.073,1.073,0,0,0,.8.38.9.9,0,0,0,.139-.01.83.83,0,0,0,.111-.022,1.188,1.188,0,0,0,.808,1.1,1.14,1.14,0,0,0,.351.057c.678,0,1.121-.679,1.413-1.129l.049-.074.058-.086a1.056,1.056,0,0,0,.878.469,1.275,1.275,0,0,0,.352-.051,2.112,2.112,0,0,0,1.183-1.125l.017-.03c.019-.032.039-.068.06-.1a.983.983,0,0,0,.669.293.863.863,0,0,0,.452-.131c.408-.251.511-.672.309-1.25-.407-1.161-.448-1.72-.154-2.06l.023.04.024.039c.266.437.568.931,1.152,1a.977.977,0,0,0,.114.007,1.053,1.053,0,0,0,.753-.324c.491-.5.427-1.317.354-2.265-.01-.13-.022-.28-.03-.427.2.034.245.09.253.1.036.049.329.546-.529,2.882-.287.779-.015,1.182.264,1.381a.869.869,0,0,0,.521.178,2.225,2.225,0,0,0,1.238-.653l.016-.013a5.056,5.056,0,0,1,.535-.4.633.633,0,0,1-.186.028.689.689,0,0,1-.17-.022l.414-1.686a1.06,1.06,0,0,0-.251-.031,1.1,1.1,0,0,0-.2.019,3.561,3.561,0,0,0-.093-2.448l5.432,3.725-6.648-7.924,2.317-2.075.518,1.557h3.611v2.061L202,133.23l2.057.765,2.834.259.259-1.543,3.106-1.038-.518-1.557,2.057-.5,2.071,1.8,1.8-.518,1.4-1.3,1.949,1.3-.109,1.652,1.922.941-2.071,1.283,1.035,2.335,2.834.259,2.072,1.024,3.352-.26,1.553,2.075,2.057.642,2.643-.068.708,2.266-1.8,1.3-1.036,2.321,1.813.779-.259,2.335,1.8,1.024.518,2.075-1.771.655,1.254,1.8-.518,2.457,1.036,1.8,1.567.5,1.267-.764.518,2.335,1.212-.655,1.376.655-.777,2.061,2.057-.259,1.158,1.557-1.021,1.283.491,1.8,1.54.013.422,1.3-1.036,1.419.218,1.707,2.1.491-.518,1.8,1.035,1.038-.64,2.2,1.158,1.87,2.193.969-.259,1.816,1.922.246,1.349,1.543-.04,1.311-1.676.122-1.677,1.3v1.556l-1.812.765-1.486,1.147-1.607-.628-1.813,1.557-2.834-.519-2.575.778-2.33-1.3-1.294,1.038-3.353-1.3-1.021-1.543-2.589-.518-2.057-2.075-1.813-.26-.517-2.061-2.317-1.038v-2.595L218,180.4l-.046-.1-.927,1.087-3.805,1.743-2.265,2.342-1.052,2.139-.074,2.315.713,9.923Zm36.839-15.235a3.345,3.345,0,0,0,1.37,2.452,1,1,0,0,0,.531.156.938.938,0,0,0,.452-.116c.559-.308.564-.921.571-1.63l.005.007a.288.288,0,0,0,.021.026l.007.01c.42.525.784.977,1.347.977l.068,0a.944.944,0,0,0,.76-.466.932.932,0,0,0,.129-.539c.036,0,.076.006.117.006a1.244,1.244,0,0,0,.751-.262,1.887,1.887,0,0,0,.657-1.417,1.037,1.037,0,0,0,.446.13c.02,0,.04,0,.059,0a1.049,1.049,0,0,0,.79-.373,1.885,1.885,0,0,0,.24-1.631v-.007c-.054-.335-.121-.751,0-.886l-1.275-1.176a2.053,2.053,0,0,0-.528,1.411l-.049-.008a1.147,1.147,0,0,0-.147-.01,1.075,1.075,0,0,0-.7.263,2.147,2.147,0,0,0-.546,1.708c0,.074,0,.163-.009.255a3.389,3.389,0,0,0-.5-.348,1.228,1.228,0,0,0-.577-.155,1.052,1.052,0,0,0-.663.24c-.041.036-.077.07-.108.1a1.345,1.345,0,0,0-.725-.228,1.267,1.267,0,0,0-.335.047,1.112,1.112,0,0,0-.585.39,9.57,9.57,0,0,0-.212-1,1.012,1.012,0,0,0-.83-.789,1.084,1.084,0,0,0-.15-.011c-.554,0-.893.467-1.219.986a1.082,1.082,0,0,0-.628-.748,1.007,1.007,0,0,0-.386-.077,1.256,1.256,0,0,0-.81.331l1.115,1.328a.6.6,0,0,1-.305.077.716.716,0,0,1-.232-.04.659.659,0,0,1-.41-.374,3.282,3.282,0,0,1,.046.383,4.112,4.112,0,0,0,.129.816,1.147,1.147,0,0,0,1.109.9l.055,0a1.564,1.564,0,0,0,1.148-.712l0,0Zm-57.6-1.4a1.28,1.28,0,0,0,.171.044,1.2,1.2,0,0,0,.328.629,2.072,2.072,0,0,0,1.154.6l-.028-.142,2.024-.529.524-1.233a1.368,1.368,0,0,0-.541-.106,3.286,3.286,0,0,0-.887.166c-.2.058-.354.1-.476.118a2.623,2.623,0,0,0,.22-.266.977.977,0,0,0-.754-1.6,1.229,1.229,0,0,0-.515.122,3.041,3.041,0,0,0-.394.23,1.158,1.158,0,0,0-.521-1.13.92.92,0,0,0-.442-.113.99.99,0,0,0-.529.158,1.588,1.588,0,0,0-.61,1.063,1.513,1.513,0,0,0-1.307-1.1l-.079,0c-.809.046-1.15.783-1.356,1.419a1.95,1.95,0,0,0-.637-.658,1.816,1.816,0,0,0-.99-.282,2.54,2.54,0,0,0-.478.049l.086-.17.041-.082c.32-.618.76-1.465.182-2.145a1.128,1.128,0,0,0-.857-.392,1.476,1.476,0,0,0-.538.111,4.36,4.36,0,0,0-.736.419l-.046.03c-.029.019-.058.039-.09.058a2.878,2.878,0,0,0-.176-1.933,1.6,1.6,0,0,0-1.541-.87h-.081a.378.378,0,0,1-.03-.055l-1.546.785a1.675,1.675,0,0,0,1.648,1.008h.045a1.842,1.842,0,0,1-.03.788,1.871,1.871,0,0,0,.526,2,1.268,1.268,0,0,0,.761.253,1.746,1.746,0,0,0,.626-.127,1.743,1.743,0,0,0-.036,1.455,1.221,1.221,0,0,0,1.174.744,2.616,2.616,0,0,0,.692-.111,1.91,1.91,0,0,1,.392-.078.155.155,0,0,1,.08.016c.117.075.217.418.283.644a2.753,2.753,0,0,0,.291.735,1.151,1.151,0,0,0,.983.563,1.207,1.207,0,0,0,.3-.038c.706-.177.969-.88,1.16-1.525.251.691.61,1.4,1.381,1.4l.049,0a1.27,1.27,0,0,0,1.13-.924h0Zm28.058-7.59.726,6.8,2.635-1.714,4.976-2.228.514-.538-.947-.133v-2.2l-2.588,1.693-1.282-1.556-1.812.655-1.022-1.557-1.133.565Zm-10.2,5.811,4.73.845.313-5.608-2.932-.789-1.949,1.939-2.18-.642-2.072,2.321-2.575.9-.5,1.574,2.074-.542Zm34.387-4.194a1.462,1.462,0,0,0,.67,1.012,1.222,1.222,0,0,0,.627.176,1.259,1.259,0,0,0,.723-.238,2.724,2.724,0,0,0,.554-.571l.009-.012c.1-.132.321-.407.4-.42a1.63,1.63,0,0,1,.383.291,1.656,1.656,0,0,0,1.092.548c.029,0,.059,0,.088,0a1.143,1.143,0,0,0,.817-.448,2.474,2.474,0,0,0,.134-2.137.225.225,0,0,0-.006-.026,3.873,3.873,0,0,0,.56.379,1.475,1.475,0,0,0,.689.188,1.135,1.135,0,0,0,.743-.277,1.507,1.507,0,0,0,.4-1.5l.027-.007a1.107,1.107,0,0,0,.2-.078,1.078,1.078,0,0,0,.592.264,2,2,0,0,0,.263.017,2.918,2.918,0,0,0,2.18-1.43,3.582,3.582,0,0,1,.334-.4.379.379,0,0,1-.1.047l-.509-1.66a2.354,2.354,0,0,0-1.093.947l-.087.114-.049.063a1.058,1.058,0,0,0-.17-.728.931.931,0,0,0-.636-.392,1.212,1.212,0,0,0-.149-.01c-.672,0-.967.683-1.125,1.05a1.014,1.014,0,0,0-.854-.519h-.049a.952.952,0,0,0-.825.588,2.148,2.148,0,0,0,.1,1.493,1.961,1.961,0,0,0-1.065-.394,1.144,1.144,0,0,0-.774.31,2.133,2.133,0,0,0-.321,2.157,1.731,1.731,0,0,0-.771-.184,1.826,1.826,0,0,0-.231.015,1.97,1.97,0,0,0-1.139.595c-.021-.756-.047-1.79-.984-2a1.074,1.074,0,0,0-.23-.024,1.23,1.23,0,0,0-1.048.648,5.672,5.672,0,0,0-.394.8l-.027.062c-.01.023-.021.047-.031.07a2.221,2.221,0,0,0-1.04-1.316,1.553,1.553,0,0,0-.695-.175,1.716,1.716,0,0,0-1.081.451l-.036.029a1.164,1.164,0,0,1-.1.073.274.274,0,0,1,.113-.022l-.835,1.506a1.7,1.7,0,0,0,.826.234,1.753,1.753,0,0,0,1.1-.452,3.833,3.833,0,0,1,.207.509c.175.5.5,1.424,1.463,1.424l.09,0a1.406,1.406,0,0,0,1.071-.635v0Zm-49.1-4.036c.159.054.386.337.587.587l0,.005a3.278,3.278,0,0,0,1.575,1.256l.5-1.663c-.233-.07-.47-.366-.721-.68a2.731,2.731,0,0,0-1.781-1.239,1.9,1.9,0,0,0-.212-.013,1.568,1.568,0,0,0-1.086.435,1.107,1.107,0,0,0-.743-.582,1.272,1.272,0,0,0-.305-.039,1.9,1.9,0,0,0-1.327.779l-.062.067c-.031-.105-.059-.213-.081-.3l-.006-.023c-.137-.536-.307-1.2-.985-1.375a1,1,0,0,0-.248-.031h-.056a1.76,1.76,0,0,0-.639-1.069,1.2,1.2,0,0,0-.689-.221,1.263,1.263,0,0,0-.429.078c.029-.055.059-.112.091-.17l0-.008.005-.009a8.775,8.775,0,0,0,.514-1.076,1.067,1.067,0,0,0-.131-1.048,1.188,1.188,0,0,0-1.034-.427,6.134,6.134,0,0,0-.638.046l-.233.023a1.354,1.354,0,0,0,.193-1.209,1.228,1.228,0,0,0-.913-.742l-.428,1.682a.609.609,0,0,1-.294-.7,2.433,2.433,0,0,1-.139.223l-.013.019c-.232.347-.85,1.268-.1,2.03a1.726,1.726,0,0,0,1.318.456c.1,0,.208,0,.328-.013a3.548,3.548,0,0,0-.484,3.083.989.989,0,0,0,.944.694,1.654,1.654,0,0,0,1.157-.742c.016.174.027.35.034.48v.008a2.349,2.349,0,0,0,.437,1.6.954.954,0,0,0,.678.288.9.9,0,0,0,.284-.046.945.945,0,0,0,.29-.152,1.433,1.433,0,0,0,.732.539,1.357,1.357,0,0,0,.421.069,1.6,1.6,0,0,0,1.043-.441c0,.024.009.049.016.079a1.116,1.116,0,0,0,1,.915,1.006,1.006,0,0,0,.1,0c.723,0,1.081-.664,1.273-1.021a2.789,2.789,0,0,1,.248-.406h0Zm19.053-3.249a1.553,1.553,0,0,0,.921.888,1.308,1.308,0,0,0,.407.066q.048,0,.094,0l.161-1.109-1.44-2.977a1.172,1.172,0,0,0-.255-.032h-.022a1.161,1.161,0,0,0-1.106.887,5.3,5.3,0,0,0-.187.856c0,.023-.008.049-.013.074l-.005.035a2.459,2.459,0,0,0-1.363-1.091,1.8,1.8,0,0,0-.436-.058,1.573,1.573,0,0,0-1.244.684.229.229,0,0,1-.018.022l-.015.019a2.109,2.109,0,0,1-.694-.669,2.741,2.741,0,0,0-1.783-1.243,1.853,1.853,0,0,0-.21-.012,1.578,1.578,0,0,0-1.089.435,1.1,1.1,0,0,0-.742-.582,1.239,1.239,0,0,0-.305-.039,1.9,1.9,0,0,0-1.327.78l-.051.055-.011.012c-.03-.1-.056-.2-.077-.284l-.01-.038c-.137-.536-.307-1.2-.985-1.376a1.094,1.094,0,0,0-.251-.031h-.053a1.76,1.76,0,0,0-.639-1.069,1.209,1.209,0,0,0-.689-.221,1.261,1.261,0,0,0-.428.077l.005-.01c.03-.057.059-.112.09-.168l.005-.009a8.773,8.773,0,0,0,.514-1.076,1.065,1.065,0,0,0-.132-1.048,1.185,1.185,0,0,0-1.033-.427,6.138,6.138,0,0,0-.638.046l-.233.023a1.354,1.354,0,0,0,.193-1.209,1.228,1.228,0,0,0-.913-.742l-.428,1.682a.578.578,0,0,1-.265-.287.569.569,0,0,1-.03-.413,2.429,2.429,0,0,1-.139.223l-.013.019c-.232.347-.85,1.268-.1,2.03a1.729,1.729,0,0,0,1.321.456c.1,0,.206,0,.325-.013a3.545,3.545,0,0,0-.483,3.083.988.988,0,0,0,.943.694c.473,0,.8-.336,1.157-.742.016.177.027.356.035.487a2.352,2.352,0,0,0,.436,1.6.954.954,0,0,0,.678.288.9.9,0,0,0,.283-.046.945.945,0,0,0,.29-.152,1.433,1.433,0,0,0,.732.54,1.349,1.349,0,0,0,.419.068,1.6,1.6,0,0,0,1.045-.441c0,.024.009.049.016.079a1.116,1.116,0,0,0,1,.915,1.023,1.023,0,0,0,.1,0c.723,0,1.081-.665,1.273-1.023a2.7,2.7,0,0,1,.247-.4c.16.054.387.338.587.588l.005.005a3.278,3.278,0,0,0,1.575,1.256,1.938,1.938,0,0,0,.562.089,1.606,1.606,0,0,0,1.279-.692,3.236,3.236,0,0,1,.39.5c.292.428.733,1.076,1.48,1.076a1.4,1.4,0,0,0,.349-.046,1.355,1.355,0,0,0,.933-.861v0Zm23.215-1.3,1.106,1.289,1.639-.626-.279-2.057,1.109-.6.109-1.993-2.126-.491-.436-1.8-.653-.1-1.7,2.927-.718,3.639.224.353,1.72-.534h0Zm-7.544-5.523,1.331,1.153-1.016,1.634,2.156.354.342,1.589.311-.1.847-3.665,1.678-2.908-.634-.634-2.289-.587-.856,1.94-1.949-.473Zm-9.567,4.365a1.063,1.063,0,0,0,.9-.45,1.43,1.43,0,0,0,.04-1.526,1.086,1.086,0,0,0,.161-.105,1.12,1.12,0,0,0,.563.15c.028,0,.056,0,.084,0a2.6,2.6,0,0,0,2.079-1.865,3.85,3.85,0,0,1,.208-.419.4.4,0,0,1-.1.072l-.819-1.53a2.219,2.219,0,0,0-.867,1.157l-.01.023c-.038.082-.074.159-.109.231a1.155,1.155,0,0,0-.347-.77.938.938,0,0,0-.631-.245h-.054c-.725.044-.924.694-1.017,1.255a1.162,1.162,0,0,0-.773-.361.942.942,0,0,0-.928.808,1.974,1.974,0,0,0,.413,1.32c-.1-.037-.2-.07-.3-.1a1.819,1.819,0,0,0-.452-.061,1.421,1.421,0,0,0-.21.015l1.244,2.173A2.47,2.47,0,0,0,206.472,167.5Zm-4.784-6.953a1.282,1.282,0,0,0,.616-.234,2.706,2.706,0,0,0,.563-.581c.105-.132.322-.408.406-.421a1.614,1.614,0,0,1,.384.291,1.65,1.65,0,0,0,1.093.548c.028,0,.057,0,.086,0a1.145,1.145,0,0,0,.817-.448,2.476,2.476,0,0,0,.134-2.137l-.005-.025a3.842,3.842,0,0,0,.559.379,1.472,1.472,0,0,0,.689.188,1.128,1.128,0,0,0,.743-.278,1.5,1.5,0,0,0,.4-1.5l.015,0,.013,0a1.33,1.33,0,0,0,.2-.078,1.091,1.091,0,0,0,.592.264,2,2,0,0,0,.262.017,2.92,2.92,0,0,0,2.181-1.431l.013-.017a3.662,3.662,0,0,1,.311-.372.436.436,0,0,1-.093.039l-.509-1.66a2.354,2.354,0,0,0-1.093.947l-.087.114-.049.063a1.057,1.057,0,0,0-.17-.728.931.931,0,0,0-.636-.392,1.084,1.084,0,0,0-.15-.011c-.672,0-.966.684-1.123,1.051a1.019,1.019,0,0,0-.857-.519h-.047a.949.949,0,0,0-.825.588,2.148,2.148,0,0,0,.1,1.493,1.961,1.961,0,0,0-1.065-.394,1.146,1.146,0,0,0-.774.31,2.133,2.133,0,0,0-.321,2.157,1.753,1.753,0,0,0-.771-.184,1.839,1.839,0,0,0-.231.015,1.947,1.947,0,0,0-1.139.595c-.022-.756-.049-1.791-.985-2a1.09,1.09,0,0,0-.231-.024,1.227,1.227,0,0,0-1.046.647q-.028.044-.055.089Zm-6.16-2.261a1.694,1.694,0,0,0,.825.234,1.39,1.39,0,0,0,.139-.007l-.171-.353-.237-.879Zm25.971-3.461a3.341,3.341,0,0,0,1.37,2.452,1,1,0,0,0,.531.157.938.938,0,0,0,.452-.116,1.059,1.059,0,0,0,.117-.075l.039-.068.027.014c.377-.334.381-.88.386-1.5l.016.021.01.012c.424.53.789.987,1.358.987l.066,0a.947.947,0,0,0,.888-1c.036,0,.076.006.117.006a1.24,1.24,0,0,0,.751-.263,1.891,1.891,0,0,0,.657-1.417,1.019,1.019,0,0,0,.446.131c.02,0,.04,0,.059,0a1.055,1.055,0,0,0,.791-.373,1.885,1.885,0,0,0,.24-1.631c-.055-.337-.123-.757,0-.894l-1.274-1.176a2.039,2.039,0,0,0-.528,1.411l-.049-.008a1.147,1.147,0,0,0-.147-.01,1.08,1.08,0,0,0-.7.262,2.15,2.15,0,0,0-.546,1.709c0,.073,0,.163-.009.254a3.463,3.463,0,0,0-.5-.348,1.231,1.231,0,0,0-.575-.154,1.049,1.049,0,0,0-.665.24,1.2,1.2,0,0,0-.108.1,1.347,1.347,0,0,0-.725-.228,1.232,1.232,0,0,0-.335.047,1.1,1.1,0,0,0-.585.389,9.871,9.871,0,0,0-.212-1,1.021,1.021,0,0,0-.83-.789,1.084,1.084,0,0,0-.15-.011c-.553,0-.893.467-1.219.986a1.083,1.083,0,0,0-.628-.748,1.026,1.026,0,0,0-.385-.076,1.261,1.261,0,0,0-.812.331l1.115,1.328a.591.591,0,0,1-.305.077.71.71,0,0,1-.231-.04.657.657,0,0,1-.41-.375,3.281,3.281,0,0,1,.046.383,3.968,3.968,0,0,0,.129.817,1.152,1.152,0,0,0,1.114.9l.049,0a1.56,1.56,0,0,0,1.148-.712l0,0Zm-39.347-2.3a.13.13,0,0,0,.019.02,1.258,1.258,0,0,0,.163.144,1.114,1.114,0,0,0,.042.647,2.743,2.743,0,0,0,2.384,1.509,4.089,4.089,0,0,1,.5.105.475.475,0,0,1-.079-.064l1.229-1.224a2.341,2.341,0,0,0-1.345-.528c-.075-.013-.148-.025-.221-.04a1.051,1.051,0,0,0,.564-.489.938.938,0,0,0,.05-.748,1.077,1.077,0,0,0-1.162-.661c-.126,0-.247.009-.35.016a1.009,1.009,0,0,0,.037-1.041.932.932,0,0,0-.829-.461l-.074,0a2.111,2.111,0,0,0-1.273.78c.093-.89-.162-1.436-.781-1.669a1.291,1.291,0,0,0-.456-.084,2.989,2.989,0,0,0-1.74.923,4.183,4.183,0,0,1-.653.5.442.442,0,0,1,.075-.006.466.466,0,0,1,.092.009l-.343,1.7a1.245,1.245,0,0,0,.254.026,2.873,2.873,0,0,0,1.7-.9l.021-.017a4,4,0,0,0-.075.672,1.214,1.214,0,0,0,.746,1.229,1.2,1.2,0,0,0,.441.085,1.8,1.8,0,0,0,1.067-.43h0Zm6.4-3.2.627,1.429L189,152.675l1.275.491,1.368-1.268,1.564.438,1.535-.042-.958-3.548-1.926-3.417-1.037,2.318-1.758-.3Zm9.229,1.536,1.223-1.391,1.308-1.147-.082-2.034-1.676-.314-.218-1.966-1.8,1.093-1.772-.887-.2.257,2.133,3.881.818,2.411Zm17.011-3.85.005.006a2.745,2.745,0,0,0,.563.582,1.258,1.258,0,0,0,.722.239,1.222,1.222,0,0,0,.627-.176,1.461,1.461,0,0,0,.671-1.014,1.405,1.405,0,0,0,1.072.637l.089,0c.963,0,1.288-.925,1.462-1.422l.008-.023a3.68,3.68,0,0,1,.2-.489,1.736,1.736,0,0,0,1.1.453,1.694,1.694,0,0,0,.826-.235l-.834-1.506a.3.3,0,0,1,.115.022,1.276,1.276,0,0,1-.137-.1,1.723,1.723,0,0,0-1.082-.451,1.556,1.556,0,0,0-.695.175,2.228,2.228,0,0,0-1.04,1.317l-.017-.039,0,0c-.013-.032-.027-.061-.039-.09l0-.009a5.546,5.546,0,0,0-.391-.788,1.227,1.227,0,0,0-1.047-.647,1.091,1.091,0,0,0-.231.024c-.932.208-.962,1.243-.984,2a1.953,1.953,0,0,0-1.139-.6,1.82,1.82,0,0,0-.23-.014,1.758,1.758,0,0,0-.772.183,2.128,2.128,0,0,0-.321-2.156,1.143,1.143,0,0,0-.775-.311,1.961,1.961,0,0,0-1.064.394,2.119,2.119,0,0,0,.1-1.492.949.949,0,0,0-.826-.588h-.047a1.022,1.022,0,0,0-.856.518c-.158-.367-.448-1.05-1.125-1.05a1.2,1.2,0,0,0-.148.01.935.935,0,0,0-.636.393,1.053,1.053,0,0,0-.17.727c-.032-.039-.062-.079-.093-.118l-.043-.057,0,0a2.349,2.349,0,0,0-1.09-.945L206,142.033a.346.346,0,0,1-.1-.047,3.087,3.087,0,0,1,.311.368l.023.029a2.921,2.921,0,0,0,2.182,1.431,1.975,1.975,0,0,0,.261-.017,1.1,1.1,0,0,0,.592-.264,1.2,1.2,0,0,0,.2.077l.014,0,.014,0a1.5,1.5,0,0,0,.4,1.5,1.132,1.132,0,0,0,.742.277,1.475,1.475,0,0,0,.689-.188,3.76,3.76,0,0,0,.56-.379c0,.01,0,.018-.005.025a2.478,2.478,0,0,0,.134,2.138,1.148,1.148,0,0,0,.817.448c.03,0,.059,0,.087,0a1.656,1.656,0,0,0,1.092-.548,1.691,1.691,0,0,1,.376-.29h0C214.475,146.617,214.691,146.887,214.794,147.018Zm27.227-50.266a4.149,4.149,0,0,1,4.236-4.055,4.355,4.355,0,0,1,2.2.587c1.761-3.888,11.533-25.907,11.9-36.68.231-6.89-5.493-11.981-10.321-15.034,2.782,3.93,4.634,8.764,4.529,11.875-.157,4.578-4.421,15.606-9.805,20.844A169.483,169.483,0,0,1,230.8,86.542a3.978,3.978,0,0,1,1.942,3.366,4.407,4.407,0,1,1-4.393-4.055,4.677,4.677,0,0,1,2.029.457c1.12-3.652,6.057-20.3,6.413-30.7.272-8.021-16.144-12.094-24.025-13.965.066,5.774-1.193,11.6-1.679,19.3a78.338,78.338,0,0,1-2.617,16.625h-6.737s-2.011-4.981-3.286-15.828c-1-8.546-2.158-14.049-1.828-19.97-8.067,1.927-23.754,6-23.486,13.838.352,10.363,5.253,26.917,6.4,30.658a4.37,4.37,0,0,1,1.867-.414,4.059,4.059,0,1,1-4.235,4.055,4.011,4.011,0,0,1,1.921-3.4,169.864,169.864,0,0,1-13.914-12.223c-5.386-5.238-9.648-16.266-9.8-20.844-.105-3.111,1.748-7.946,4.53-11.876-4.828,3.053-10.554,8.143-10.323,15.035.341,10.111,8.968,30.126,11.484,35.763a4.564,4.564,0,0,1,3.165-1.243,4.068,4.068,0,1,1-4.393,4.055,3.832,3.832,0,0,1,.845-2.392c-2.754-2.813-10.363-10.558-17.042-17.111-5.387-5.284-9.717-14.453-9.873-19.073-.176-5.223,5.321-13.879,11.255-16.508,5.252-2.327,13.425-2.329,17.988-2.107a12.611,12.611,0,0,1,3.373-2.287c3.3-1.452,12.1-4.785,17.869-4.035a20.387,20.387,0,0,1,12.174,6.44s.227.13.545.342c.08-.532.173-1.071.281-1.621,1.582-8.122,3.689-7.855,7.543-7.573.643.047,1.236.04,1.781.034,2.718-.031,4.3-.062,5.615,6.536.192.967.33,1.922.425,2.867.49-.35.9-.586.9-.586a20.387,20.387,0,0,1,12.174-6.44c5.772-.751,14.563,2.583,17.868,4.035a12.629,12.629,0,0,1,3.374,2.287c4.563-.222,12.737-.221,17.989,2.107,5.932,2.629,11.432,11.285,11.255,16.508-.157,4.62-4.487,13.789-9.875,19.073C259.033,82.8,250.678,91.323,248.646,93.4a4.008,4.008,0,0,1,1.848,3.35,4.24,4.24,0,0,1-8.473,0ZM198.539,83.663c0-3.015,2.81-5.459,6.276-5.459s6.276,2.444,6.276,5.459-2.81,5.459-6.276,5.459S198.539,86.678,198.539,83.663Zm.313-61.515c0-3.1,2.81-5.615,6.276-5.615s6.276,2.514,6.276,5.615-2.81,5.615-6.276,5.615S198.852,25.25,198.852,22.148Zm3.714-6.862V9.877H197.6V5.409h14.434V9.877h-4.97v5.409Z" transform="translate(10846.094 6004.125)" fill="#b9a574"/>
      <path id="Unión_215_-_Contorno" data-name="Unión 215 - Contorno" d="M205.447,710.75a75.293,75.293,0,0,1-14.968-1.733H176.425l-6.024-6.06c-1.085-.253-2.133-.532-3.144-.83-1.242.086-2.484.127-3.733.127a46.789,46.789,0,0,1-26.2-7.76L120.128,683l-1.166-14.9A48.679,48.679,0,0,1,95.4,636.543a49.618,49.618,0,0,1,1.439-27.728,48.019,48.019,0,0,1,8.854-15.487q-.441-.471-.881-.946a44.571,44.571,0,0,1-4.452.223c-13.861,0-25.19-5.6-34.2-12.923C47.4,600.343,27.84,605.026,13.9,605.026H7.86A48.289,48.289,0,0,1-28.3,589.355a49.216,49.216,0,0,1-12.8-33.286c0-14.2,6.047-27.76,17.027-38.175A55.665,55.665,0,0,1,6.715,503.2a73.537,73.537,0,0,0,3.226-13.517,42.788,42.788,0,0,1-8.712-26.028q0-.2,0-.4c-11.341-8.572-18.441-22.513-18.441-38.856a53.067,53.067,0,0,1,.389-6.367l-7.608-2.689-7.7-10.854C-38.681,395.268-42,384.247-42,371.735q0-2.17.177-4.3l-15.8-14.829,15.886-18.653,2.081-37.6,22.472-10.723c4.193-2,7.3-3.575,9.563-4.773A60.456,60.456,0,0,1,3.921,255.246c-4.962-11.28-7.831-19.686-7.831-29.09A49.415,49.415,0,0,1,7.576,193.768q-.139-.385-.286-.761l-4.148.852L-8.72,188.981a47.134,47.134,0,0,1-29.653-44.309,52.739,52.739,0,0,1,14.967-36.477,51.769,51.769,0,0,1,37.8-16.019h1.919l3.24.237a70.144,70.144,0,0,1,44.216,19.826c7.1-7.281,18.76-16.027,35.088-16.027a50.31,50.31,0,0,1,7.753.594C98.785,86.169,92.249,71.949,91.78,58.017,91.016,35.395,106.587,11.18,128,1.694a70.5,70.5,0,0,1,24.141-5.569C153.2-4.3,154.355-4.75,155.6-5.2V-36.591h98.434V-5.307c1.352.487,2.607.971,3.745,1.432A70.517,70.517,0,0,1,281.925,1.7c21.413,9.49,36.981,33.7,36.216,56.325-.473,13.961-7.034,28.208-14.877,38.852a50.2,50.2,0,0,1,8.173-.661c16.363,0,28.041,8.781,35.132,16.071a71.186,71.186,0,0,1,44.843-19.926l1.576-.119,2.91-.062a51.768,51.768,0,0,1,37.794,16.017,52.741,52.741,0,0,1,14.969,36.479,47.134,47.134,0,0,1-29.654,44.309l-11.862,4.878-4.231-.869q-.134.349-.262.71A49.406,49.406,0,0,1,414.2,226.156c0,9.4-2.869,17.81-7.831,29.09a60.453,60.453,0,0,1,11.539,25.615c2.263,1.2,5.37,2.773,9.564,4.774l22.471,10.724,2.081,37.6L467.9,352.6l-15.791,14.83q.177,2.128.177,4.3c0,12.512-3.32,23.533-9.867,32.757l-7.7,10.854-7.607,2.689a53.031,53.031,0,0,1,.39,6.367c0,16.343-7.1,30.285-18.442,38.856q0,.2,0,.4a42.791,42.791,0,0,1-8.714,26.031,73.25,73.25,0,0,0,3.212,13.512,55.66,55.66,0,0,1,30.792,14.694c10.984,10.414,17.033,23.973,17.033,38.18A49.209,49.209,0,0,1,438.6,589.347a48.293,48.293,0,0,1-36.165,15.678h-6.046c-13.958,0-33.56-4.7-52.273-25.335-9.012,7.324-20.333,12.914-34.185,12.914a44.578,44.578,0,0,1-4.94-.275q-.54.585-1.083,1.162a48.361,48.361,0,0,1,9.027,15.721,49.594,49.594,0,0,1-16.152,55.239v20.105l-23.27,12.572a45.344,45.344,0,0,1-20.9,5.18H248.11l-1.206-.252c-2.059.332-4.414.853-5.681,1.113l-2.384.49a44.523,44.523,0,0,1-17.4,5.323A118.488,118.488,0,0,1,205.447,710.75Z" transform="translate(10846.094 6004.125)" fill="url(#linear-gradient)"/>
      <g transform="matrix(1, 0, 0, 1, 9706.94, 5961.53)" filter="url(#Unión_221)">
        <path id="Unión_221-2" data-name="Unión 221" d="M194.576,667.017a2.252,2.252,0,0,1-1.564-.866,2.586,2.586,0,0,1-.815-1.76,21.894,21.894,0,0,1,1.495-2.963q2.174-4.024,3.941-7.658,6.32-13.081,6.318-17.942a5.018,5.018,0,0,1,.1-.839,5.227,5.227,0,0,0,.1-.839q0-.5-.409-.5-.272,0-1.291,1.565a59.808,59.808,0,0,0-4.144,8.16q-2.785,6.26-4.552,9.334a48.244,48.244,0,0,1-5.029,7.212c-1.4,1.6-3.056,2.755-7.321,2.379s-9.018-3.889-9.733-3.889a.564.564,0,0,1-.3-.111.676.676,0,0,0-.374-.113q-.069,0-2.447,1.035a12.475,12.475,0,0,1-5.029,1.034,5.12,5.12,0,0,1-2.853-.671c-.73-.488.176-1.285.176-1.285a81.842,81.842,0,0,0,27.75-18q12.57-12.02,12.572-14.7a4.432,4.432,0,0,0-.986-1.594,3.921,3.921,0,0,1-.984-2.375q0-4.136,6.726-4.137,6.525,0,6.524,4.3a3.3,3.3,0,0,1-.952,1.622q-.951,1.116-.952,1.509,0,1.062,4.281,6.26a116.611,116.611,0,0,0,13.387,13.528,79.037,79.037,0,0,0,9.512,7.434,39.49,39.49,0,0,0,12.231,4.975q1.563.279,3.194.615t1.631,1.4c0,.26-.25.521-.748.783a3.085,3.085,0,0,1-1.427.391,13.67,13.67,0,0,1-1.494-.28,10.859,10.859,0,0,0-2.241-.28c-.182,0-.623.038-1.326.113a17.383,17.383,0,0,1-1.8.111c-3.76,0-14.061,2.324-14.334,2.324-.634,0-4.715.005-6.934-2.044a49.6,49.6,0,0,1-7.679-9.447,102.179,102.179,0,0,1-7.065-13.136,46.648,46.648,0,0,0-2.312-4.974.487.487,0,0,0-.543.559q0,3.24,5.164,16.49a78.633,78.633,0,0,0,5.165,10.732,34.007,34.007,0,0,1,2.31,4.191,2.194,2.194,0,0,1-2.447,2.517c-1.043,0-8.4,1.565-11.618,1.565C201.777,668.751,195.435,667.017,194.576,667.017Zm67.062-37.254-.161-.153-.141-.182c-1.955-2.6-8.393-6.346-16.795-9.791-8.295-3.405-17.45-6.095-23.889-7.023l-1.689-.244-.447-1.652a39.433,39.433,0,0,1-.935-4.037,3.862,3.862,0,0,1,.481-3.128,2.67,2.67,0,0,1,2.136-1.061,2.568,2.568,0,0,1,.79.118c.394-.036.828-.057,1.306-.057,5.469,0,16.6,2.375,27.071,5.775a97.881,97.881,0,0,1,13.867,5.52c4.1,2.089,6.6,4.036,7.746,6.049a6.349,6.349,0,0,1,2.28,3.1,7.842,7.842,0,0,1,.2,4.315,6.274,6.274,0,0,1-5.966,5.18A8.739,8.739,0,0,1,261.638,629.763ZM136.3,626.975a7.831,7.831,0,0,1,.2-4.32,6.365,6.365,0,0,1,2.278-3.1c1.155-2.013,3.652-3.955,7.752-6.049a98.925,98.925,0,0,1,13.863-5.52c10.472-3.394,21.6-5.769,27.073-5.769.476,0,.911.016,1.309.053a2.643,2.643,0,0,1,.785-.118,2.67,2.67,0,0,1,2.137,1.065,3.892,3.892,0,0,1,.486,3.13c-.151.937-.458,2.257-.941,4.031l-.449,1.651-1.689.244c-6.439.934-15.595,3.623-23.888,7.025-8.4,3.449-14.836,7.2-16.794,9.793l-.137.18-.169.158a8.719,8.719,0,0,1-5.852,2.726A6.273,6.273,0,0,1,136.3,626.975Zm60.269-20.161c.026-6.548,16.679-6.61,16.633-.335.081,3.556-4.072,5.172-8.253,5.172C200.621,611.651,196.271,609.919,196.566,606.814Zm-5.634-9.709a80.852,80.852,0,0,1-13.542-3.785,91.278,91.278,0,0,1-13.07-6.155,107.365,107.365,0,0,1-12.53-8.4,128.963,128.963,0,0,1-11.921-10.519,155.879,155.879,0,0,1-11.244-12.512,204.648,204.648,0,0,1-20.184-30.5A278.508,278.508,0,0,1,91.79,488.263a351.833,351.833,0,0,1-12.574-42.431,413.008,413.008,0,0,1-7.948-46.888,458.939,458.939,0,0,1,0-100.685,412.936,412.936,0,0,1,7.948-46.888A351.732,351.732,0,0,1,91.79,208.939a278.536,278.536,0,0,1,16.652-36.97,204.64,204.64,0,0,1,20.184-30.5,155.91,155.91,0,0,1,11.244-12.512,129.243,129.243,0,0,1,11.921-10.519,107.123,107.123,0,0,1,12.53-8.4,91.075,91.075,0,0,1,13.07-6.155,80.668,80.668,0,0,1,13.542-3.785,75.99,75.99,0,0,1,27.888,0,80.774,80.774,0,0,1,13.542,3.785,91.1,91.1,0,0,1,13.069,6.155,107.279,107.279,0,0,1,12.529,8.4,129.3,129.3,0,0,1,11.921,10.519,156.5,156.5,0,0,1,11.246,12.512,204.515,204.515,0,0,1,20.182,30.5,278.279,278.279,0,0,1,16.654,36.97,351.834,351.834,0,0,1,12.574,42.431,412.714,412.714,0,0,1,7.946,46.888,454.855,454.855,0,0,1,2.771,50.342,454.883,454.883,0,0,1-2.771,50.343,412.786,412.786,0,0,1-7.946,46.888,351.833,351.833,0,0,1-12.574,42.431,278.251,278.251,0,0,1-16.654,36.968,204.522,204.522,0,0,1-20.182,30.5,156.47,156.47,0,0,1-11.246,12.512,129.025,129.025,0,0,1-11.921,10.519,107.521,107.521,0,0,1-12.529,8.4,91.3,91.3,0,0,1-13.069,6.155,80.959,80.959,0,0,1-13.542,3.785,76.09,76.09,0,0,1-27.888,0Zm1.231-484.878a71.373,71.373,0,0,0-12.345,3.6,81.666,81.666,0,0,0-11.914,5.855,97.651,97.651,0,0,0-11.422,7.989,132.053,132.053,0,0,0-21.119,21.908,195.379,195.379,0,0,0-18.4,29.013,270.662,270.662,0,0,0-15.181,35.164,345.608,345.608,0,0,0-11.464,40.358,408.522,408.522,0,0,0-7.244,44.6,455.141,455.141,0,0,0,0,95.771,408.42,408.42,0,0,0,7.244,44.6,345.528,345.528,0,0,0,11.464,40.36,270.883,270.883,0,0,0,15.181,35.164,195.374,195.374,0,0,0,18.4,29.013,132.026,132.026,0,0,0,21.119,21.906,97.439,97.439,0,0,0,11.422,7.991,81.668,81.668,0,0,0,11.914,5.855,71.38,71.38,0,0,0,12.345,3.6,66.479,66.479,0,0,0,25.423,0,71.329,71.329,0,0,0,12.345-3.6,81.494,81.494,0,0,0,11.914-5.855,97.584,97.584,0,0,0,11.424-7.991,132.188,132.188,0,0,0,21.119-21.906,195.457,195.457,0,0,0,18.4-29.013,270.817,270.817,0,0,0,15.182-35.164,345.433,345.433,0,0,0,11.462-40.36,408.015,408.015,0,0,0,7.246-44.6,451.518,451.518,0,0,0,2.526-47.886,451.492,451.492,0,0,0-2.526-47.885,408.117,408.117,0,0,0-7.246-44.6,345.407,345.407,0,0,0-11.462-40.358,270.7,270.7,0,0,0-15.182-35.164,195.461,195.461,0,0,0-18.4-29.013,132.215,132.215,0,0,0-21.119-21.908,97.8,97.8,0,0,0-11.424-7.989,81.492,81.492,0,0,0-11.914-5.855,71.322,71.322,0,0,0-12.345-3.6,66.479,66.479,0,0,0-25.423,0Zm.243,467.929a69.017,69.017,0,0,1-12.1-3.565,79.282,79.282,0,0,1-11.662-5.789,95.774,95.774,0,0,1-11.157-7.884,129.54,129.54,0,0,1-20.576-21.566,192,192,0,0,1-17.887-28.5,266.86,266.86,0,0,1-14.744-34.5,341.994,341.994,0,0,1-11.124-39.569,404.015,404.015,0,0,1-7.025-43.707,450.353,450.353,0,0,1,0-93.835,404.091,404.091,0,0,1,7.025-43.707,341.683,341.683,0,0,1,11.124-39.569,266.646,266.646,0,0,1,14.744-34.5,192.107,192.107,0,0,1,17.887-28.5A129.409,129.409,0,0,1,157.491,133.4a95.133,95.133,0,0,1,11.157-7.884,78.922,78.922,0,0,1,11.662-5.789,69.176,69.176,0,0,1,12.1-3.565,64.369,64.369,0,0,1,24.939,0,69.049,69.049,0,0,1,12.1,3.565,79.066,79.066,0,0,1,11.664,5.789,95.4,95.4,0,0,1,11.153,7.884,129.567,129.567,0,0,1,20.585,21.566,192.678,192.678,0,0,1,17.884,28.5,267.131,267.131,0,0,1,14.746,34.5A341.375,341.375,0,0,1,316.6,257.534a404.747,404.747,0,0,1,7.028,43.707,447.887,447.887,0,0,1,2.45,46.916,447.881,447.881,0,0,1-2.45,46.919,404.888,404.888,0,0,1-7.028,43.707,341.685,341.685,0,0,1-11.121,39.569,267.346,267.346,0,0,1-14.746,34.5,192.572,192.572,0,0,1-17.884,28.5,129.7,129.7,0,0,1-20.585,21.566,96.04,96.04,0,0,1-11.153,7.884,79.427,79.427,0,0,1-11.664,5.789,68.891,68.891,0,0,1-12.1,3.565,64.653,64.653,0,0,1-24.939,0Zm.666-459.2a64.876,64.876,0,0,0-11.478,3.427,75.069,75.069,0,0,0-11.1,5.583,91.435,91.435,0,0,0-10.652,7.638A125.083,125.083,0,0,0,140.1,158.593a188.45,188.45,0,0,0-17.252,27.863,263.887,263.887,0,0,0-14.252,33.816,338.93,338.93,0,0,0-10.771,38.841,401.826,401.826,0,0,0-6.807,42.939,448.722,448.722,0,0,0,0,92.215,402.263,402.263,0,0,0,6.807,42.939,338.915,338.915,0,0,0,10.771,38.841,263.693,263.693,0,0,0,14.252,33.81A188.149,188.149,0,0,0,140.1,537.725a125.232,125.232,0,0,0,19.751,20.987A91.571,91.571,0,0,0,170.5,566.35a75.992,75.992,0,0,0,11.1,5.585,65.275,65.275,0,0,0,11.478,3.427,60.219,60.219,0,0,0,23.609,0,65.217,65.217,0,0,0,11.471-3.427,75.992,75.992,0,0,0,11.1-5.585,91.718,91.718,0,0,0,10.659-7.638,125.284,125.284,0,0,0,19.748-20.987,188.156,188.156,0,0,0,17.254-27.868,263.7,263.7,0,0,0,14.25-33.81,339.329,339.329,0,0,0,10.77-38.841,403.029,403.029,0,0,0,6.807-42.939,444.658,444.658,0,0,0,2.376-46.109,444.586,444.586,0,0,0-2.376-46.106,402.59,402.59,0,0,0-6.807-42.939,339.344,339.344,0,0,0-10.77-38.841,263.889,263.889,0,0,0-14.25-33.816,188.456,188.456,0,0,0-17.254-27.863,125.135,125.135,0,0,0-19.748-20.987,91.284,91.284,0,0,0-10.659-7.638,75.069,75.069,0,0,0-11.1-5.583,64.906,64.906,0,0,0-11.471-3.427,60.217,60.217,0,0,0-23.609,0Zm203.311,442.07q-13.606,0-26.6-18.385-13.905-19.874-21.462-53.163-1.209,0-4.234,10.434A98.18,98.18,0,0,1,332.3,528.743q-13.9,21.861-22.37,21.861-3.326,0-3.325-7.949a11.534,11.534,0,0,1,6.651-10.93q8.766-4.968,9.068-5.465,11.186-17.889,16.929-47.7,7.557-41.24,8.465-43.725,8.162-26.332,20.255-41.239a87.378,87.378,0,0,1,22.067-18.88q10.884-6.956,13.3-6.956h5.743a6.119,6.119,0,0,1,1.209,3.975q0,5.465-2.116,8.446-28.115,9.937-28.114,24.844,0,1.988,2.72,8.943T385.5,424.4q0,5.962-4.232,5.962-5.441,0-13-8.446-2.42,1.49-5.743,14.907,4.534,20.867,4.533,26.829,0,1.49-4.686,4.968t-4.684,11.429a116.187,116.187,0,0,0,10.883,48.692q9.067,20.37,15.115,20.37,1.511,0,5.592-2.235t6.2-2.237a13.919,13.919,0,0,1,9.976,3.727q3.932,3.726,3.93,7.7a7.09,7.09,0,0,1-1.814,4.968,6.607,6.607,0,0,1-5.14,1.989Zm-388.527,0a6.605,6.605,0,0,1-5.138-1.987,7.09,7.09,0,0,1-1.814-4.968q0-3.975,3.93-7.7a13.917,13.917,0,0,1,9.976-3.727q2.115,0,6.2,2.237t5.592,2.235q6.046,0,15.115-20.37A116.173,116.173,0,0,0,52.6,480.05q0-7.949-4.684-11.427t-4.686-4.968q0-5.962,4.533-26.831-3.324-13.414-5.743-14.9-7.557,8.446-13,8.446-4.233,0-4.234-5.962,0-3.478,2.723-10.434t2.72-8.943q0-14.908-28.114-24.844Q0,377.2,0,371.736a6.119,6.119,0,0,1,1.209-3.975H6.952q2.419,0,13.3,6.956A87.377,87.377,0,0,1,42.321,393.6Q54.415,408.5,62.575,434.836q.907,2.484,8.466,43.723,5.742,29.813,16.929,47.7.3.5,9.068,5.465a11.534,11.534,0,0,1,6.652,10.93q0,7.949-3.326,7.949-8.465,0-22.37-21.861A98.18,98.18,0,0,1,66.2,501.912q-3.024-10.434-4.234-10.434-7.557,33.288-21.462,53.163-13,18.383-26.6,18.383ZM234.27,547.5H176.02c-.015,0-.089.007-.209.007a3.032,3.032,0,0,1-2.249-.941,4.549,4.549,0,0,1-.763-3.64c.191-1.623,2.717-2.743,5.914-4.158,6.707-2.97,16.841-7.458,16.841-21.209V398.576l9.486,13.984,10.741-15.125V517.564c0,6.16,1.885,11.029,5.763,14.883,3.282,3.267,7.33,5.141,10.585,6.646,3,1.392,5.174,2.4,5.36,3.838a4.549,4.549,0,0,1-.763,3.64,3.031,3.031,0,0,1-2.248.941C234.35,547.512,234.27,547.5,234.27,547.5Zm1.068-99.344c.436-3.454,14.606-3.454,14.606-17.553V311.189c-4.361,16.4-12.427,32.516-26.161,54.961-3.487,6.042-7.412,11.8-11.335,17.266-2.4,3.452-4.8,7.194-7.2,10.646-2.4-3.452-4.8-7.194-7.194-10.646-3.705-5.467-7.63-11.223-11.335-17.266-13.736-22.445-21.8-38.56-26.161-54.961V430.608c0,14.1,14.17,14.388,14.606,17.553.436,3.452-2.4,3.165-2.4,3.165H129.387s-2.835.287-2.4-3.165,14.607-3.454,14.607-17.553V362.514l-11.378-8.352,6.031-4.111,5.347-3.643v-68.6c0-14.1-14.171-14.386-14.607-17.553-.436-3.452,2.4-3.165,2.4-3.165H172.77s2.834-.288,2.4,3.165c-.218,1.727-3.053,2.3-4.143,2.877a22.254,22.254,0,0,0-7.194,5.18c-10.029,12.086,2.179,36.546,7.412,47.482,8.937,17.553,20.056,32.516,30.085,48.63,1.307,2.3,2.616,4.317,3.923,6.331,1.307-2.015,2.617-4.029,3.925-6.331,10.027-16.114,21.146-31.077,29.867-48.63,5.667-10.936,17.658-35.4,7.63-47.482a20.958,20.958,0,0,0-7.412-5.18c-.874-.575-3.707-1.15-4.143-2.877-.218-3.452,2.4-3.165,2.4-3.165h43.6s2.616-.288,2.179,3.165-14.606,3.454-14.606,17.553v68.715l11.045,7.527-11.045,8.108v68.451c0,14.1,14.17,14.388,14.606,17.553.374,2.959-1.494,3.17-2.036,3.17-.091,0-.143-.005-.143-.005h-43.6s-.053.006-.143.006C236.833,451.332,234.964,451.121,235.338,448.161ZM373.41,342.42q10.579,0,18.741-.5a114.215,114.215,0,0,1,15.116,4.471,33.324,33.324,0,0,1,2.721,2.981l-2.118,1.987a49.244,49.244,0,0,1-8.463,2.981l-16.929,1.492q-1.377.006-2.694.006C306.849,355.843,367.037,342.42,373.41,342.42Zm-345.6,13.417-16.929-1.492a49.314,49.314,0,0,1-8.465-2.981L.3,349.376A33.081,33.081,0,0,1,3.021,346.4a114.127,114.127,0,0,1,15.116-4.471q8.162.5,18.742.5c6.373,0,66.562,13.422-6.374,13.422Q29.188,355.843,27.811,355.837Zm177.5-4.885-9.753-15.04V235.521c0-6.157-1.976-11.023-6.04-14.88-3.443-3.265-7.688-5.14-11.1-6.646-3.153-1.392-5.43-2.4-5.616-3.84a4.554,4.554,0,0,1,.763-3.642,3.033,3.033,0,0,1,2.249-.941c.127,0,.2.007.209.007h58.25c.015,0,.089-.007.209-.007a3.032,3.032,0,0,1,2.248.941,4.554,4.554,0,0,1,.763,3.642c-.191,1.62-2.6,2.737-5.645,4.153-6.4,2.968-16.063,7.456-16.063,21.213v99.224l-10.47,16.208,0,0Zm181.4-26.418a69.329,69.329,0,0,1-21.765-20.869q-8.162-12.421-17.231-48.692a264.186,264.186,0,0,1-5.29-30.806q-1.965-16.892-2.872-21.364-5.443-23.354-11.186-33.29-6.953-12.421-19.045-15.4A13.583,13.583,0,0,1,306,145.167q0-6.956,5.441-6.956,2.722,0,8.466,7.454,10.279,11.924,13.9,15.9,6.65,6.459,17.534,42.73,10.279-67.573,43.23-70.058a10.19,10.19,0,0,1,8.767,2.981,10.661,10.661,0,0,1,3.325,7.453,5.444,5.444,0,0,1-3.629,5.467q-2.416-.5-5.743-.994a39.426,39.426,0,0,0-4.232-.5q-11.186,0-22.069,15.4-12.7,18.88-13,46.7a11.97,11.97,0,0,0-.907,4.968q0,6.459,3.929,6.459a6.528,6.528,0,0,0,2.873-1.241,6.518,6.518,0,0,1,3.173-1.243q5.14,0,5.14,6.459,0,2.484-4.384,12.423a46.82,46.82,0,0,0-4.383,18.88q0,13.911,6.2,19.626t7.105,12.173q1.812,14.408,9.068,20.867,4.836,4.471,23.58,13.416l.3,5.465a13.813,13.813,0,0,1-7.256,2.484Q397.593,331.49,386.71,324.534ZM.6,329.006l.3-5.465q18.743-8.943,23.58-13.416,7.254-6.459,9.068-20.867.907-6.459,7.105-12.173t6.2-19.626a46.821,46.821,0,0,0-4.383-18.88q-4.386-9.937-4.384-12.423,0-6.459,5.14-6.459a6.518,6.518,0,0,1,3.173,1.243,6.521,6.521,0,0,0,2.873,1.241q3.929,0,3.929-6.459a11.963,11.963,0,0,0-.907-4.968q-.3-27.823-13-46.7-10.884-15.4-22.069-15.4a39.372,39.372,0,0,0-4.232.5q-3.327.5-5.743.994a5.444,5.444,0,0,1-3.629-5.467,10.661,10.661,0,0,1,3.325-7.453,10.19,10.19,0,0,1,8.767-2.981q32.951,2.484,43.23,70.058,10.884-36.272,17.534-42.73,3.626-3.975,13.9-15.9,5.746-7.455,8.466-7.454,5.44,0,5.441,6.956a13.58,13.58,0,0,1-3.326,8.945q-12.093,2.981-19.045,15.4-5.745,9.937-11.186,33.29-.907,4.472-2.872,21.364a264.187,264.187,0,0,1-5.29,30.806q-9.07,36.272-17.231,48.692a69.329,69.329,0,0,1-21.765,20.869Q12.7,331.49,7.858,331.49A13.807,13.807,0,0,1,.6,329.006ZM146.592,233.87l-7.089,3.3,4.21-7.314-15.834-2.566,15.068-2.9L139.5,217.15l7.089,4.279,3.312-18.443,2.9,18.443,7.919-4.279-4.931,7.236,16.945,2.9-16.945,2.566,4.931,7.314-7.919-3.3L149.9,250.1Zm100.335.559c-1.092-7.043,1.42-16.3,14.753-16.3,11.807,0,15.007,8.437,14.813,14.357a14.045,14.045,0,0,1-3.093,8.672s2.988-13.717-11.72-13.717-11.153,14.47-11.153,14.47A15.662,15.662,0,0,1,246.927,234.429Zm-48-34.577v-8.708l-.754-2.9-1.478-1.909-2.67-1.263-3.82-.242-4.763.931-.731,1.751-.779,2.062-1.8.779.505,1.554-2.319,1.56-1.8-2.337-1.555,1.816-3.091-.779-1.553,1.8h0l-2.016-.479-.558-1.585-1.812,1.039-1.119-1.514-1.716-1.079L164.656,192l-1.622,1.216-2.058-.779-1.8-.915.123-1.543,1.417-.643-.776-2.073,1.484-.382,1.364-1.42-1.4-.67-.15-2.308,1.416-1.037-1.674-2.064,1.293-2.2-.516-2.85,2.546-.861,1.323-1.338-.941-1.845-.354-2.157.668-1.707,1.662-.628-1.348-1.6,1.213-1.884,1.3.26,1.238-1.94-.6-2.335,2.276-.177,1.076-1.365V154.94l1.555-1.189,2.056.41-.763-1.542,1.283-2.077-2.058-1.8-2.073.26-1.28-1.554,1.54-2.064,1.483-1.037,2.387.777-1.035-2.073-2.577-2.064h1.555l2.315-1.816,2.071.26,1.54-.777.777,1.3,2.058,1.037,1.036-1.3-.52-2.32.832-1.312,2.181.617,1.375-1.121v-2.06l-1.281-2.076,1.54-2.062,2.329-.258,2.835.777,1.552-2.075,3.351,2.075,2.319-2.075.518,1.556h3.611v2.062L202,133.23l2.056.764,2.835.26.26-1.541,3.106-1.039-.518-1.558,2.056-.5,2.072,1.8,1.8-.517,1.4-1.3,1.95,1.3-.109,1.651,1.92.943-2.071,1.283,1.035,2.333,2.835.26,2.07,1.025,3.351-.26,1.556,2.077,2.056.642,2.643-.071.708,2.269-1.8,1.3-1.032,2.32,1.812.781-.261,2.333,1.8,1.025.518,2.073-1.773.657,1.255,1.8-.519,2.459,1.037,1.8,1.567.5,1.268-.764.516,2.333,1.213-.655,1.375.655-.775,2.062,2.057-.26,1.157,1.556-1.021,1.285.49,1.8,1.541.013.421,1.3-1.035,1.421.218,1.705,2.1.492-.516,1.8,1.035,1.037-.641,2.2,1.157,1.871,2.194.968-.26,1.818,1.923.244,1.347,1.543-.04,1.312-1.674.122-1.678,1.3v1.556l-1.813.764-1.484,1.148-1.607-.63-1.813,1.558-2.835-.521-2.575.777-2.329-1.3-1.3,1.039-3.349-1.3-1.023-1.543-2.589-.519-2.058-2.075-1.811-.26-.519-2.06-2.316-1.039v-2.593L218,180.4l-.046-.1-.928,1.086-3.8,1.744-2.265,2.342-1.053,2.14-.074,2.315.714,9.92Zm36.841-15.233a3.322,3.322,0,0,0,1.369,2.45,1,1,0,0,0,.529.157.93.93,0,0,0,.452-.115c.562-.311.567-.952.571-1.631l.018.02a.078.078,0,0,1,.009.013c.424.53.789.986,1.354.986.024,0,.045,0,.069,0a.926.926,0,0,0,.759-.466.912.912,0,0,0,.129-.539,1.127,1.127,0,0,0,.118.007,1.253,1.253,0,0,0,.752-.262,1.9,1.9,0,0,0,.655-1.418,1.035,1.035,0,0,0,.449.131l.056,0a1.064,1.064,0,0,0,.792-.371,1.875,1.875,0,0,0,.241-1.62v-.013c-.054-.32-.127-.757,0-.894l-1.275-1.176a2.038,2.038,0,0,0-.527,1.409l-.026,0-.023,0a1.318,1.318,0,0,0-.146-.009,1.081,1.081,0,0,0-.7.262,2.152,2.152,0,0,0-.548,1.7c0,.078,0,.169-.009.26a3.2,3.2,0,0,0-.5-.348,1.215,1.215,0,0,0-.576-.155,1.048,1.048,0,0,0-.665.24.954.954,0,0,0-.107.1,1.351,1.351,0,0,0-.728-.229,1.243,1.243,0,0,0-.332.047,1.111,1.111,0,0,0-.585.389,9.634,9.634,0,0,0-.209-1,1.02,1.02,0,0,0-.831-.792,1.077,1.077,0,0,0-.151-.011c-.552,0-.891.468-1.216.987a1.082,1.082,0,0,0-.628-.746,1.033,1.033,0,0,0-.387-.077,1.248,1.248,0,0,0-.81.331l1.113,1.327a.586.586,0,0,1-.305.078.733.733,0,0,1-.232-.038.663.663,0,0,1-.408-.375,3.265,3.265,0,0,1,.045.382,4.055,4.055,0,0,0,.131.817,1.139,1.139,0,0,0,1.1.9c.018,0,.038,0,.058,0a1.562,1.562,0,0,0,1.148-.71v0Zm-57.6-1.4a1.216,1.216,0,0,0,.171.044,1.182,1.182,0,0,0,.33.628,2.075,2.075,0,0,0,1.152.6l-.028-.142,2.025-.53.523-1.232a1.342,1.342,0,0,0-.541-.107,3.209,3.209,0,0,0-.886.168c-.2.056-.354.095-.476.116a2.272,2.272,0,0,0,.219-.266.976.976,0,0,0-.753-1.6,1.21,1.21,0,0,0-.514.122,3.044,3.044,0,0,0-.4.231,1.156,1.156,0,0,0-.521-1.132.9.9,0,0,0-.438-.113,1,1,0,0,0-.533.16,1.574,1.574,0,0,0-.607,1.061,1.515,1.515,0,0,0-1.31-1.1c-.027,0-.053,0-.08,0-.807.045-1.148.783-1.354,1.418a1.979,1.979,0,0,0-.637-.655,1.8,1.8,0,0,0-.988-.282,2.432,2.432,0,0,0-.481.049c.044-.093.091-.18.129-.253.32-.62.758-1.469.18-2.144a1.128,1.128,0,0,0-.857-.395,1.461,1.461,0,0,0-.536.111,4.139,4.139,0,0,0-.71.4l-.029.018-.011.007-.038.025c-.026.018-.056.038-.086.057a2.846,2.846,0,0,0-.177-1.933,1.6,1.6,0,0,0-1.538-.872h-.083a.067.067,0,0,0-.009-.014.443.443,0,0,1-.02-.04l-1.547.786a1.682,1.682,0,0,0,1.645,1.007h.049a1.894,1.894,0,0,1-.029.786,1.869,1.869,0,0,0,.525,2.006,1.268,1.268,0,0,0,.761.251,1.761,1.761,0,0,0,.628-.127,1.745,1.745,0,0,0-.037,1.458,1.222,1.222,0,0,0,1.173.741,2.692,2.692,0,0,0,.689-.107l.02-.005a1.828,1.828,0,0,1,.375-.075.141.141,0,0,1,.078.016c.115.073.213.4.276.62l.009.024,0,.013a2.713,2.713,0,0,0,.285.724,1.151,1.151,0,0,0,.983.56,1.2,1.2,0,0,0,.3-.038c.7-.177.968-.879,1.16-1.525.25.692.609,1.4,1.382,1.4.014,0,.031,0,.049,0a1.266,1.266,0,0,0,1.128-.924l0,0Zm28.058-7.589.726,6.8,2.635-1.714,4.977-2.227.514-.537-.946-.133v-2.2l-2.59,1.694-1.281-1.558-1.812.655-1.021-1.556-1.135.566Zm-10.2,5.809,4.732.846.312-5.609-2.931-.788-1.951,1.938-2.178-.643-2.072,2.324-2.575.9-.5,1.574,2.074-.542Zm34.389-4.191a1.473,1.473,0,0,0,.67,1.012,1.249,1.249,0,0,0,.626.177,1.264,1.264,0,0,0,.723-.24,2.8,2.8,0,0,0,.552-.568l.011-.015.017-.02c.109-.137.31-.39.389-.4a1.463,1.463,0,0,1,.367.275l.009.009.007.007a1.662,1.662,0,0,0,1.1.55c.029,0,.056,0,.083,0a1.158,1.158,0,0,0,.819-.45,2.476,2.476,0,0,0,.138-2.129l0-.011,0,0-.008-.024a4.018,4.018,0,0,0,.561.377,1.468,1.468,0,0,0,.69.189,1.127,1.127,0,0,0,.743-.278,1.5,1.5,0,0,0,.4-1.5l.013,0,.013,0a1.255,1.255,0,0,0,.2-.078,1.1,1.1,0,0,0,.593.262,2.138,2.138,0,0,0,.263.018,2.918,2.918,0,0,0,2.18-1.429l.02-.029a3.274,3.274,0,0,1,.306-.364l-.013.007a.656.656,0,0,1-.083.033l-.508-1.66a2.349,2.349,0,0,0-1.094.948c-.043.058-.087.116-.134.177a1.045,1.045,0,0,0-.172-.73.933.933,0,0,0-.636-.393,1.315,1.315,0,0,0-.147-.009c-.672,0-.967.682-1.126,1.05a.992.992,0,0,0-.854-.517h-.047a.952.952,0,0,0-.829.588,2.13,2.13,0,0,0,.1,1.492,1.948,1.948,0,0,0-1.066-.395,1.138,1.138,0,0,0-.772.31,2.134,2.134,0,0,0-.321,2.16,1.716,1.716,0,0,0-.771-.186,1.685,1.685,0,0,0-.232.016,1.957,1.957,0,0,0-1.14.6c-.02-.757-.046-1.791-.983-2a1.065,1.065,0,0,0-.229-.024,1.222,1.222,0,0,0-1.048.648,5.326,5.326,0,0,0-.388.781l-.006.009-.018.044-.013.029a.339.339,0,0,0-.02.044l-.011.022a2.216,2.216,0,0,0-1.037-1.314,1.577,1.577,0,0,0-.7-.177,1.721,1.721,0,0,0-1.079.453l-.024.016a1.024,1.024,0,0,1-.111.084.264.264,0,0,1,.111-.022l-.833,1.505a1.69,1.69,0,0,0,.824.235,1.744,1.744,0,0,0,1.1-.453,3.977,3.977,0,0,1,.207.506c.175.5.5,1.43,1.466,1.43.029,0,.058,0,.088,0a1.4,1.4,0,0,0,1.07-.633l0,0Zm-49.1-4.038c.163.057.4.355.594.593a3.242,3.242,0,0,0,1.571,1.256l.5-1.662c-.233-.071-.479-.38-.719-.679a2.721,2.721,0,0,0-1.784-1.241,1.709,1.709,0,0,0-.213-.013,1.556,1.556,0,0,0-1.084.435,1.111,1.111,0,0,0-.742-.584,1.253,1.253,0,0,0-.305-.038,1.931,1.931,0,0,0-1.329.781c-.017.02-.038.044-.062.067-.027-.091-.056-.2-.086-.322-.138-.537-.307-1.2-.986-1.376a.975.975,0,0,0-.245-.031.581.581,0,0,0-.058,0,1.741,1.741,0,0,0-.639-1.07,1.205,1.205,0,0,0-.689-.222,1.24,1.24,0,0,0-.429.08c.022-.046.046-.087.069-.131L174.7,169l.011-.022a8.161,8.161,0,0,0,.507-1.063,1.064,1.064,0,0,0-.131-1.048,1.187,1.187,0,0,0-1.033-.426,6.335,6.335,0,0,0-.639.046c-.067.009-.147.016-.233.024a1.361,1.361,0,0,0,.193-1.21,1.227,1.227,0,0,0-.916-.741l-.425,1.684a.62.62,0,0,1-.3-.688.854.854,0,0,1-.074.124l-.024.036c-.011.015-.022.031-.031.046l-.016.024c-.233.348-.847,1.27-.1,2.029a1.74,1.74,0,0,0,1.326.457c.1,0,.2,0,.319-.011a3.617,3.617,0,0,0-.481,3.083,1.009,1.009,0,0,0,.748.673.986.986,0,0,0,.192.018,1.68,1.68,0,0,0,1.157-.739c.011.1.018.207.025.3v.015l0,.054c0,.04.007.078.009.113a2.333,2.333,0,0,0,.434,1.6.959.959,0,0,0,.678.286.9.9,0,0,0,.285-.045.931.931,0,0,0,.29-.149,1.426,1.426,0,0,0,.73.537,1.362,1.362,0,0,0,.419.069,1.6,1.6,0,0,0,1.044-.441c.006.026.011.051.018.08a1.111,1.111,0,0,0,1,.914c.036,0,.071.005.105.005.721,0,1.08-.664,1.271-1.019l.006-.011a2.793,2.793,0,0,1,.243-.4v0Zm19.054-3.245a1.573,1.573,0,0,0,.919.886,1.381,1.381,0,0,0,.408.064c.031,0,.062,0,.093,0l.161-1.107-1.441-2.978a1.179,1.179,0,0,0-.256-.032h-.02a1.159,1.159,0,0,0-1.108.886,5.6,5.6,0,0,0-.181.817l-.006.04,0,.011c-.006.031-.009.064-.017.1a2.435,2.435,0,0,0-1.364-1.09,1.773,1.773,0,0,0-.436-.058,1.569,1.569,0,0,0-1.244.684.334.334,0,0,1-.033.04,2.078,2.078,0,0,1-.682-.657l-.012-.015a2.728,2.728,0,0,0-1.782-1.238,1.69,1.69,0,0,0-.212-.013,1.573,1.573,0,0,0-1.086.433,1.1,1.1,0,0,0-.741-.582,1.271,1.271,0,0,0-.307-.04,1.922,1.922,0,0,0-1.324.779l-.015.016-.013.015a.355.355,0,0,0-.036.04l-.038-.131c-.013-.049-.025-.1-.036-.138l-.015-.054,0-.009c-.136-.533-.308-1.2-.982-1.367a.98.98,0,0,0-.245-.029h-.058a1.75,1.75,0,0,0-.639-1.068,1.212,1.212,0,0,0-.694-.224,1.246,1.246,0,0,0-.425.078l.005-.009.093-.167a8.869,8.869,0,0,0,.518-1.085,1.075,1.075,0,0,0-.133-1.05,1.182,1.182,0,0,0-1.032-.426,5.815,5.815,0,0,0-.639.047l-.232.024a1.368,1.368,0,0,0,.192-1.21,1.225,1.225,0,0,0-.913-.741l-.429,1.682a.553.553,0,0,1-.266-.288.571.571,0,0,1-.027-.415,2.383,2.383,0,0,1-.131.215l-.02.031c-.234.348-.851,1.263-.107,2.029a1.739,1.739,0,0,0,1.325.457c.1,0,.2,0,.32-.013a3.618,3.618,0,0,0-.483,3.083,1,1,0,0,0,.751.673.975.975,0,0,0,.191.02c.476,0,.807-.337,1.159-.743.017.171.027.342.037.49a2.35,2.35,0,0,0,.436,1.594.932.932,0,0,0,.961.242.929.929,0,0,0,.291-.151,1.437,1.437,0,0,0,.731.539,1.362,1.362,0,0,0,.42.067,1.608,1.608,0,0,0,1.045-.44c.005.027.011.053.016.082a1.116,1.116,0,0,0,1,.914c.035,0,.07,0,.1,0,.725,0,1.081-.664,1.272-1.021l.007-.009a2.3,2.3,0,0,1,.241-.4c.165.055.4.353.592.593a3.29,3.29,0,0,0,1.575,1.256,1.987,1.987,0,0,0,.563.089,1.6,1.6,0,0,0,1.279-.693,3.222,3.222,0,0,1,.387.5c.278.406.735,1.079,1.486,1.079a1.379,1.379,0,0,0,.347-.045,1.365,1.365,0,0,0,.932-.859l0,0Zm23.215-1.3,1.1,1.29,1.638-.624-.278-2.058,1.109-.6.109-1.993-2.127-.491-.436-1.8-.653-.1-1.7,2.927-.717,3.638.225.354,1.716-.535Zm-7.546-5.52,1.333,1.152-1.017,1.633,2.155.355.343,1.589.309-.1.846-3.667,1.679-2.908-.633-.634-2.291-.584-.855,1.938-1.949-.471Zm-9.564,4.362a1.066,1.066,0,0,0,.894-.448,1.433,1.433,0,0,0,.042-1.527,1.013,1.013,0,0,0,.159-.107,1.135,1.135,0,0,0,.567.151c.027,0,.055,0,.08,0a2.6,2.6,0,0,0,2.079-1.865,3.672,3.672,0,0,1,.206-.417h0a.414.414,0,0,1-.1.071l-.817-1.532a2.218,2.218,0,0,0-.864,1.154l-.037.077-.018.04c-.024.049-.045.1-.069.142a1.149,1.149,0,0,0-.347-.77.936.936,0,0,0-.634-.246h-.049c-.726.045-.926.7-1.018,1.258a1.13,1.13,0,0,0-.774-.362.912.912,0,0,0-.276.042.946.946,0,0,0-.652.768,1.965,1.965,0,0,0,.414,1.318c-.073-.024-.182-.064-.3-.095a1.79,1.79,0,0,0-.456-.064,1.393,1.393,0,0,0-.207.015l1.244,2.173A2.519,2.519,0,0,0,206.472,167.5Zm-4.785-6.952a1.285,1.285,0,0,0,.617-.233,2.677,2.677,0,0,0,.559-.58l.024-.029c.107-.135.3-.382.384-.393a1.459,1.459,0,0,1,.371.278l.013.011a1.658,1.658,0,0,0,1.1.55c.027,0,.056,0,.083,0a1.156,1.156,0,0,0,.817-.448,2.463,2.463,0,0,0,.138-2.127.142.142,0,0,1-.007-.036,4.127,4.127,0,0,0,.557.38,1.492,1.492,0,0,0,.691.186,1.129,1.129,0,0,0,.743-.277,1.5,1.5,0,0,0,.4-1.5l.014,0,.011,0a1.2,1.2,0,0,0,.2-.078,1.094,1.094,0,0,0,.594.262,1.861,1.861,0,0,0,.263.018,2.929,2.929,0,0,0,2.178-1.429,3.582,3.582,0,0,1,.327-.393l-.015.007a.5.5,0,0,1-.081.033l-.509-1.66a2.389,2.389,0,0,0-1.094.95l-.04.053c-.031.04-.062.082-.094.122a1.079,1.079,0,0,0-.171-.73.924.924,0,0,0-.636-.39,1.127,1.127,0,0,0-.153-.011c-.674,0-.964.684-1.123,1.052a1.015,1.015,0,0,0-.857-.522l-.045,0a.957.957,0,0,0-.826.588,2.15,2.15,0,0,0,.1,1.494,1.964,1.964,0,0,0-1.066-.395,1.134,1.134,0,0,0-.774.311,2.138,2.138,0,0,0-.322,2.157,1.743,1.743,0,0,0-.774-.185,1.614,1.614,0,0,0-.226.016,1.951,1.951,0,0,0-1.141.6c-.022-.755-.046-1.791-.984-2a1.1,1.1,0,0,0-.233-.025,1.23,1.23,0,0,0-1.046.648c-.018.029-.037.058-.054.088Zm-6.161-2.261a1.7,1.7,0,0,0,.826.233c.048,0,.094,0,.14-.007l-.171-.353-.237-.879Zm25.974-3.461a3.329,3.329,0,0,0,1.37,2.451,1,1,0,0,0,.53.157.956.956,0,0,0,.453-.116,1.152,1.152,0,0,0,.116-.074l.04-.069.028.015c.376-.334.379-.88.384-1.5a.1.1,0,0,1,.02.024l.005.007.01.009c.42.526.786.979,1.35.979.022,0,.044,0,.065,0a.949.949,0,0,0,.89-1.007c.035,0,.074.005.116.005a1.241,1.241,0,0,0,.75-.26,1.909,1.909,0,0,0,.657-1.418,1.01,1.01,0,0,0,.448.129c.022,0,.044,0,.066,0a1.045,1.045,0,0,0,.782-.371,1.878,1.878,0,0,0,.24-1.631c-.054-.337-.123-.755,0-.9l-1.274-1.176a2.034,2.034,0,0,0-.527,1.412.173.173,0,0,0-.052-.007,1.026,1.026,0,0,0-.149-.011,1.065,1.065,0,0,0-.694.262,2.14,2.14,0,0,0-.548,1.705c0,.049,0,.1-.005.158l0,.047v.051a3.522,3.522,0,0,0-.5-.348,1.236,1.236,0,0,0-.575-.155,1.043,1.043,0,0,0-.665.24,1.385,1.385,0,0,0-.109.1,1.336,1.336,0,0,0-.724-.227,1.238,1.238,0,0,0-.334.047,1.087,1.087,0,0,0-.585.388,9.011,9.011,0,0,0-.214-1,1.012,1.012,0,0,0-.83-.79,1.026,1.026,0,0,0-.149-.011c-.551,0-.892.466-1.219.986a1.082,1.082,0,0,0-.628-.748,1.027,1.027,0,0,0-.385-.076,1.247,1.247,0,0,0-.808.331l1.111,1.33a.61.61,0,0,1-.3.075.731.731,0,0,1-.233-.038.665.665,0,0,1-.41-.375,2.714,2.714,0,0,1,.04.313l.006.069.006.047a3.813,3.813,0,0,0,.124.77,1.147,1.147,0,0,0,1.112.9h.054a1.558,1.558,0,0,0,1.148-.71l0,0Zm-39.347-2.3.017.02a1.035,1.035,0,0,0,.163.142,1.121,1.121,0,0,0,.042.648,2.741,2.741,0,0,0,2.389,1.509,4.081,4.081,0,0,1,.494.105v0a.436.436,0,0,1-.079-.062l1.231-1.225a2.337,2.337,0,0,0-1.337-.526l-.013,0c-.075-.011-.145-.025-.216-.04a1.051,1.051,0,0,0,.565-.488.948.948,0,0,0,.049-.748,1.073,1.073,0,0,0-1.159-.661c-.127,0-.25.007-.354.016a1,1,0,0,0,.037-1.045.943.943,0,0,0-.826-.461c-.026,0-.051,0-.076,0a2.144,2.144,0,0,0-1.272.781c.091-.89-.163-1.436-.783-1.671a1.271,1.271,0,0,0-.456-.084,2.986,2.986,0,0,0-1.736.921l-.022.018a3.811,3.811,0,0,1-.636.479l.008,0a.509.509,0,0,1,.067,0,.431.431,0,0,1,.094.009l-.343,1.7a1.3,1.3,0,0,0,.254.026,2.866,2.866,0,0,0,1.695-.9l.013-.007.01-.009a3.866,3.866,0,0,0-.074.675,1.2,1.2,0,0,0,1.186,1.312,1.813,1.813,0,0,0,1.068-.429l0,0Zm6.4-3.2.628,1.429-.187,1.915,1.275.491,1.368-1.268,1.566.439,1.534-.042-.959-3.551-1.925-3.416-1.038,2.318-1.755-.3Zm9.23,1.536,1.222-1.39,1.308-1.146-.082-2.035-1.674-.315-.218-1.966-1.8,1.092-1.771-.888-.2.258,2.133,3.88.818,2.411Zm17.005-3.858.011.013a2.676,2.676,0,0,0,.561.582,1.265,1.265,0,0,0,.722.24,1.221,1.221,0,0,0,.629-.178,1.45,1.45,0,0,0,.67-1.014,1.4,1.4,0,0,0,1.072.637c.031,0,.061,0,.092,0,.961,0,1.285-.923,1.459-1.42a3.577,3.577,0,0,1,.209-.513,1.761,1.761,0,0,0,1.1.451,1.694,1.694,0,0,0,.824-.233l-.832-1.507a.269.269,0,0,1,.115.024,1.46,1.46,0,0,1-.138-.1,1.722,1.722,0,0,0-1.081-.451,1.556,1.556,0,0,0-.7.175,2.22,2.22,0,0,0-1.039,1.318c-.013-.029-.025-.056-.036-.084s-.015-.035-.02-.049a5.557,5.557,0,0,0-.4-.8,1.224,1.224,0,0,0-1.044-.648,1.145,1.145,0,0,0-.235.026c-.928.206-.959,1.238-.982,1.993a1.957,1.957,0,0,0-1.137-.59,1.6,1.6,0,0,0-.227-.015,1.779,1.779,0,0,0-.778.182,2.118,2.118,0,0,0-.319-2.157,1.15,1.15,0,0,0-.776-.309,1.956,1.956,0,0,0-1.062.393,2.16,2.16,0,0,0,.095-1.49.945.945,0,0,0-.824-.588l-.049,0a1.018,1.018,0,0,0-.855.519c-.147-.34-.445-1.05-1.125-1.05a1.065,1.065,0,0,0-.149.011.934.934,0,0,0-.636.393,1.035,1.035,0,0,0-.169.728c-.04-.051-.08-.1-.118-.153l-.02-.024a2.354,2.354,0,0,0-1.093-.95L206,142.033a.351.351,0,0,1-.1-.045,4.094,4.094,0,0,1,.328.393,2.925,2.925,0,0,0,2.185,1.434,1.74,1.74,0,0,0,.258-.018,1.094,1.094,0,0,0,.593-.264,1.374,1.374,0,0,0,.2.078l.017,0h0l.007,0a1.516,1.516,0,0,0,.4,1.5,1.145,1.145,0,0,0,.743.275,1.471,1.471,0,0,0,.69-.187,3.774,3.774,0,0,0,.56-.378c0,.009,0,.018-.006.025a2.473,2.473,0,0,0,.135,2.138,1.139,1.139,0,0,0,.817.448c.031,0,.06,0,.089,0a1.642,1.642,0,0,0,1.087-.548l.012-.009a1.689,1.689,0,0,1,.366-.282C214.475,146.618,214.686,146.883,214.789,147.011Zm-26.342-6.226v0a1.2,1.2,0,0,0,.808,1.1,1.236,1.236,0,0,0,.351.056c.674,0,1.1-.648,1.409-1.121l.006-.007.017-.027c.025-.042.056-.087.087-.135a1.053,1.053,0,0,0,.875.468,1.3,1.3,0,0,0,.356-.051,2.116,2.116,0,0,0,1.179-1.116l.045-.082.034-.06a.978.978,0,0,0,.668.295.867.867,0,0,0,.453-.133c.408-.249.514-.67.31-1.249-.409-1.159-.45-1.718-.156-2.06.009.015.018.029.027.042l.009.016.013.02c.264.437.565.93,1.152,1a.851.851,0,0,0,.116.007,1.05,1.05,0,0,0,.752-.324c.488-.5.427-1.309.354-2.251v-.013c-.005-.055-.009-.115-.015-.177l-.011-.149-.006-.1a.471.471,0,0,1,.253.1c.036.049.33.553-.529,2.883-.289.781-.014,1.183.264,1.381a.878.878,0,0,0,.524.178,2.212,2.212,0,0,0,1.235-.653l.042-.035a4.849,4.849,0,0,1,.505-.38h0a.641.641,0,0,1-.184.026.756.756,0,0,1-.166-.02l.413-1.687a1.023,1.023,0,0,0-.452-.011,3.215,3.215,0,0,0-.258-2.714,2.315,2.315,0,0,0-2.012-.83c-.113,0-.229,0-.356.011a1,1,0,0,0-.7.346,2.032,2.032,0,0,0-.3,1.529,1.14,1.14,0,0,0-.554-.146,1.106,1.106,0,0,0-.548.144A2.715,2.715,0,0,0,193.038,138a.61.61,0,0,0-.109.057,2.318,2.318,0,0,0-.8.87.021.021,0,0,0-.007-.011,1.136,1.136,0,0,0-.845-.368,1.332,1.332,0,0,0-.405.066,1.727,1.727,0,0,0-.719.473,1.319,1.319,0,0,0-.447-.946,1,1,0,0,0-.63-.226,1.043,1.043,0,0,0-.212.022c-.54.12-.771.6-.973,1.019l0,.009a2.928,2.928,0,0,1-.167.317.64.64,0,0,1,.451-.2l.031,0a.668.668,0,0,1,.485.2l-.147.133a.478.478,0,0,1-.111-.191,1.674,1.674,0,0,1,.009.28l-1.045.934a1.078,1.078,0,0,0,.809.379,1.166,1.166,0,0,0,.136-.009.839.839,0,0,0,.109-.024Zm53.575-44.033a4.149,4.149,0,0,1,4.235-4.056,4.349,4.349,0,0,1,2.2.588c1.761-3.887,11.533-25.906,11.9-36.68.233-6.89-5.49-11.979-10.318-15.032,2.781,3.931,4.632,8.763,4.526,11.873-.156,4.579-4.419,15.606-9.8,20.844A168.844,168.844,0,0,1,230.8,86.542a3.976,3.976,0,0,1,1.944,3.367,4.407,4.407,0,1,1-4.394-4.057,4.656,4.656,0,0,1,2.029.459c1.119-3.653,6.059-20.3,6.413-30.7.273-8.02-16.141-12.093-24.023-13.964.066,5.775-1.193,11.6-1.68,19.3a78.429,78.429,0,0,1-2.615,16.627h-6.739s-2.012-4.981-3.285-15.828c-1-8.544-2.158-14.048-1.829-19.97-8.063,1.926-23.754,5.995-23.487,13.837.352,10.366,5.256,26.922,6.4,30.66a4.365,4.365,0,0,1,1.866-.415,4.06,4.06,0,1,1-4.236,4.057,4.012,4.012,0,0,1,1.921-3.4,169.442,169.442,0,0,1-13.914-12.224c-5.387-5.238-9.65-16.265-9.806-20.844-.106-3.11,1.747-7.942,4.527-11.873-4.827,3.052-10.552,8.142-10.32,15.032.342,10.111,8.967,30.123,11.485,35.763a4.56,4.56,0,0,1,3.165-1.243,4.068,4.068,0,1,1-4.393,4.055,3.83,3.83,0,0,1,.845-2.391c-2.753-2.814-10.361-10.557-17.041-17.111-5.387-5.283-9.718-14.454-9.873-19.073-.176-5.223,5.322-13.88,11.253-16.508,5.253-2.326,13.424-2.328,17.988-2.106a12.664,12.664,0,0,1,3.375-2.289c3.3-1.45,12.1-4.784,17.868-4.033a20.379,20.379,0,0,1,12.174,6.439s.227.131.547.342c.08-.531.173-1.07.28-1.62,1.584-8.122,3.691-7.857,7.545-7.574.643.047,1.235.042,1.78.035,2.719-.031,4.3-.062,5.615,6.537.193.968.331,1.92.426,2.866.49-.349.9-.586.9-.586a20.382,20.382,0,0,1,12.176-6.439c5.77-.752,14.563,2.582,17.866,4.033a12.639,12.639,0,0,1,3.377,2.289c4.562-.222,12.733-.22,17.986,2.106,5.932,2.628,11.431,11.285,11.253,16.508-.155,4.619-4.487,13.789-9.874,19.073C259.032,82.8,250.677,91.322,248.645,93.4a4.01,4.01,0,0,1,1.847,3.35,4.239,4.239,0,0,1-8.471,0ZM198.538,83.663c0-3.016,2.81-5.46,6.277-5.46s6.275,2.444,6.275,5.46-2.81,5.458-6.275,5.458S198.538,86.677,198.538,83.663Zm.314-61.515c0-3.1,2.81-5.614,6.277-5.614s6.275,2.513,6.275,5.614-2.81,5.614-6.275,5.614S198.852,25.25,198.852,22.148Zm3.714-6.863V9.877H197.6V5.409h4.969V0h4.5V5.409h4.969V9.877h-4.969v5.409Z" transform="translate(1139.16 42.59)" fill="url(#linear-gradient-2)"/>
      </g>
      <g transform="matrix(1, 0, 0, 1, 9706.94, 5961.53)" filter="url(#Sustracción_150)">
        <path id="Sustracción_150-2" data-name="Sustracción 150" d="M12665.048,2663.344a68.962,68.962,0,0,1-14.159-1.734h-11.446l-5.4-5.394a48.759,48.759,0,0,1-6.289-1.6,44.812,44.812,0,0,1-4.629.233,38.785,38.785,0,0,1-21.773-6.422l-13.891-9.307-1.271-15.583a39.861,39.861,0,0,1-8.074-4.661,40.407,40.407,0,0,1-6.789-6.417,40.892,40.892,0,0,1-5.206-7.934,41.979,41.979,0,0,1-2.133-32.449,39.882,39.882,0,0,1,8.837-14.555,44.714,44.714,0,0,1,3.479-3.78c-.271-.264-.533-.523-.8-.791-2.707-2.691-5.431-5.585-8.095-8.6a34.217,34.217,0,0,1-7.439.849,41.694,41.694,0,0,1-10.184-1.255,43.842,43.842,0,0,1-9.17-3.469,53.415,53.415,0,0,1-8.222-5.237,70.621,70.621,0,0,1-7.343-6.558c-8.3,10.73-17.588,18.6-27.608,23.4a55.061,55.061,0,0,1-23.934,5.54h-6.045a40.381,40.381,0,0,1-30.254-13.07,41.162,41.162,0,0,1-10.7-27.887c0-11.994,5.167-23.495,14.549-32.384a46.921,46.921,0,0,1,14.206-9.3,48.858,48.858,0,0,1,16.81-3.69,81.986,81.986,0,0,0,5.789-23.294,35.843,35.843,0,0,1-9.031-23.745c0-1.525.06-2.984.188-4.59a37.476,37.476,0,0,1-13.562-14.178,40.612,40.612,0,0,1-3.75-9.615,44.653,44.653,0,0,1-1.318-10.87,49.36,49.36,0,0,1,1.452-11.634c-.469-.175-.975-.357-1.452-.528l-10.175-3.595-6.24-8.808c-5.556-7.841-8.373-17.3-8.373-28.1a42.875,42.875,0,0,1,.625-7.329L12413,2312.6l12.707-14.918,1.965-35.554,18.2-8.681c7.085-3.381,11.2-5.6,13.411-6.875.044-.262.088-.569.139-.966a52.536,52.536,0,0,1,3.605-13.107,55.27,55.27,0,0,1,9.4-14.91,16.782,16.782,0,0,0-1.459-4.688c-4.72-10.7-7.277-18.037-7.277-26.15a43.238,43.238,0,0,1,3.339-16.935,38.582,38.582,0,0,1,9.171-13.231,40.49,40.49,0,0,0-4.918-12.049l-7.757,1.592-9.605-3.952a39.255,39.255,0,0,1-24.69-36.909,44.759,44.759,0,0,1,12.755-30.954,43.826,43.826,0,0,1,32.008-13.543h1.55l2.872.2a68.13,68.13,0,0,1,13.094,2.255,61.34,61.34,0,0,1,11.929,4.7,62.628,62.628,0,0,1,10.754,7.133,72.03,72.03,0,0,1,9.563,9.558l.031-.036.054-.061c.13-.149.265-.3.4-.458a55.591,55.591,0,0,1,11.012-11.209,38.131,38.131,0,0,1,23.206-8.046,39.992,39.992,0,0,1,14.9,2.807c.727-.747,1.448-1.477,2.143-2.169,1.527-1.517,3.046-2.973,4.513-4.327l-.213-.208c-.146-.143-.265-.259-.371-.366-9.279-9.1-19.511-26.2-20.046-42.209-.648-19.222,13.172-40.627,31.463-48.731a63.525,63.525,0,0,1,22.718-4.979,93.675,93.675,0,0,1,9.641-3.456V1932h82.434v29.08a93.192,93.192,0,0,1,9.936,3.543,63.51,63.51,0,0,1,22.717,4.979c18.295,8.105,32.115,29.516,31.463,48.744-.548,16.014-10.775,33.1-20.046,42.193l-.283.278-.072.071-.129.126-.184.18c1.509,1.4,3,2.831,4.441,4.26.808.8,1.575,1.583,2.282,2.314a39.892,39.892,0,0,1,15.284-2.963,37.747,37.747,0,0,1,22.521,7.609,60.785,60.785,0,0,1,12.217,12.243,72.089,72.089,0,0,1,9.638-9.583,63.122,63.122,0,0,1,10.857-7.156,62.3,62.3,0,0,1,12.068-4.719,69.724,69.724,0,0,1,13.272-2.274l1.277-.094,2.609-.065a43.843,43.843,0,0,1,32.018,13.553,44.743,44.743,0,0,1,12.745,30.944,39.26,39.26,0,0,1-24.7,36.916l-9.6,3.945-7.773-1.6a37.621,37.621,0,0,0-4.917,12.03,38.631,38.631,0,0,1,9.188,13.24,43.248,43.248,0,0,1,3.347,16.952c0,8.114-2.557,15.447-7.274,26.141a16.718,16.718,0,0,0-1.462,4.7,55.559,55.559,0,0,1,9.387,14.817,50.447,50.447,0,0,1,3.554,12.717c.074.6.153,1.1.214,1.478,2.322,1.314,6.532,3.568,13.4,6.846l18.2,8.678,1.971,35.586,12.662,14.892-13.187,12.386a42.743,42.743,0,0,1,.629,7.342c0,10.809-2.82,20.267-8.383,28.111l-6.236,8.8-10.173,3.592c-.439.158-.955.344-1.448.528a49.547,49.547,0,0,1,1.448,11.634,44.71,44.71,0,0,1-1.317,10.87,40.642,40.642,0,0,1-3.748,9.615,37.447,37.447,0,0,1-13.561,14.178c.129,1.65.188,3.109.188,4.59a35.824,35.824,0,0,1-9.035,23.745,81.568,81.568,0,0,0,5.783,23.294,48.826,48.826,0,0,1,16.8,3.686,47.034,47.034,0,0,1,14.228,9.31c9.379,8.893,14.545,20.393,14.545,32.38a41.218,41.218,0,0,1-10.729,27.917,40.351,40.351,0,0,1-30.226,13.041h-6.049a55.138,55.138,0,0,1-23.963-5.545c-10.03-4.8-19.31-12.672-27.581-23.393a70.572,70.572,0,0,1-7.345,6.561,53.335,53.335,0,0,1-8.222,5.235,43.833,43.833,0,0,1-9.166,3.466,41.691,41.691,0,0,1-10.18,1.254,34.476,34.476,0,0,1-7.887-.95c-2.678,3.032-5.429,5.956-8.176,8.691-.314.315-.646.642-.982.972a44.6,44.6,0,0,1,3.66,3.958,40.114,40.114,0,0,1,8.82,14.525,41.741,41.741,0,0,1-5.367,37.834,40.129,40.129,0,0,1-11.217,10.67v19.427l-19,10.322a37.239,37.239,0,0,1-17.175,4.256h-3.649l-1.728-.36c-.582.018-1.053.026-1.481.026-.751.19-4.416,1.007-6.124,1.358l-3.637.707a36.128,36.128,0,0,1-7.354,3.334,37.089,37.089,0,0,1-8.171,1.658A108.735,108.735,0,0,1,12665.048,2663.344Zm-36.251-18.425h0a37.838,37.838,0,0,0,10.053,2.376c.088.009.175.015.278.023a26.7,26.7,0,0,0,5.627,3.024,25.853,25.853,0,0,0,6.141,1.563l.476.1a66.161,66.161,0,0,0,13.677,1.838,77.98,77.98,0,0,0,12.606-1.443l1.251-.211a26.938,26.938,0,0,0,13.466-4.833,31.505,31.505,0,0,0,4.93-.735c3.94-.809,6.182-1.207,7.259-1.4a6.763,6.763,0,0,0,.783-.153c.747,0,1.5-.027,2.3-.077a25.963,25.963,0,0,0,4.558.408,27.827,27.827,0,0,0,12.792-3.183,25.454,25.454,0,0,0,13.884-22.49,26.16,26.16,0,0,0-.37-4.383,30.666,30.666,0,0,0,11.69-8.505,31.513,31.513,0,0,0,4.106-6.189,32.52,32.52,0,0,0,2.625-7.223,32.058,32.058,0,0,0-.93-17.88,30.7,30.7,0,0,0-7.031-11.43,40.772,40.772,0,0,0-11.343-9.5c3.1-2.627,6.169-5.456,9.136-8.409,4.023-4,7.991-8.369,11.793-12.979a27.718,27.718,0,0,0,10.973,2.47,32.528,32.528,0,0,0,10.649-1.794,38.693,38.693,0,0,0,9.412-4.871c5.274-3.671,10.409-8.877,15.7-15.916,1.312,2.146,2.688,4.253,4.094,6.263,13.483,19.068,29.163,28.737,46.6,28.737h6.049a31.006,31.006,0,0,0,23.239-9.974,31.752,31.752,0,0,0,8.215-21.482c0-6.616-2.008-16.407-11.576-25.479a38.221,38.221,0,0,0-26.831-10.448,29.494,29.494,0,0,0-3.792.246c-.259-.554-.516-1.125-.823-1.815a91.666,91.666,0,0,1-8.588-34.663c6.163-5.921,9.288-12.736,9.288-20.257a67.382,67.382,0,0,0-.934-10.321,27.679,27.679,0,0,0,13.667-9.969,28.81,28.81,0,0,0,4.17-8.376A35.508,35.508,0,0,0,12869.6,2385c0-4.977-1.1-10.332-3.459-16.853a63.9,63.9,0,0,1,9.8-4.269l7.319-2.587,4.493-6.331c4.405-6.2,6.639-13.818,6.639-22.63a31.917,31.917,0,0,0-1.705-10.438l10.688-10.036-8.9-10.445-1.834-33.132-13.106-6.256c-10.614-5.063-15.2-7.807-16.7-8.709a4.4,4.4,0,0,0-.616-.347.007.007,0,0,0-.006,0s0,.007,0,.013c-.105-.179-1.03-1.882-1.619-6.538-.889-6.334-3.84-15.8-12.856-24.938a25.353,25.353,0,0,1-.2-3.452,23.057,23.057,0,0,1,2.3-8.992c4.835-10.968,6.467-16.6,6.467-22.312a35.922,35.922,0,0,0-.935-8.235,31.54,31.54,0,0,0-2.674-7.271,28.949,28.949,0,0,0-4.22-6.1,27.862,27.862,0,0,0-5.573-4.736,60.823,60.823,0,0,1,2.85-11.873,44.135,44.135,0,0,1,4.853-9.748,32.57,32.57,0,0,1,3.838-4.632c1.221.194,2.319.39,3.265.583l7.329,1.507,6.921-2.846a29.912,29.912,0,0,0,18.808-28.124,34.86,34.86,0,0,0-10.117-24.387,34.414,34.414,0,0,0-25.145-10.61c-1.127,0-2.312.049-3.171.13a57.433,57.433,0,0,0-13.644,2.671,52.952,52.952,0,0,0-12.188,5.837,58.823,58.823,0,0,0-10.725,8.989,76.068,76.068,0,0,0-9.25,12.128c-2.4-2.744-5.1-5.86-8.029-9.261a53.183,53.183,0,0,0-9.926-10.231,28.712,28.712,0,0,0-17.53-6.227,30.821,30.821,0,0,0-8.982,1.336,29.761,29.761,0,0,0-8.257,3.974c-2.3-2.573-4.662-5.074-7.034-7.433a156.93,156.93,0,0,0-11.67-10.516c2.791-2.806,5.541-5.54,7.951-7.906,8.222-8.067,16.772-22.933,17.207-35.739.519-15.371-11.062-33.2-25.816-39.732-5.83-2.584-12.713-3.974-21.041-4.25l-.2-.087-.1-.044-.1-.044a80.527,80.527,0,0,0-16.869-5.307V1941.5H12632.7v27.109a80.854,80.854,0,0,0-16.571,5.245l-.177.08-.021.009-.021.009-.184.083c-8.326.276-15.208,1.665-21.038,4.246-14.753,6.537-26.334,24.363-25.815,39.735.431,12.81,8.979,27.673,17.2,35.735,2.359,2.314,5.011,4.95,7.881,7.835a155.988,155.988,0,0,0-11.761,10.59c-2.286,2.274-4.585,4.7-6.833,7.206a29.779,29.779,0,0,0-8.112-3.8,30.838,30.838,0,0,0-8.793-1.278,28.709,28.709,0,0,0-17.528,6.227,53.088,53.088,0,0,0-9.925,10.231c-3.34,3.871-5.961,6.894-8.013,9.242a76.256,76.256,0,0,0-9.2-12.115,58.681,58.681,0,0,0-10.651-8.977,52.4,52.4,0,0,0-12.081-5.823,56.358,56.358,0,0,0-13.5-2.658c-1.187-.107-2.385-.162-3.562-.162a34.418,34.418,0,0,0-25.146,10.61,34.863,34.863,0,0,0-10.117,24.387,29.911,29.911,0,0,0,18.809,28.124l6.92,2.846,7.33-1.507c.908-.187,1.981-.378,3.28-.583a28.267,28.267,0,0,1,3.5,4.169,46.517,46.517,0,0,1,5.091,10.094,60.1,60.1,0,0,1,2.926,11.995,27.825,27.825,0,0,0-5.569,4.736,28.967,28.967,0,0,0-4.218,6.1,31.575,31.575,0,0,0-2.673,7.27,35.91,35.91,0,0,0-.935,8.233c0,5.714,1.632,11.344,6.467,22.312a23.07,23.07,0,0,1,2.3,8.992,24.474,24.474,0,0,1-.208,3.452,47.385,47.385,0,0,0-9.452,13.5,42.439,42.439,0,0,0-3.452,11.787,30.7,30.7,0,0,1-1.065,5.205l0,.008,0,.008c-.1.335-.149.5-.114.52-.931.689-4.958,3.406-17.705,9.488l-13.109,6.256-1.835,33.132-8.9,10.448,10.69,10.036a31.877,31.877,0,0,0-1.705,10.435c0,8.812,2.233,16.426,6.639,22.63l4.493,6.331,7.319,2.587a63.95,63.95,0,0,1,9.8,4.269c-2.359,6.524-3.459,11.879-3.459,16.853a35.539,35.539,0,0,0,1.534,10.583,28.812,28.812,0,0,0,4.172,8.376,27.689,27.689,0,0,0,13.666,9.969,67.2,67.2,0,0,0-.93,10.321c0,7.518,3.125,14.334,9.287,20.26a92.338,92.338,0,0,1-8.685,34.867c-.25.565-.488,1.092-.729,1.611a29.487,29.487,0,0,0-3.793-.25,38.231,38.231,0,0,0-26.834,10.451c-9.562,9.07-11.569,18.86-11.569,25.476a31.755,31.755,0,0,0,8.221,21.489,30.987,30.987,0,0,0,23.233,9.968h6.045a45.5,45.5,0,0,0,12.745-1.81,49.222,49.222,0,0,0,12.049-5.419,64.454,64.454,0,0,0,11.322-9.014,93.825,93.825,0,0,0,10.56-12.594c1.379-1.97,2.733-4.042,4.026-6.156,5.281,7.031,10.412,12.234,15.688,15.907a38.737,38.737,0,0,0,9.414,4.873,32.529,32.529,0,0,0,10.653,1.795,27.377,27.377,0,0,0,10.577-2.3c3.751,4.538,7.671,8.847,11.65,12.807,2.884,2.868,5.88,5.63,8.905,8.211a40.659,40.659,0,0,0-11.1,9.352,30.451,30.451,0,0,0-7.028,11.4,32.123,32.123,0,0,0-.924,17.974,31.606,31.606,0,0,0,8.571,15.365,30.248,30.248,0,0,0,15.073,8.1,24.479,24.479,0,0,0-.146,4.742l1.08,12.48,10.032,6.707a29.069,29.069,0,0,0,16.471,4.8A37.633,37.633,0,0,0,12628.8,2644.918Z" transform="translate(-11320.44 -1918)" fill="url(#linear-gradient-3)"/>
      </g>
    </g>
    <path id="Unión_242" data-name="Unión 242" d="M12608.77,9656.472c-16.014-4.935-26.486-18.506-26.486-37.012s9.856-41.944,35.109-66.618c46.812-46.881,113.334-62.919,182.935-66.62C12744.277,9508.429,12645.11,9597.871,12608.77,9656.472Zm112.1-82.041c-4.312,49.349-38.8,82.041-81.3,85.742,17.862-32.693,38.806-66.62,69.6-97.462,28.95-28.992,80.073-66.619,121.341-77.106v-8.019h-18.478c-121.342,0-247.61,56.75-247.61,135.089,0,24.675,14.168,45.647,38.189,52.433-45.58,72.788-96.7,152.362-190.942,152.362-36.957,0-58.515-17.89-54.2-37.012,1.848,4.318,7.392,7.4,13.551,7.4,11.087,0,14.166-4.936,14.166-12.954,0-9.869-4.927-14.8-16.015-14.8-16.014,0-23.405,12.337-23.405,24.675,0,28.992,27.717,42.562,66.521,42.562,58.515,0,123.188-37.01,162.609-77.1,23.406-23.44,40.652-49.349,59.131-80.809,51.123,1.234,91.159-35.776,94.855-94.994Zm40.652,124.6-13.551,14.188c0-9.252-.615-16.655-19.711-16.655-35.724,0-105.326,27.758-105.326,82.041,0,19.122,4.928,30.227,21.559,30.227,14.782,0,22.174-5.553,28.949-8.638l-31.412,40.713c-64.675,27.758-101.632,40.712-133.045,72.788-14.166,14.188-18.479,25.29-18.479,33.928,0,16.037,9.239,21.589,21.559,21.589,23.405,0,48.043-14.8,96.7-64.152,11.088-11.1,48.659-51.2,63.442-67.854,55.435-23.439,94.239-56.134,134.892-91.293v-13.571c-36.341,33.31-70.834,60.451-117.029,86.358l105.941-122.136Zm-193.406,227.617c-23.405,23.44-41.884,33.927-54.819,33.927-7.391,0-13.551-4.317-13.551-11.721,0-6.785,4.312-16.038,17.862-29.608,30.182-30.226,88.7-52.433,111.486-62.919C12604.458,9885.938,12590.907,9904.444,12568.117,9926.651Zm71.449-128.922q-1.847-1.85-1.847-5.551c0-21.591,60.978-86.977,91.159-86.977,7.391,0,9.854,4.936,9.854,8.636,0,19.122-67.754,85.742-93.623,85.742Q12641.415,9799.58,12639.566,9797.729Zm160.146-45.029c22.79-22.823,55.435-46.264,62.826-46.264,1.231,0,1.848.616,1.848,1.233,0,3.085-9.239,12.337-12.934,16.654l-75.146,84.51h33.261c46.813-47.5,126.885-102.4,141.668-102.4a2.258,2.258,0,0,1,2.464,2.467c0,7.4-25.87,27.759-37.572,38.862-15.4,16.037-24.023,33.927-24.023,46.264,0,9.869,4.929,16.037,16.016,16.037,27.1,0,69.6-38.86,97.936-64.151v-13.571c-37.573,35.777-81.3,69.087-97.32,69.087-3.7,0-6.158-2.467-6.158-3.7,0-9.869,29.564-26.523,46.2-43.179,11.7-11.721,18.479-25.291,18.479-38.862,0-12.337-2.464-17.888-13.551-17.888-24.638,0-64.059,31.459-93.008,53.049,8.007-13.57,16.015-21.59,16.015-38.244,0-11.721-3.7-14.8-13.551-14.8-16.63,0-40.652,20.355-63.442,41.328Zm298.732-38.244c0,24.673-72.065,86.975-92.391,86.975-4.928,0-8.624-3.083-8.624-8.636,0-19.738,62.21-86.975,91.775-86.975C13094.133,9705.82,13098.444,9709.521,13098.444,9714.456Zm67.754,17.888c-34.493,31.459-83.769,68.471-92.391,68.471a1.635,1.635,0,0,1-1.849-1.851c0-2.468,2.464-6.785,8.623-14.187l75.762-87.594-35.725,3.085-12.319,14.188c0-11.1-3.079-16.655-19.71-16.655-33.261,0-104.711,25.907-104.711,82.041,0,22.206,8.624,30.225,22.175,30.225,17.245,0,32.028-10.486,57.282-32.075-2.464,9.252-3.7,16.038-3.7,20.973,0,8.636,4.312,11.72,12.319,11.72,19.094,0,51.74-28.991,94.239-64.769Zm121.957,0c-44.964,41.945-88.7,69.7-114.566,69.7-6.774,0-15.4-2.468-15.4-8.019,0-20.973,60.361-88.209,91.159-88.209,7.392,0,11.7,3.7,9.854,11.719a12.792,12.792,0,0,0-9.854-4.934c-8.623,0-12.935,5.551-12.935,11.719,0,9.87,6.775,12.338,12.318,12.338,11.088,0,20.327-10.487,20.327-22.824,0-10.486-4.312-16.655-20.327-16.655-31.413,0-104.71,25.909-104.71,82.659,0,17.888,6.159,30.842,27.1,30.842,34.493,0,71.449-23.44,117.029-64.769Zm96.7-72.787c6.159,0,12.319-4.318,12.319-14.188,0-8.019-3.7-9.869-10.471-9.869-8.625,0-12.319,5.552-12.319,14.188C13374.388,9657.088,13378.082,9659.557,13384.858,9659.557Zm-104.095,93.144c11.088-11.1,19.71-17.271,29.565-25.291-19.095,20.973-36.956,45.647-36.956,67.236,0,11.72,4.311,15.421,13.55,15.421,20.326,0,52.972-25.907,97.319-64.151v-13.571c-28.948,26.525-81.92,68.471-96.7,68.471-3.08,0-4.312-.618-4.312-2.467,0-2.469,4.928-8.02,11.7-15.423l75.146-84.508h-36.341c-17.862,11.721-40.652,30.226-52.972,40.712Zm231.595-20.356c-11.7,11.1-24.021,19.74-36.341,20.973,6.776-9.252,12.319-22.823,12.319-34.543s-6.16-21.591-24.021-21.591c-32.646,0-105.942,33.928-105.942,84.51,0,20.355,11.087,28.374,27.1,28.374,25.254,0,57.282-20.356,83.151-48.73,17.862.616,27.1-1.851,43.732-15.421Zm-62.209,30.227c-20.943,20.973-48.045,38.86-64.06,38.86-4.928,0-11.087-1.851-11.087-8.019,0-17.889,62.211-86.976,91.775-86.976,6.776,0,11.7,3.7,11.7,10.486C13478.482,9729.26,13464.315,9748.382,13450.149,9762.57Zm637.5-288.068c-61.594,36.394-134.893,107.948-167.537,140.641-78.225,77.723-123.8,128.3-133.043,136.941-49.893,49.964-86.85,66-118.262,66-16.631,0-32.646-9.87-32.646-21.59,0-3.084,1.232-5.552,3.08-8.636.615,6.785,3.7,11.1,11.086,11.1s11.7-7.4,11.7-14.187-4.928-12.338-14.783-12.338c-11.087,0-19.709,13.571-19.709,22.207,0,21.59,16.63,32.076,41.884,32.076,29.564,0,71.448-14.187,118.876-61.685,37.574-37.628,80.689-85.126,142.283-146.193,30.8-30.842,90.545-86.358,118.877-105.48-22.789,24.058-49.275,49.348-69.6,71.554-114.564,123.37-160.145,172.1-160.145,230.7,0,7.4,2.463,11.719,8.623,11.719,30.182,0,115.8-111.649,209.42-206.644,38.8-38.86,67.139-63.535,113.949-103.014-31.412,32.693-48.658,49.349-80.072,83.275-94.855,103.63-138.586,161.614-138.586,212.813,0,9.252,4.311,13.569,14.166,13.569,30.182,0,68.369-42.562,112.717-81.423v-13.571c-24.021,19.122-85,85.126-109.637,85.126-3.08,0-3.7-.618-3.7-3.085,0-24.675,179.238-247.974,254.383-331.864l-6.773-7.4c-43.117,24.675-113.949,88.21-157.682,132.006-73.3,73.405-170,193.072-206.959,210.346,11.088-25.909,40.037-64.77,86.85-122.754,44.965-55.516,103.479-125.837,178.008-212.812Zm64.674,239.954c0,24.673-72.064,86.975-92.393,86.975-4.928,0-8.623-3.083-8.623-8.636,0-19.738,62.211-86.975,91.775-86.975C14148.014,9705.82,14152.324,9709.521,14152.324,9714.456Zm67.754,17.888c-34.492,31.459-83.77,68.471-92.393,68.471a1.635,1.635,0,0,1-1.848-1.851c0-2.468,2.465-6.785,8.625-14.187l75.76-87.594-35.725,3.085-12.318,14.188c0-11.1-3.08-16.655-19.711-16.655-33.26,0-104.711,25.907-104.711,82.041,0,22.206,8.623,30.225,22.174,30.225,17.248,0,32.029-10.486,57.283-32.075-2.463,9.252-3.7,16.038-3.7,20.973,0,8.636,4.313,11.72,12.318,11.72,19.1,0,51.74-28.991,94.24-64.769Zm-7.391,20.356c22.789-22.823,55.434-46.264,62.826-46.264,1.23,0,1.846.616,1.846,1.233,0,3.085-9.238,12.337-12.934,16.654l-75.145,84.51h33.26c46.813-47.5,126.885-102.4,141.668-102.4a2.257,2.257,0,0,1,2.463,2.467c0,7.4-25.869,27.759-37.572,38.862-15.4,16.037-24.021,33.927-24.021,46.264,0,9.869,4.928,16.037,16.014,16.037,27.1,0,69.6-38.86,97.936-64.151v-13.571c-37.572,35.777-81.3,69.087-97.318,69.087-3.7,0-6.16-2.467-6.16-3.7,0-9.869,29.566-26.523,46.2-43.179,11.7-11.721,18.477-25.291,18.477-38.862,0-12.337-2.463-17.888-13.551-17.888-24.637,0-64.057,31.459-93.008,53.049,8.008-13.57,16.016-21.59,16.016-38.244,0-11.721-3.7-14.8-13.551-14.8-16.631,0-40.652,20.355-63.441,41.328Zm198.949,0,37.572-32.693c9.238,5.552,17.863,5.552,28.949,4.317l-61.594,50.582c-18.479,9.87-34.494,20.356-34.494,30.226,0,4.318,1.85,6.169,6.777,6.169,15.4,0,22.172-36.395,71.447-37.012-9.238,6.785-16.014,14.188-16.014,22.824,0,9.252,4.928,13.57,14.166,13.57,19.1,0,45.58-24.674,88.7-64.769v-13.571c-30.18,27.758-54.818,51.815-78.225,64.77,6.16-6.169,8.625-12.337,8.625-17.271,0-12.337-9.24-14.8-17.248-14.8-4.928,0-10.471.616-16.629,1.233l55.434-46.264c15.4-3.7,38.8-12.954,38.8-27.142,0-4.318-.615-5.551-6.16-5.551-8.623,0-20.324,10.486-36.34,23.44-8.623,3.083-17.861,5.552-25.252,5.552a22.188,22.188,0,0,1-12.32-3.7c8.006,1.232,16.631-.618,16.631-10.486,0-8.02-3.08-10.487-12.318-10.487-14.168,0-19.711,9.87-17.863,19.739l-32.645,27.758Zm227.9-38.244c0,24.673-72.064,86.975-92.393,86.975-4.926,0-8.621-3.083-8.621-8.636,0-19.738,62.209-86.975,91.775-86.975C14635.225,9705.82,14639.535,9709.521,14639.535,9714.456Zm67.754,17.888c-34.492,31.459-83.768,68.471-92.393,68.471a1.634,1.634,0,0,1-1.846-1.851c0-2.468,2.463-6.785,8.623-14.187l75.762-87.594-35.727,3.085-12.318,14.188c0-11.1-3.08-16.655-19.711-16.655-33.26,0-104.709,25.907-104.709,82.041,0,22.206,8.621,30.225,22.172,30.225,17.248,0,32.029-10.486,57.283-32.075-2.463,9.252-3.7,16.038-3.7,20.973,0,8.636,4.313,11.72,12.32,11.72,19.094,0,51.738-28.991,94.238-64.769Zm-7.391,20.356c22.789-22.823,55.434-46.264,62.826-46.264,1.23,0,1.848.616,1.848,1.233,0,3.085-9.24,12.337-12.934,16.654l-75.146,84.51h33.26c46.813-47.5,126.885-102.4,141.668-102.4a2.257,2.257,0,0,1,2.463,2.467c0,7.4-25.869,27.759-37.57,38.862-15.4,16.037-24.023,33.927-24.023,46.264,0,9.869,4.928,16.037,16.016,16.037,27.1,0,69.6-38.86,97.936-64.151v-13.571c-37.574,35.777-81.3,69.087-97.32,69.087-3.7,0-6.16-2.467-6.16-3.7,0-9.869,29.566-26.523,46.2-43.179,11.7-11.721,18.477-25.291,18.477-38.862,0-12.337-2.463-17.888-13.551-17.888-24.637,0-64.057,31.459-93.008,53.049,8.008-13.57,16.016-21.59,16.016-38.244,0-11.721-3.7-14.8-13.551-14.8-16.631,0-40.652,20.355-63.441,41.328Zm334.457-20.356c-11.7,11.1-24.021,19.74-36.34,20.973,6.773-9.252,12.318-22.823,12.318-34.543s-6.16-21.591-24.023-21.591c-32.645,0-105.941,33.928-105.941,84.51,0,20.355,11.088,28.374,27.1,28.374,25.254,0,57.283-20.356,83.152-48.73,17.863.616,27.1-1.851,43.732-15.421Zm-62.211,30.227c-20.941,20.973-48.043,38.86-64.057,38.86-4.928,0-11.088-1.851-11.088-8.019,0-17.889,62.211-86.976,91.775-86.976,6.775,0,11.7,3.7,11.7,10.486C15000.479,9729.26,14986.311,9748.382,14972.145,9762.57Z" transform="translate(-6431.059 -2813.878)" fill="#bfaa78"/>
  </g>
</svg>
