<svg xmlns="http://www.w3.org/2000/svg" width="1948.592" height="897.104" viewBox="0 0 1948.592 897.104">
  <path id="Unión_108" data-name="Unión 108" d="M12450.669,9743.588c0-6.25,3.125-14.285,13.393-24.553,22.769-23.214,49.553-32.588,96.426-52.678l22.766-29.46c-4.907,2.231-10.268,6.25-20.979,6.25-12.054,0-15.627-8.036-15.627-21.876,0-39.282,50.446-59.372,76.341-59.372,13.836,0,14.285,5.356,14.285,12.054l9.818-10.267,25-1.787-76.785,88.391c33.481-18.752,58.481-38.393,84.82-62.5v.041c14.848-13.31,29.868-25.038,40.621-25.038,7.142,0,9.822,2.231,9.822,10.712,0,12.054-5.8,17.858-11.605,27.681,20.979-15.627,49.549-38.393,67.407-38.393,8.036,0,9.822,4.018,9.822,12.943,0,9.822-4.911,19.645-13.4,28.125-12.05,12.054-33.478,24.107-33.478,31.25,0,.894,1.783,2.677,4.463,2.677,10.834,0,39.18-21.008,65.052-44.867,16.439-20.471,48-30.128,65.3-30.128,12.054,0,14.285,4.018,14.285,12.054l8.93-10.271,25.89-2.231-54.908,63.393c-4.463,5.356-6.249,8.48-6.249,10.268a1.184,1.184,0,0,0,1.341,1.338c5.859,0,37.617-23.543,62.161-45.248,16.867-20.262,48.424-29.75,64.618-29.75,11.609,0,14.733,4.466,14.733,12.054,0,8.929-6.7,16.516-14.733,16.516-4.018,0-8.929-1.782-8.929-8.925,0-4.467,3.124-8.484,9.377-8.484a9.278,9.278,0,0,1,7.143,3.573c1.339-5.8-1.786-8.484-7.143-8.484-22.32,0-66.069,48.659-66.069,63.838,0,4.018,6.25,5.8,11.161,5.8,18.747,0,50.442-20.09,83.03-50.446v.426c9.273-7.663,22.367-17.989,33.036-24.979h26.339l-54.464,61.158c-4.911,5.36-8.48,9.374-8.48,11.161,0,1.341.894,1.786,3.125,1.786,9.942,0,43.731-26.152,65.313-45.259,17.418-18.544,46.831-29.739,62.808-29.739,12.943,0,17.41,7.143,17.41,15.626s-4.019,18.3-8.93,25c8.93-.893,17.858-7.143,26.339-15.178v9.822c-12.054,9.818-18.747,11.605-31.694,11.16-18.752,20.534-41.962,35.268-60.265,35.268-11.609,0-19.646-5.8-19.646-20.537a38.366,38.366,0,0,1,1.78-11.5c-23.623,19.589-41.558,32.041-53.564,32.041-6.693,0-9.818-2.68-9.818-11.16,0-15.627,12.947-33.481,26.783-48.659-5.479,4.45-10.434,8.115-16.071,13.209v.183q-2.087,1.89-4.141,3.71-.6.587-1.216,1.2v-.129c-30.6,26.927-55.829,42.091-79.461,42.091-15.178,0-19.641-9.374-19.641-22.321a44.874,44.874,0,0,1,1.739-12.48c-23.847,20.039-42.363,34.8-53.972,34.8-5.8,0-8.926-2.231-8.926-8.48,0-3.573.89-8.484,2.676-15.179-18.3,15.623-29.019,23.214-41.517,23.214-9.819,0-16.072-5.8-16.072-21.876a45.05,45.05,0,0,1,1.511-11.67c-18.785,16.279-41.026,33.546-56.416,33.546-8.035,0-11.608-4.466-11.608-11.608,0-8.929,6.249-21.872,17.409-33.481,8.484-8.036,27.232-22.766,27.232-28.122a1.635,1.635,0,0,0-1.786-1.786c-10.712,0-68.746,39.73-102.676,74.105h-24.1l54.46-61.158c2.68-3.129,9.374-9.822,9.374-12.054,0-.448-.444-.894-1.338-.894-4.8,0-24.29,13.616-40.176,28.33v.24q-1.466,1.267-2.932,2.529-1.236,1.191-2.428,2.382v-.294c-27.568,23.678-54.672,45.519-92.408,61.452-10.712,12.054-37.943,41.068-45.979,49.1-35.265,35.713-53.122,46.428-70.087,46.428C12457.363,9759.214,12450.669,9755.2,12450.669,9743.588Zm19.642-20.535c-9.819,9.823-12.947,16.517-12.947,21.428,0,5.36,4.467,8.484,9.822,8.484,9.378,0,22.77-7.591,39.73-24.552,16.517-16.072,26.339-29.468,44.2-50.895C12534.593,9685.109,12492.187,9701.181,12470.311,9723.053Zm621.407-91.066c0,4.463,4.463,5.8,8.036,5.8,11.609,0,31.25-12.944,46.429-28.122,10.267-10.268,20.534-24.107,20.534-33.036,0-4.912-3.573-7.588-8.48-7.588C13136.809,9569.042,13091.718,9619.04,13091.718,9631.986Zm-273.651-.448a5.857,5.857,0,0,0,6.25,6.25c14.733,0,66.962-45.087,66.962-62.941a6.486,6.486,0,0,0-6.693-6.253C12863.157,9568.594,12818.066,9617.253,12818.066,9631.538Zm-260.7-.444a4.732,4.732,0,0,0,5.356,5.355c18.751,0,67.855-48.211,67.855-62.051,0-2.681-1.786-6.25-7.143-6.25C12601.556,9568.148,12557.362,9615.471,12557.362,9631.094Zm938.808,15.623c0-37.051,31.7-79.013,100.444-154.012,22.766-24.552,35.264-36.605,58.029-60.268-33.926,28.573-54.46,46.428-82.585,74.553-67.853,68.746-129.9,149.549-151.78,149.549-4.463,0-6.249-3.125-6.249-8.48,0-42.41,33.032-77.679,116.067-166.962,14.733-16.068,33.926-34.371,50.445-51.78-20.537,13.836-63.838,54.016-86.158,76.332-44.642,44.2-75.892,78.572-103.12,105.8-34.375,34.374-64.731,44.642-86.159,44.642-18.3,0-30.356-7.588-30.356-23.211,0-6.253,6.249-16.071,14.285-16.071,7.143,0,10.716,4.018,10.716,8.929s-3.129,10.268-8.484,10.268-7.588-3.125-8.036-8.036c-1.338,2.231-2.231,4.018-2.231,6.249,0,8.481,11.609,15.623,23.663,15.623,22.766,0,49.549-11.6,85.71-47.766,6.694-6.25,39.73-42.855,96.423-99.1,23.662-23.659,76.784-75.443,121.427-101.782l4.911,5.356c-54.016,62.944-96.427,113.836-129.015,154.011-33.926,41.966-54.909,70.088-62.944,88.839,26.783-12.5,96.871-99.105,149.993-152.229,31.694-31.694,83.034-77.675,114.284-95.532l4.907,5.355c-54.46,60.714-184.367,222.315-184.367,240.174,0,1.783.448,2.231,2.68,2.231,16.632,0,56.105-41.431,75.512-58.3,16.8-19.221,46.989-28.3,63.77-28.3,12.054,0,14.285,4.018,14.285,12.054l8.929-10.271,25.891-2.231-54.909,63.393c-4.463,5.356-6.249,8.48-6.249,10.268a1.183,1.183,0,0,0,1.338,1.338c6.253,0,41.966-26.783,66.963-49.553v.044c14.846-13.312,29.867-25.041,40.623-25.041,7.143,0,9.822,2.231,9.822,10.712,0,12.054-5.8,17.858-11.608,27.681,20.982-15.627,49.553-38.393,67.407-38.393,8.04,0,9.822,4.018,9.822,12.943,0,9.822-4.911,19.645-13.392,28.125-12.054,12.054-33.481,24.107-33.481,31.25,0,.894,1.787,2.677,4.467,2.677,10.852,0,39.268-21.074,65.176-44.981v-.105l1.367-1.161q2.007-1.866,3.989-3.75v.363l18.3-15.542c-1.338-7.143,2.676-14.285,12.947-14.285,6.693,0,8.925,1.787,8.925,7.591,0,7.143-6.249,8.481-12.054,7.588a16.1,16.1,0,0,0,8.93,2.68c5.359,0,12.054-1.786,18.3-4.018,11.608-9.374,20.089-16.965,26.339-16.965,4.018,0,4.466.893,4.466,4.018,0,10.268-16.965,16.965-28.125,19.641l-40.179,33.481c4.466-.444,8.483-.893,12.054-.893,5.8,0,12.5,1.786,12.5,10.715,0,3.573-1.787,8.036-6.249,12.5,15.592-8.617,31.942-24.026,51.473-42.065,16.51-20.249,47.828-29.8,65.039-29.8,12.054,0,14.285,4.018,14.285,12.054l8.929-10.271,25.891-2.231-54.909,63.393c-4.463,5.356-6.249,8.48-6.249,10.268a1.183,1.183,0,0,0,1.342,1.338c6.249,0,41.962-26.783,66.959-49.553v.044c14.846-13.312,29.867-25.041,40.624-25.041,7.142,0,9.822,2.231,9.822,10.712,0,12.054-5.8,17.858-11.605,27.681,20.979-15.627,49.549-38.393,67.407-38.393,8.036,0,9.818,4.018,9.818,12.943,0,9.822-4.911,19.645-13.392,28.125-12.054,12.054-33.481,24.107-33.481,31.25,0,.894,1.787,2.677,4.467,2.677,10.78,0,38.9-20.8,64.665-44.511,17.255-19.255,47.584-30.933,63.9-30.933,12.947,0,17.41,7.143,17.41,15.626s-4.019,18.3-8.93,25c8.93-.893,17.858-7.143,26.339-15.178v9.822c-12.054,9.818-18.748,11.605-31.694,11.16-18.748,20.534-41.962,35.268-60.266,35.268-11.6,0-19.641-5.8-19.641-20.537a38.275,38.275,0,0,1,1.548-10.736c-18.2,15.573-39.1,31.273-53.78,31.273-8.036,0-11.605-4.466-11.605-11.608,0-8.929,6.249-21.872,17.409-33.481,8.481-8.036,27.232-22.766,27.232-28.122a1.637,1.637,0,0,0-1.786-1.786c-10.716,0-68.75,39.73-102.676,74.105h-24.1l54.46-61.158c2.68-3.129,9.374-9.822,9.374-12.054,0-.448-.444-.894-1.338-.894-4.8,0-24.295,13.617-40.179,28.333v.237l-2.384,2q-1.518,1.452-2.973,2.906v-.4c-28.192,23.773-49.918,42.362-62.944,42.362-5.8,0-8.93-2.231-8.93-8.48,0-3.573.894-8.484,2.681-15.179-18.3,15.623-29.019,23.214-41.518,23.214-9.818,0-16.071-5.8-16.071-21.876a45.169,45.169,0,0,1,1.313-10.906c-22.787,20.865-38.01,33.228-49.525,33.228-6.693,0-10.267-3.125-10.267-9.822,0-6.249,4.911-11.605,11.605-16.517-35.713.445-40.624,26.783-51.784,26.783-3.57,0-4.908-1.338-4.908-4.462,0-7.143,11.605-14.73,25-21.876l44.642-36.6c-8.035.89-14.285.89-20.979-3.129l-27.232,23.663v-.135c-20.254,18.035-47.622,41.651-65.624,41.651-8.036,0-11.605-4.466-11.605-11.608,0-8.929,6.249-21.872,17.409-33.481,8.48-8.036,27.229-22.766,27.229-28.122a1.634,1.634,0,0,0-1.783-1.786c-10.715,0-68.749,39.73-102.675,74.105h-24.107l54.464-61.158c2.677-3.129,9.374-9.822,9.374-12.054,0-.448-.444-.894-1.338-.894-4.8,0-24.3,13.617-40.179,28.333v.237l-2.384,2q-1.518,1.452-2.973,2.906v-.4c-28.192,23.773-49.918,42.362-62.944,42.362-5.8,0-8.93-2.231-8.93-8.48,0-3.573.894-8.484,2.68-15.179-18.3,15.623-29.019,23.214-41.517,23.214-9.822,0-16.071-5.8-16.071-21.876a45.09,45.09,0,0,1,1.437-11.392c-25.958,23.782-48.579,45.767-67.058,45.767C13499.295,9656.539,13496.17,9653.414,13496.17,9646.717Zm698.634-14.73c0,4.463,4.467,5.8,8.036,5.8,11.608,0,31.25-12.944,46.428-28.122,10.268-10.268,20.535-24.107,20.535-33.036,0-4.912-3.569-7.588-8.481-7.588C14239.895,9569.042,14194.8,9619.04,14194.8,9631.986Zm-259.811-.448a5.857,5.857,0,0,0,6.249,6.25c14.733,0,66.963-45.087,66.963-62.941a6.488,6.488,0,0,0-6.7-6.253C13980.079,9568.594,13934.993,9617.253,13934.993,9631.538Zm-353.112,0a5.857,5.857,0,0,0,6.249,6.25c14.729,0,66.963-45.087,66.963-62.941a6.488,6.488,0,0,0-6.7-6.253C13626.967,9568.594,13581.881,9617.253,13581.881,9631.538Zm-1236.118-5.8c0-8.929,5.356-17.858,16.965-17.858,8.036,0,11.605,3.57,11.605,10.713,0,5.8-2.231,9.377-10.268,9.377-4.463,0-8.48-2.231-9.822-5.355-3.124,13.836,12.5,26.783,39.286,26.783,68.3,0,105.352-57.589,138.388-110.267-17.409-4.911-27.677-20.086-27.677-37.943,0-56.7,91.515-97.765,179.457-97.765h13.392v5.8c-29.908,7.587-66.959,34.819-87.942,55.8-22.32,22.317-37.5,46.873-50.446,70.532,30.8-2.68,55.8-26.339,58.928-62.051h5.8c-2.68,42.854-31.694,69.639-68.749,68.749-13.392,22.766-25.891,41.513-42.855,58.479-28.569,29.019-75.442,55.8-117.854,55.8C12365.853,9656.539,12345.763,9646.717,12345.763,9625.737Zm196.87-167.852c-18.307,17.854-25.449,34.819-25.449,48.212s7.591,23.214,19.2,26.783c26.339-42.406,98.213-107.138,138.836-123.21C12624.77,9412.352,12576.559,9423.956,12542.633,9457.886Zm548.641,70.088c0-6.253,2.676-10.271,8.926-10.271,4.911,0,7.591,1.342,7.591,7.143,0,7.143-4.467,10.271-8.93,10.271C13093.949,9535.116,13091.273,9533.329,13091.273,9527.974Zm222.781-96.258a1.939,1.939,0,0,1-1.338-.739,2.211,2.211,0,0,1-.7-1.5,18.39,18.39,0,0,1,1.276-2.532q1.862-3.434,3.372-6.536,5.408-11.177,5.406-15.326a4.5,4.5,0,0,1,.09-.714,4.451,4.451,0,0,0,.086-.717c0-.287-.114-.431-.348-.431-.154,0-.523.444-1.1,1.338a50.682,50.682,0,0,0-3.548,6.971q-2.385,5.342-3.893,7.967a41.075,41.075,0,0,1-4.3,6.16c-1.2,1.37-2.615,2.354-6.264,2.034s-7.717-3.322-8.33-3.322a.477.477,0,0,1-.259-.1.609.609,0,0,0-.322-.094c-.04,0-.735.295-2.092.883a10.7,10.7,0,0,1-4.3.883,4.354,4.354,0,0,1-2.439-.574c-.628-.416.15-1.1.15-1.1a70.083,70.083,0,0,0,23.745-15.368q10.756-10.267,10.755-12.557a3.78,3.78,0,0,0-.843-1.359,3.348,3.348,0,0,1-.843-2.03q0-3.53,5.758-3.53,5.58,0,5.582,3.674a2.815,2.815,0,0,1-.814,1.385c-.546.639-.814,1.065-.814,1.288q0,.908,3.663,5.349a100.073,100.073,0,0,0,11.454,11.551,67.833,67.833,0,0,0,8.14,6.351,33.9,33.9,0,0,0,10.465,4.247q1.34.237,2.733.523c.929.194,1.4.592,1.4,1.2,0,.222-.215.444-.639.667a2.652,2.652,0,0,1-1.224.334,11.559,11.559,0,0,1-1.276-.237,9.379,9.379,0,0,0-1.92-.24c-.154,0-.53.032-1.133.1a14.746,14.746,0,0,1-1.539.094c-3.219,0-12.032,1.987-12.27,1.987-.541,0-4.032,0-5.934-1.747a42.473,42.473,0,0,1-6.568-8.068,87.082,87.082,0,0,1-6.045-11.218,40.009,40.009,0,0,0-1.98-4.247c-.309,0-.462.157-.462.477q0,2.766,4.416,14.084a67.1,67.1,0,0,0,4.419,9.162,28.669,28.669,0,0,1,1.977,3.581,1.874,1.874,0,0,1-2.091,2.148c-.894,0-7.193,1.338-9.94,1.338C13320.219,9433.2,13314.791,9431.716,13314.055,9431.716Zm57.389-31.813-.141-.132-.122-.154c-1.671-2.218-7.182-5.417-14.371-8.362a95.406,95.406,0,0,0-20.44-6l-1.446-.208-.384-1.413a34.724,34.724,0,0,1-.8-3.447,3.313,3.313,0,0,1,.412-2.67,2.284,2.284,0,0,1,1.83-.907,2.241,2.241,0,0,1,.675.1c.337-.028.71-.047,1.119-.047,4.678,0,14.2,2.027,23.164,4.93a84.821,84.821,0,0,1,11.867,4.714c3.5,1.786,5.643,3.447,6.625,5.165a5.459,5.459,0,0,1,1.952,2.647,6.709,6.709,0,0,1,.172,3.685,5.363,5.363,0,0,1-5.1,4.424A7.465,7.465,0,0,1,13371.443,9399.9Zm-107.257-2.382a6.658,6.658,0,0,1,.172-3.687,5.441,5.441,0,0,1,1.948-2.647c.986-1.719,3.125-3.376,6.633-5.166a84.38,84.38,0,0,1,11.864-4.714c8.961-2.9,18.482-4.926,23.164-4.926.408,0,.781.011,1.122.043a2.324,2.324,0,0,1,.671-.1,2.271,2.271,0,0,1,1.826.912,3.3,3.3,0,0,1,.416,2.672c-.129.8-.391,1.927-.8,3.44l-.384,1.41-1.445.208a95.622,95.622,0,0,0-20.441,6c-7.189,2.945-12.7,6.145-14.371,8.362l-.114.154-.147.133a7.456,7.456,0,0,1-5.008,2.328A5.363,5.363,0,0,1,13264.187,9397.521Zm51.572-17.216c.021-5.593,14.271-5.643,14.231-.287.072,3.039-3.483,4.416-7.06,4.416C13319.229,9384.434,13315.5,9382.956,13315.759,9380.3Zm-4.821-8.29a69.456,69.456,0,0,1-11.587-3.232,77.6,77.6,0,0,1-11.183-5.26,91.286,91.286,0,0,1-10.723-7.171,110.625,110.625,0,0,1-10.2-8.982,133.322,133.322,0,0,1-9.622-10.687,174.986,174.986,0,0,1-17.27-26.044,237.6,237.6,0,0,1-14.249-31.569,300.545,300.545,0,0,1-10.762-36.236,352.174,352.174,0,0,1-6.8-40.039,390.939,390.939,0,0,1,0-85.983,351.952,351.952,0,0,1,6.8-40.039,300.282,300.282,0,0,1,10.762-36.236,237.546,237.546,0,0,1,14.249-31.569,174.839,174.839,0,0,1,17.27-26.049,133.914,133.914,0,0,1,9.622-10.683,110.2,110.2,0,0,1,10.2-8.983,91.815,91.815,0,0,1,10.723-7.175,78.086,78.086,0,0,1,11.183-5.255,69.269,69.269,0,0,1,11.587-3.232,65.17,65.17,0,0,1,23.863,0,69.279,69.279,0,0,1,11.588,3.232,78.315,78.315,0,0,1,11.186,5.255,92.1,92.1,0,0,1,10.719,7.175,110.213,110.213,0,0,1,10.2,8.983,134.7,134.7,0,0,1,9.625,10.683,174.372,174.372,0,0,1,17.266,26.049,237.553,237.553,0,0,1,14.253,31.569,299.575,299.575,0,0,1,10.759,36.236,350.874,350.874,0,0,1,6.8,40.039,390.3,390.3,0,0,1,0,85.983,351.094,351.094,0,0,1-6.8,40.039,299.837,299.837,0,0,1-10.759,36.236,237.609,237.609,0,0,1-14.253,31.569,174.519,174.519,0,0,1-17.266,26.044,134.1,134.1,0,0,1-9.625,10.688,110.634,110.634,0,0,1-10.2,8.982,91.572,91.572,0,0,1-10.719,7.171,77.823,77.823,0,0,1-11.186,5.26,69.466,69.466,0,0,1-11.588,3.232,65.4,65.4,0,0,1-23.863,0Zm1.055-414.066a61.465,61.465,0,0,0-10.564,3.07,70.425,70.425,0,0,0-10.2,5,83.8,83.8,0,0,0-9.772,6.823,112.64,112.64,0,0,0-18.07,18.709,166.527,166.527,0,0,0-15.748,24.778,230.68,230.68,0,0,0-12.99,30.026,294.772,294.772,0,0,0-9.808,34.464,348.483,348.483,0,0,0-6.2,38.088,387.623,387.623,0,0,0,0,81.786,348.24,348.24,0,0,0,6.2,38.083,294.638,294.638,0,0,0,9.808,34.469,231.26,231.26,0,0,0,12.99,30.03,166.785,166.785,0,0,0,15.748,24.774,112.449,112.449,0,0,0,18.07,18.7,83.375,83.375,0,0,0,9.772,6.827,69.6,69.6,0,0,0,10.2,5,61.138,61.138,0,0,0,10.564,3.075,57.029,57.029,0,0,0,21.754,0,61.073,61.073,0,0,0,10.565-3.075,69.408,69.408,0,0,0,10.2-5,83.4,83.4,0,0,0,9.775-6.827,112.839,112.839,0,0,0,18.07-18.7,166.776,166.776,0,0,0,15.745-24.774,231.26,231.26,0,0,0,12.99-30.03,294.828,294.828,0,0,0,9.808-34.469,346.835,346.835,0,0,0,6.2-38.083,387.623,387.623,0,0,0,0-81.786,347.077,347.077,0,0,0-6.2-38.088,294.962,294.962,0,0,0-9.808-34.464,230.912,230.912,0,0,0-12.99-30.026,166.518,166.518,0,0,0-15.745-24.778,113.031,113.031,0,0,0-18.07-18.709,83.833,83.833,0,0,0-9.775-6.823,70.228,70.228,0,0,0-10.2-5,61.4,61.4,0,0,0-10.565-3.07,56.977,56.977,0,0,0-21.754,0Zm.208,399.591a59.121,59.121,0,0,1-10.353-3.046,67.975,67.975,0,0,1-9.978-4.939,82.314,82.314,0,0,1-9.549-6.733,110.805,110.805,0,0,1-17.607-18.418,163.93,163.93,0,0,1-15.3-24.337,227.188,227.188,0,0,1-12.617-29.464,292.031,292.031,0,0,1-9.521-33.79,343.646,343.646,0,0,1-6.01-37.323,383.507,383.507,0,0,1,0-80.132,343.839,343.839,0,0,1,6.01-37.323,292.086,292.086,0,0,1,9.521-33.79,227.115,227.115,0,0,1,12.617-29.463,164.094,164.094,0,0,1,15.3-24.338,110.812,110.812,0,0,1,17.607-18.414,81.493,81.493,0,0,1,9.549-6.733,67.615,67.615,0,0,1,9.978-4.943,59.543,59.543,0,0,1,10.353-3.046,55.262,55.262,0,0,1,21.342,0,59.389,59.389,0,0,1,10.35,3.046,67.692,67.692,0,0,1,9.98,4.943,81.428,81.428,0,0,1,9.542,6.733,110.643,110.643,0,0,1,17.614,18.414,164.094,164.094,0,0,1,15.3,24.338,228.067,228.067,0,0,1,12.621,29.463,291.5,291.5,0,0,1,9.514,33.79,344.637,344.637,0,0,1,6.016,37.323,384.041,384.041,0,0,1,0,80.132,344.6,344.6,0,0,1-6.016,37.323,291.448,291.448,0,0,1-9.514,33.79,228.14,228.14,0,0,1-12.621,29.464,163.93,163.93,0,0,1-15.3,24.337,110.636,110.636,0,0,1-17.614,18.418,82.248,82.248,0,0,1-9.542,6.733,68.052,68.052,0,0,1-9.98,4.939,58.968,58.968,0,0,1-10.35,3.046,55.415,55.415,0,0,1-21.342,0Zm.57-392.137a55.818,55.818,0,0,0-9.822,2.924,64.242,64.242,0,0,0-9.492,4.771,77.785,77.785,0,0,0-9.115,6.522,106.858,106.858,0,0,0-16.9,17.922,161,161,0,0,0-14.762,23.792,225.235,225.235,0,0,0-12.194,28.879,289,289,0,0,0-9.216,33.169,342.79,342.79,0,0,0-5.826,36.667,382.256,382.256,0,0,0,0,78.747,343.256,343.256,0,0,0,5.826,36.671,288.934,288.934,0,0,0,9.216,33.165,225.117,225.117,0,0,0,12.194,28.875,160.892,160.892,0,0,0,14.762,23.8,107.122,107.122,0,0,0,16.9,17.922,78.262,78.262,0,0,0,9.115,6.522,64.984,64.984,0,0,0,9.492,4.768,55.908,55.908,0,0,0,9.822,2.928,51.659,51.659,0,0,0,20.2,0,55.869,55.869,0,0,0,9.818-2.928,64.935,64.935,0,0,0,9.492-4.768,78.668,78.668,0,0,0,9.123-6.522,107.21,107.21,0,0,0,16.9-17.922,160.739,160.739,0,0,0,14.766-23.8,225.673,225.673,0,0,0,12.194-28.875,289.73,289.73,0,0,0,9.216-33.165,343.013,343.013,0,0,0,5.822-36.671,382.074,382.074,0,0,0,0-78.747,342.547,342.547,0,0,0-5.822-36.667,289.8,289.8,0,0,0-9.216-33.169,225.792,225.792,0,0,0-12.194-28.879,160.85,160.85,0,0,0-14.766-23.792,106.945,106.945,0,0,0-16.9-17.922,77.858,77.858,0,0,0-9.123-6.522,64.194,64.194,0,0,0-9.492-4.771,55.852,55.852,0,0,0-9.818-2.924,51.659,51.659,0,0,0-20.2,0Zm173.976,377.511q-11.646,0-22.766-15.7-11.9-16.972-18.368-45.4-1.033,0-3.623,8.911a83.727,83.727,0,0,1-10.088,22.913q-11.9,18.667-19.143,18.669-2.84,0-2.845-6.791a9.841,9.841,0,0,1,5.693-9.331q7.5-4.247,7.76-4.671,9.573-15.272,14.486-40.731,6.467-35.215,7.242-37.338,6.986-22.488,17.331-35.218a74.726,74.726,0,0,1,18.884-16.122q9.315-5.94,11.384-5.94h4.914a5.224,5.224,0,0,1,1.033,3.394q0,4.666-1.808,7.215-24.06,8.486-24.061,21.216,0,1.695,2.328,7.634t2.328,8.911q0,5.09-3.62,5.091-4.654,0-11.124-7.211-2.073,1.27-4.915,12.729,3.879,17.821,3.882,22.912,0,1.27-4.011,4.24t-4.008,9.762a99.036,99.036,0,0,0,9.313,41.582q7.753,17.391,12.933,17.395,1.291,0,4.785-1.908t5.3-1.908a11.923,11.923,0,0,1,8.538,3.182q3.363,3.18,3.361,6.576a6.031,6.031,0,0,1-1.554,4.24,5.649,5.649,0,0,1-4.4,1.7Zm-332.464,0a5.651,5.651,0,0,1-4.4-1.7,6.049,6.049,0,0,1-1.554-4.24q0-3.4,3.365-6.576a11.917,11.917,0,0,1,8.538-3.182q1.808,0,5.3,1.908t4.786,1.908q5.171,0,12.933-17.395a99.039,99.039,0,0,0,9.313-41.586q0-6.785-4.007-9.758t-4.011-4.24q0-5.1,3.878-22.912-2.846-11.457-4.915-12.729-6.467,7.21-11.121,7.211-3.627,0-3.623-5.091,0-2.971,2.328-8.911t2.328-7.634q0-12.732-24.057-21.216-1.813-2.552-1.812-7.215a5.209,5.209,0,0,1,1.036-3.394h4.911q2.073,0,11.383,5.94a74.646,74.646,0,0,1,18.885,16.122q10.348,12.732,17.33,35.218.781,2.12,7.247,37.338,4.913,25.458,14.485,40.731.259.425,7.76,4.671a9.842,9.842,0,0,1,5.689,9.331q0,6.791-2.845,6.791-7.242,0-19.142-18.669a83.845,83.845,0,0,1-10.088-22.913q-2.588-8.911-3.624-8.911-6.467,28.428-18.363,45.4-11.123,15.7-22.766,15.694Zm193.738-13.252h-49.843c-.012,0-.076.008-.18.008a2.6,2.6,0,0,1-1.923-.808,3.868,3.868,0,0,1-.653-3.106c.165-1.385,2.325-2.343,5.063-3.552,5.736-2.536,14.41-6.367,14.41-18.112v-101.61l8.118,11.942,9.191-12.914v102.582c0,5.263,1.61,9.42,4.929,12.71,2.81,2.791,6.274,4.391,9.059,5.675,2.572,1.191,4.427,2.049,4.584,3.279a3.872,3.872,0,0,1-.648,3.106,2.6,2.6,0,0,1-1.927.808A1.752,1.752,0,0,1,13348.021,9329.657Zm-52.623-82.134h-37.123s-2.425.244-2.052-2.7,12.5-2.948,12.5-14.991v-58.148l-9.736-7.132,5.159-3.512,4.577-3.11v-58.583c0-12.039-12.129-12.283-12.5-14.988-.373-2.948,2.052-2.705,2.052-2.705h37.123s2.425-.243,2.052,2.705c-.187,1.475-2.612,1.966-3.545,2.458a19.02,19.02,0,0,0-6.155,4.423c-8.581,10.321,1.865,31.207,6.342,40.545,7.648,14.992,17.162,27.771,25.743,41.528,1.12,1.966,2.239,3.688,3.358,5.409,1.119-1.722,2.238-3.443,3.357-5.409,8.581-13.758,18.095-26.536,25.557-41.528,4.851-9.338,15.11-30.224,6.529-40.545a17.89,17.89,0,0,0-6.343-4.423c-.746-.492-3.171-.983-3.544-2.458-.187-2.948,2.052-2.705,2.052-2.705h37.31s2.238-.243,1.865,2.705-12.5,2.949-12.5,14.988v58.68l9.449,6.429-9.449,6.924v58.453c0,12.043,12.126,12.287,12.5,14.991.319,2.525-1.277,2.705-1.743,2.705-.076,0-.122,0-.122,0h-37.31s-.047,0-.122,0c-.463,0-2.062-.18-1.743-2.705.373-2.948,12.5-2.948,12.5-14.991V9127.852c-3.73,14-10.633,27.771-22.385,46.934-2.985,5.163-6.343,10.077-9.7,14.745-2.053,2.948-4.1,6.145-6.156,9.094-2.052-2.949-4.1-6.146-6.156-9.094-3.171-4.668-6.529-9.582-9.7-14.745-11.752-19.163-18.654-32.929-22.386-46.934v101.979c0,12.043,12.126,12.287,12.5,14.991.32,2.527-1.419,2.707-1.92,2.707A1.226,1.226,0,0,1,13295.4,9247.523Zm171.686-93q9.051,0,16.04-.427a98.353,98.353,0,0,1,12.933,3.821,27.978,27.978,0,0,1,2.328,2.547l-1.812,1.7a42.356,42.356,0,0,1-7.243,2.544l-14.486,1.277-2.3,0C13410.126,9165.985,13461.631,9154.523,13467.083,9154.523Zm-295.728,11.459-14.486-1.277a42.418,42.418,0,0,1-7.243-2.544l-1.812-1.7a28.448,28.448,0,0,1,2.328-2.547,98.178,98.178,0,0,1,12.937-3.821q6.984.426,16.035.427c5.453,0,56.958,11.462-5.452,11.462Zm151.884-4.173-8.345-12.843v-85.731a16.57,16.57,0,0,0-5.169-12.707c-2.945-2.787-6.58-4.388-9.5-5.675-2.7-1.187-4.649-2.049-4.808-3.279a3.882,3.882,0,0,1,.653-3.11,2.587,2.587,0,0,1,1.923-.8c.111,0,.176.008.18.008h49.843c.015,0,.075-.008.18-.008a2.591,2.591,0,0,1,1.927.8,3.886,3.886,0,0,1,.648,3.11c-.161,1.381-2.22,2.335-4.828,3.544-5.475,2.537-13.743,6.368-13.743,18.117v84.73l-8.962,13.844v0Zm155.227-22.561a59.247,59.247,0,0,1-18.625-17.822q-6.986-10.607-14.745-41.578a225.061,225.061,0,0,1-4.527-26.311q-1.679-14.421-2.457-18.242-4.655-19.942-9.571-28.426-5.952-10.613-16.3-13.155a11.6,11.6,0,0,1-2.845-7.638q0-5.941,4.657-5.94,2.329,0,7.242,6.363,8.8,10.187,11.9,13.579,5.688,5.515,15,36.49,8.8-57.706,36.993-59.827a8.73,8.73,0,0,1,7.5,2.548,9.1,9.1,0,0,1,2.845,6.363,4.644,4.644,0,0,1-3.107,4.668q-2.065-.426-4.911-.847a33.717,33.717,0,0,0-3.623-.427q-9.567,0-18.884,13.154-10.865,16.122-11.121,39.882a10.161,10.161,0,0,0-.778,4.243q0,5.517,3.361,5.515a5.589,5.589,0,0,0,2.461-1.059,5.573,5.573,0,0,1,2.716-1.062q4.4,0,4.4,5.517,0,2.121-3.752,10.608a39.916,39.916,0,0,0-3.753,16.122q0,11.881,5.306,16.76t6.077,10.4q1.55,12.3,7.76,17.819,4.144,3.82,20.18,11.458l.258,4.663a11.819,11.819,0,0,1-6.21,2.124Q13487.777,9145.189,13478.466,9139.249Zm-330.393,3.816.258-4.663q16.042-7.642,20.18-11.458,6.209-5.517,7.759-17.819.775-5.521,6.081-10.4t5.3-16.76a39.986,39.986,0,0,0-3.748-16.122q-3.757-8.486-3.753-10.608,0-5.515,4.4-5.517a5.6,5.6,0,0,1,2.716,1.062,5.575,5.575,0,0,0,2.457,1.059q3.357,0,3.361-5.515a10.227,10.227,0,0,0-.774-4.243q-.259-23.758-11.125-39.882-9.315-13.156-18.884-13.154a33.613,33.613,0,0,0-3.62.427q-2.846.419-4.915.847a4.649,4.649,0,0,1-3.106-4.668,9.1,9.1,0,0,1,2.845-6.363,8.74,8.74,0,0,1,7.5-2.548q28.192,2.121,36.99,59.827,9.315-30.973,15-36.49,3.105-3.4,11.9-13.579,4.919-6.365,7.243-6.363,4.66,0,4.656,5.94a11.571,11.571,0,0,1-2.845,7.638q-10.348,2.544-16.3,13.155-4.913,8.486-9.571,28.426-.775,3.822-2.458,18.242a224.651,224.651,0,0,1-4.527,26.311q-7.759,30.973-14.744,41.578a59.184,59.184,0,0,1-18.622,17.822q-9.315,5.94-13.453,5.94A11.816,11.816,0,0,1,13148.073,9143.065Zm124.924-81.24-6.066,2.816,3.6-6.246-13.549-2.191,12.893-2.479-2.945-6.178,6.066,3.656,2.834-15.753,2.482,15.753,6.773-3.656-4.219,6.178,14.5,2.479-14.5,2.191,4.219,6.246-6.773-2.816-2.482,13.858Zm85.854.478c-.934-6.013,1.216-13.923,12.624-13.923,10.105,0,12.843,7.2,12.678,12.262a11.984,11.984,0,0,1-2.647,7.4s2.558-11.717-10.03-11.717-9.543,12.358-9.543,12.358A13.358,13.358,0,0,1,13358.852,9062.3Zm-41.069-29.528v-7.437l-.646-2.472-1.267-1.629-2.285-1.08-3.268-.208-4.075.8-.625,1.5-.667,1.762-1.539.664.435,1.327-1.987,1.331-1.536-2-1.331,1.55-2.644-.663-1.331,1.539-1.726-.405-.477-1.356-1.55.886-.958-1.291-1.468-.922-.387,1.4-1.385,1.041-1.762-.668-1.543-.781.108-1.317,1.212-.549-.663-1.771,1.27-.327,1.166-1.209-1.2-.573-.129-1.97,1.213-.886-1.432-1.766,1.1-1.876-.44-2.433,2.177-.735,1.134-1.145-.807-1.574-.3-1.841.57-1.456,1.425-.538-1.155-1.367,1.04-1.607,1.108.223,1.059-1.657-.513-1.991,1.947-.154.919-1.162v-1.554l1.331-1.015,1.761.352-.652-1.316,1.1-1.772-1.762-1.543-1.775.223-1.095-1.327,1.316-1.762,1.271-.886,2.045.663-.887-1.769-2.206-1.765h1.331l1.98-1.55,1.772.223,1.316-.664.667,1.105,1.762.886.886-1.1-.445-1.984.711-1.119,1.865.527,1.177-.958V8976.1l-1.094-1.771,1.316-1.762,1.994-.219,2.426.664,1.327-1.772,2.87,1.772,1.983-1.772.441,1.327h3.092v1.762l-1.983,1.55,1.762.652,2.425.223.223-1.316,2.658-.886-.445-1.331,1.758-.431,1.776,1.539,1.539-.441,1.2-1.108,1.668,1.108-.094,1.41,1.644.8-1.772,1.1.886,1.99,2.429.223,1.769.875,2.87-.222,1.331,1.771,1.762.549,2.26-.057.606,1.937-1.543,1.105-.882,1.98,1.553.667-.226,1.994,1.542.876.441,1.769-1.518.56,1.076,1.539-.444,2.1.886,1.539,1.342.431,1.083-.652.441,1.99,1.041-.56,1.177.56-.664,1.762,1.762-.223.99,1.331-.876,1.095.42,1.542,1.32.011.358,1.105-.886,1.216.187,1.456,1.794.417-.441,1.542.886.887-.545,1.876.986,1.6,1.88.828-.223,1.554,1.646.208,1.151,1.316-.035,1.123-1.432.1-1.435,1.108v1.331l-1.554.652-1.27.979-1.374-.538-1.55,1.331-2.429-.445-2.2.664-1.991-1.1-1.111.886-2.867-1.108-.871-1.316-2.217-.445-1.762-1.772-1.55-.222-.445-1.758-1.979-.887v-2.217l-2.207.115-.035-.083-.8.93-3.254,1.488-1.94,2-.9,1.83-.064,1.977.613,8.47Zm31.522-13.008a2.827,2.827,0,0,0,1.174,2.091.826.826,0,0,0,.451.133.785.785,0,0,0,.388-.1c.48-.266.484-.811.488-1.392,0,.007.011.011.014.018s.008.008.008.011c.362.452.674.844,1.158.844.021,0,.04,0,.062,0a.809.809,0,0,0,.649-.4.782.782,0,0,0,.107-.459.858.858,0,0,0,.1,0,1.078,1.078,0,0,0,.643-.223,1.608,1.608,0,0,0,.56-1.209.935.935,0,0,0,.384.111h.051a.9.9,0,0,0,.674-.316,1.6,1.6,0,0,0,.208-1.385v-.011c-.046-.272-.107-.646,0-.76l-1.09-1a1.735,1.735,0,0,0-.452,1.2l-.021,0-.019,0c-.043,0-.082-.007-.125-.007a.934.934,0,0,0-.6.223,1.836,1.836,0,0,0-.47,1.456c0,.064,0,.144-.007.223a3.033,3.033,0,0,0-.428-.3,1.016,1.016,0,0,0-.491-.133.907.907,0,0,0-.57.205c-.036.035-.068.064-.09.089a1.174,1.174,0,0,0-.624-.193,1.187,1.187,0,0,0-.287.039.954.954,0,0,0-.5.334c-.055-.326-.111-.606-.18-.857a.875.875,0,0,0-.71-.675.842.842,0,0,0-.13-.011c-.474,0-.764.4-1.04.844a.92.92,0,0,0-.538-.636.851.851,0,0,0-.334-.067,1.079,1.079,0,0,0-.692.283l.955,1.134a.516.516,0,0,1-.263.068.62.62,0,0,1-.2-.033.582.582,0,0,1-.352-.322,2.4,2.4,0,0,1,.04.326,3.533,3.533,0,0,0,.111.7.975.975,0,0,0,.946.769h.051a1.345,1.345,0,0,0,.979-.606l0,0Zm-49.291-1.2a1.208,1.208,0,0,0,.147.036,1.031,1.031,0,0,0,.283.538,1.78,1.78,0,0,0,.986.513l-.024-.118,1.732-.452.448-1.055a1.148,1.148,0,0,0-.463-.09,2.871,2.871,0,0,0-.761.14,3.574,3.574,0,0,1-.405.1,2,2,0,0,0,.187-.226.844.844,0,0,0-.046-1.116.835.835,0,0,0-.6-.251.993.993,0,0,0-.437.1,2.259,2.259,0,0,0-.341.2.992.992,0,0,0-.444-.969.8.8,0,0,0-.377-.094.864.864,0,0,0-.456.137,1.336,1.336,0,0,0-.517.9,1.3,1.3,0,0,0-1.123-.937.542.542,0,0,0-.067,0c-.689.036-.983.668-1.159,1.209a1.7,1.7,0,0,0-.545-.56,1.544,1.544,0,0,0-.844-.24,1.9,1.9,0,0,0-.412.043c.036-.078.075-.154.107-.219.276-.527.649-1.252.154-1.829a.956.956,0,0,0-.731-.338,1.284,1.284,0,0,0-.459.094,3.578,3.578,0,0,0-.606.345l-.025.014-.011.008-.032.021c-.021.014-.047.032-.072.046a2.44,2.44,0,0,0-.15-1.649,1.375,1.375,0,0,0-1.316-.743h-.071c0-.007-.008-.011-.008-.014a.111.111,0,0,1-.018-.033l-1.324.671a1.432,1.432,0,0,0,1.406.857h.043a1.612,1.612,0,0,1-.024.671,1.6,1.6,0,0,0,.448,1.715,1.087,1.087,0,0,0,.652.216.638.638,0,1,1,.506,1.134,1.05,1.05,0,0,0,1,.635,2.192,2.192,0,0,0,.588-.094l.019,0a1.468,1.468,0,0,1,.319-.065.155.155,0,0,1,.068.015c.1.062.183.345.236.531l.007.021,0,.007a2.324,2.324,0,0,0,.244.621.982.982,0,0,0,.839.477,1.007,1.007,0,0,0,.255-.032c.606-.15.829-.75.994-1.3.215.592.52,1.194,1.184,1.194h.043a1.083,1.083,0,0,0,.965-.789v0Zm24.068-6.662-.058.18.621,5.8,2.256-1.464,4.259-1.9.441-.459-.812-.115v-1.876l-2.217,1.445-1.094-1.331-1.554.56-.872-1.327Zm-8.789,5.141,4.05.725.266-4.793-2.508-.67-1.668,1.653-1.865-.549-1.772,1.983-2.2.769-.428,1.345,1.772-.463Zm29.428-3.576a1.243,1.243,0,0,0,.573.86,1.052,1.052,0,0,0,.535.151,1.088,1.088,0,0,0,.617-.205,2.384,2.384,0,0,0,.473-.484l.011-.014.015-.015c.094-.118.266-.334.33-.345a1.315,1.315,0,0,1,.315.237l.008.007.007.007a1.423,1.423,0,0,0,.937.471c.025,0,.047,0,.071,0a1,1,0,0,0,.7-.384,2.109,2.109,0,0,0,.118-1.818v-.012l0,0,0-.021a3.537,3.537,0,0,0,.48.323,1.3,1.3,0,0,0,.588.161.973.973,0,0,0,.636-.236,1.281,1.281,0,0,0,.34-1.281l.012,0,.011,0a1.092,1.092,0,0,0,.172-.064.959.959,0,0,0,.509.222,1.6,1.6,0,0,0,.223.015,2.489,2.489,0,0,0,1.865-1.22l.019-.025a2.766,2.766,0,0,1,.262-.309s-.007,0-.011,0a.679.679,0,0,1-.071.029l-.435-1.417a2.008,2.008,0,0,0-.937.811c-.035.05-.075.1-.114.15a.891.891,0,0,0-.147-.624.8.8,0,0,0-.545-.337c-.04,0-.083-.008-.126-.008-.574,0-.825.585-.961.9a.855.855,0,0,0-.732-.441h-.039a.817.817,0,0,0-.711.5,1.812,1.812,0,0,0,.087,1.277,1.668,1.668,0,0,0-.915-.341.975.975,0,0,0-.66.266,1.815,1.815,0,0,0-.272,1.844,1.507,1.507,0,0,0-.66-.158,1.22,1.22,0,0,0-.2.015,1.674,1.674,0,0,0-.979.51c-.018-.649-.039-1.532-.84-1.712a1.185,1.185,0,0,0-.2-.018,1.045,1.045,0,0,0-.9.553,4.514,4.514,0,0,0-.33.667l-.007.007-.015.04-.011.024a.1.1,0,0,0-.018.036l-.008.018a1.906,1.906,0,0,0-.89-1.122,1.37,1.37,0,0,0-.6-.151,1.47,1.47,0,0,0-.922.388l-.021.015a1.114,1.114,0,0,1-.093.071.192.192,0,0,1,.093-.018l-.714,1.284a1.443,1.443,0,0,0,.707.2,1.5,1.5,0,0,0,.939-.388,3.37,3.37,0,0,1,.176.434c.151.428.427,1.22,1.256,1.22a.645.645,0,0,0,.075,0,1.2,1.2,0,0,0,.915-.538v-.008Zm-42.013-3.451a1.847,1.847,0,0,1,.51.506,2.746,2.746,0,0,0,1.342,1.072l.431-1.417c-.2-.061-.413-.326-.617-.581a2.324,2.324,0,0,0-1.528-1.059,1.031,1.031,0,0,0-.18-.011,1.331,1.331,0,0,0-.929.37.945.945,0,0,0-.636-.5,1.091,1.091,0,0,0-.262-.032,1.66,1.66,0,0,0-1.137.667.686.686,0,0,1-.054.058c-.021-.079-.047-.172-.072-.276-.118-.459-.262-1.029-.843-1.173a.811.811,0,0,0-.212-.028.3.3,0,0,0-.05,0,1.475,1.475,0,0,0-.546-.914,1.008,1.008,0,0,0-.588-.19,1.133,1.133,0,0,0-.369.068c.021-.04.039-.076.061-.111l.025-.043.007-.019a7.226,7.226,0,0,0,.435-.907.912.912,0,0,0-.111-.894,1.016,1.016,0,0,0-.887-.366c-.179,0-.365.022-.545.04-.058.007-.126.015-.2.021a1.155,1.155,0,0,0,.165-1.037,1.057,1.057,0,0,0-.782-.631l-.362,1.438a.531.531,0,0,1-.262-.589c-.011.025-.036.065-.061.108l-.021.028c-.008.015-.019.028-.025.039l-.015.021c-.2.3-.725,1.084-.09,1.733a1.5,1.5,0,0,0,1.134.391c.086,0,.176,0,.276-.011a3.073,3.073,0,0,0-.412,2.633.858.858,0,0,0,.639.574.881.881,0,0,0,.165.019,1.436,1.436,0,0,0,.989-.632c.011.086.019.176.021.259v.011l0,.046a.932.932,0,0,1,.007.1,1.988,1.988,0,0,0,.374,1.362.81.81,0,0,0,.577.244.707.707,0,0,0,.244-.039.759.759,0,0,0,.251-.126,1.214,1.214,0,0,0,.982.517,1.367,1.367,0,0,0,.894-.376.544.544,0,0,0,.019.067.945.945,0,0,0,.854.782.684.684,0,0,0,.09,0c.617,0,.925-.567,1.087-.872l0-.007a2.774,2.774,0,0,1,.208-.337v0Zm16.3-2.77a1.346,1.346,0,0,0,.786.757,1.168,1.168,0,0,0,.352.054c.024,0,.05,0,.079,0l.136-.946-1.234-2.54a.8.8,0,0,0-.219-.029h-.014a.992.992,0,0,0-.951.758,5.4,5.4,0,0,0-.154.7l0,.036,0,.007a.632.632,0,0,1-.015.086,2.094,2.094,0,0,0-1.166-.933,1.5,1.5,0,0,0-.373-.046,1.353,1.353,0,0,0-1.065.584.175.175,0,0,1-.024.032,1.768,1.768,0,0,1-.585-.56l-.011-.014a2.32,2.32,0,0,0-1.525-1.055,1.015,1.015,0,0,0-.179-.011,1.333,1.333,0,0,0-.93.369.935.935,0,0,0-.635-.5,1.123,1.123,0,0,0-.266-.032,1.641,1.641,0,0,0-1.13.664l-.015.015-.011.011a.383.383,0,0,0-.032.035l-.032-.111c-.011-.043-.021-.082-.028-.118l-.015-.047v-.007c-.118-.455-.266-1.022-.843-1.169a.764.764,0,0,0-.208-.025h-.051a1.457,1.457,0,0,0-.549-.911,1.015,1.015,0,0,0-.592-.19,1.079,1.079,0,0,0-.362.064l0-.007.079-.144a7.564,7.564,0,0,0,.444-.926.924.924,0,0,0-.114-.9,1.016,1.016,0,0,0-.883-.362,4.632,4.632,0,0,0-.545.039c-.058.008-.126.011-.2.021a1.165,1.165,0,0,0,.165-1.033,1.046,1.046,0,0,0-.782-.635l-.366,1.435a.465.465,0,0,1-.229-.243.487.487,0,0,1-.021-.355,1.234,1.234,0,0,1-.111.183l-.018.029c-.2.3-.729,1.076-.093,1.732a1.5,1.5,0,0,0,1.137.391c.083,0,.172,0,.272-.011a3.074,3.074,0,0,0-.412,2.634.853.853,0,0,0,.642.574.826.826,0,0,0,.162.014,1.388,1.388,0,0,0,.993-.631c.015.144.021.29.032.416a1.986,1.986,0,0,0,.373,1.363.816.816,0,0,0,.578.244.8.8,0,0,0,.244-.04.727.727,0,0,0,.247-.129,1.255,1.255,0,0,0,.628.463,1.272,1.272,0,0,0,.358.058,1.372,1.372,0,0,0,.894-.377.542.542,0,0,0,.015.068.955.955,0,0,0,.857.781c.028,0,.061,0,.089,0,.617,0,.923-.566,1.087-.872l.008-.011a1.941,1.941,0,0,1,.2-.337c.14.047.345.3.506.506a2.823,2.823,0,0,0,1.349,1.072,1.677,1.677,0,0,0,.481.076,1.363,1.363,0,0,0,1.094-.593,2.822,2.822,0,0,1,.334.428c.236.348.628.922,1.27.922a1.075,1.075,0,0,0,.3-.04,1.168,1.168,0,0,0,.8-.731v0Zm19.863-1.112.947,1.105,1.4-.535-.241-1.758.951-.513.093-1.7-1.822-.42-.373-1.543-.556-.09-1.453,2.5-.613,3.106.193.3,1.468-.459Zm-6.457-4.71,1.141.982-.868,1.393,1.845.3.294,1.355.262-.082.725-3.132,1.438-2.482-.542-.542-1.962-.5-.731,1.653-1.665-.4Zm-10.048,1.675,1.065,1.855a2.193,2.193,0,0,0,.8.193.91.91,0,0,0,.764-.384,1.222,1.222,0,0,0,.036-1.3.916.916,0,0,0,.137-.093.949.949,0,0,0,.484.129h.067a2.221,2.221,0,0,0,1.779-1.593c.09-.193.147-.312.176-.358a.259.259,0,0,1-.082.061l-.7-1.31a1.907,1.907,0,0,0-.739.987l-.032.064-.015.035c-.021.043-.039.083-.061.122a.985.985,0,0,0-.295-.66.819.819,0,0,0-.545-.208h-.039c-.625.04-.793.592-.872,1.073a.969.969,0,0,0-.664-.309.781.781,0,0,0-.232.035.809.809,0,0,0-.56.657,1.687,1.687,0,0,0,.354,1.126,2.581,2.581,0,0,0-.258-.082,1.545,1.545,0,0,0-.392-.054A.948.948,0,0,0,13322.371,9003.1Zm-3.972-7.081c-.018.025-.032.05-.047.075l1.787,3.117a1.11,1.11,0,0,0,.53-.2,2.244,2.244,0,0,0,.478-.5l.021-.025c.09-.115.259-.326.326-.334a1.185,1.185,0,0,1,.319.237l.011.011a1.414,1.414,0,0,0,.937.466h.072a1,1,0,0,0,.7-.384,2.1,2.1,0,0,0,.118-1.815.191.191,0,0,1-.007-.032,4.32,4.32,0,0,0,.477.327,1.316,1.316,0,0,0,.592.157.96.96,0,0,0,.636-.236,1.28,1.28,0,0,0,.341-1.281l.011,0,.011,0a.8.8,0,0,0,.176-.068.906.906,0,0,0,.506.227,1.625,1.625,0,0,0,.226.014,2.5,2.5,0,0,0,1.862-1.22,3.153,3.153,0,0,1,.279-.333l-.011,0a.315.315,0,0,1-.068.029l-.437-1.417a2.05,2.05,0,0,0-.937.811l-.032.047c-.024.032-.054.068-.082.1a.9.9,0,0,0-.147-.624.787.787,0,0,0-.541-.334c-.047,0-.09-.007-.13-.007-.577,0-.828.581-.961.9a.874.874,0,0,0-.735-.444h-.04a.827.827,0,0,0-.706.5,1.83,1.83,0,0,0,.086,1.277,1.69,1.69,0,0,0-.911-.337.977.977,0,0,0-.664.266,1.822,1.822,0,0,0-.276,1.84,1.5,1.5,0,0,0-.66-.158,1.253,1.253,0,0,0-.2.015,1.658,1.658,0,0,0-.972.51c-.021-.646-.04-1.532-.843-1.708a.92.92,0,0,0-.2-.021A1.049,1.049,0,0,0,13318.4,8996.021Zm-3.53,1.263a1.437,1.437,0,0,0,.707.2c.039,0,.079,0,.118,0l-.144-.3-.2-.754Zm22.225-2.956a2.839,2.839,0,0,0,1.173,2.092.841.841,0,0,0,.456.136.821.821,0,0,0,.384-.1c.035-.021.067-.043.1-.064l.032-.058.025.011c.323-.283.326-.749.33-1.28.008.007.011.015.019.021l0,.007.008.008c.358.448.674.836,1.154.836a.3.3,0,0,0,.058,0,.805.805,0,0,0,.649-.4.836.836,0,0,0,.111-.459c.028,0,.064,0,.1,0a1.068,1.068,0,0,0,.642-.223,1.622,1.622,0,0,0,.56-1.209.942.942,0,0,0,.385.111h.057a.9.9,0,0,0,.671-.315,1.619,1.619,0,0,0,.205-1.4c-.047-.287-.108-.646,0-.765l-1.087-1a1.721,1.721,0,0,0-.452,1.209.094.094,0,0,0-.043-.008.832.832,0,0,0-.13-.011.918.918,0,0,0-.595.227,1.834,1.834,0,0,0-.471,1.452c0,.043,0,.09,0,.137v.086a3.167,3.167,0,0,0-.427-.3,1.036,1.036,0,0,0-.5-.133.9.9,0,0,0-.567.205.685.685,0,0,0-.093.09,1.077,1.077,0,0,0-.908-.154.9.9,0,0,0-.5.33,7.3,7.3,0,0,0-.184-.854.86.86,0,0,0-.71-.674.718.718,0,0,0-.129-.011c-.471,0-.765.4-1.044.843a.886.886,0,0,0-.865-.7,1.059,1.059,0,0,0-.692.283l.951,1.138a.565.565,0,0,1-.259.061.636.636,0,0,1-.2-.032.578.578,0,0,1-.352-.319,2.231,2.231,0,0,1,.035.266l0,.061.007.04a3.3,3.3,0,0,0,.1.656.98.98,0,0,0,.95.771h.047a1.345,1.345,0,0,0,.983-.606v0Zm-33.668-1.962a.093.093,0,0,0,.015.018.969.969,0,0,0,.14.122.938.938,0,0,0,.036.552,2.343,2.343,0,0,0,2.044,1.288,3.529,3.529,0,0,1,.42.09.776.776,0,0,1-.068-.054l1.055-1.048a2,2,0,0,0-1.144-.448h-.011c-.065-.011-.122-.021-.184-.036a.881.881,0,0,0,.48-.416.792.792,0,0,0,.044-.639.92.92,0,0,0-.99-.562c-.111,0-.216.007-.306.014a.855.855,0,0,0,.033-.893.812.812,0,0,0-.707-.395l-.064,0a1.846,1.846,0,0,0-1.091.668c.079-.761-.14-1.228-.667-1.429a1.143,1.143,0,0,0-.392-.067,2.551,2.551,0,0,0-1.485.785l-.021.015a3.232,3.232,0,0,1-.541.409h.007a.189.189,0,0,1,.058,0,.325.325,0,0,1,.079.007l-.295,1.453a1.086,1.086,0,0,0,.219.021,2.442,2.442,0,0,0,1.45-.771l.011,0,.007-.011a3.483,3.483,0,0,0-.061.577,1.033,1.033,0,0,0,.638,1.048,1.062,1.062,0,0,0,.373.071,1.548,1.548,0,0,0,.915-.365Zm5.478-2.734.538,1.224-.161,1.632,1.091.42,1.169-1.083,1.342.377,1.313-.036-.822-3.031-1.646-2.921-.89,1.98-1.5-.255Zm5.145-4.144,1.822,3.315.7,2.059.229.083,1.047-1.187,1.119-.979-.071-1.736-1.432-.269-.187-1.68-1.539.933-1.518-.757Zm17.3,2.164.011.011a2.328,2.328,0,0,0,.481.494,1.069,1.069,0,0,0,.617.209,1.057,1.057,0,0,0,.538-.154,1.227,1.227,0,0,0,.573-.865,1.21,1.21,0,0,0,.919.546h.079c.821,0,1.1-.786,1.248-1.209a2.7,2.7,0,0,1,.18-.441,1.5,1.5,0,0,0,.939.388,1.463,1.463,0,0,0,.707-.2l-.714-1.284a.234.234,0,0,1,.1.018,1.14,1.14,0,0,1-.118-.09,1.476,1.476,0,0,0-.922-.384,1.32,1.32,0,0,0-.6.15,1.88,1.88,0,0,0-.89,1.123c-.011-.024-.021-.046-.032-.071s-.011-.029-.019-.04a4.476,4.476,0,0,0-.337-.682,1.048,1.048,0,0,0-.9-.556.992.992,0,0,0-.2.021c-.8.176-.822,1.059-.844,1.7a1.685,1.685,0,0,0-.972-.506,1.837,1.837,0,0,0-.194-.011,1.518,1.518,0,0,0-.667.154,1.8,1.8,0,0,0-.272-1.841.982.982,0,0,0-.664-.265,1.669,1.669,0,0,0-.907.337,1.852,1.852,0,0,0,.079-1.273.806.806,0,0,0-.7-.5h-.043a.872.872,0,0,0-.732.44c-.125-.29-.38-.9-.961-.9a.82.82,0,0,0-.129.011.8.8,0,0,0-.546.334.894.894,0,0,0-.144.62c-.032-.039-.068-.086-.1-.129l-.018-.018a2,2,0,0,0-.937-.814l-.434,1.42a.346.346,0,0,1-.083-.039,3.165,3.165,0,0,1,.28.337,2.513,2.513,0,0,0,1.869,1.224,1.5,1.5,0,0,0,.222-.015.93.93,0,0,0,.506-.226,1.651,1.651,0,0,0,.176.068h.015l.007,0a1.3,1.3,0,0,0,.341,1.284.969.969,0,0,0,.636.233,1.316,1.316,0,0,0,.592-.157,3.149,3.149,0,0,0,.477-.327.068.068,0,0,0,0,.021,2.107,2.107,0,0,0,.114,1.83.971.971,0,0,0,.7.38c.024,0,.05,0,.075,0a1.407,1.407,0,0,0,.929-.47l.011-.008a1.419,1.419,0,0,1,.313-.24C13331.085,8987.314,13331.264,8987.541,13331.35,8987.652Zm-21.847-4.373a1.006,1.006,0,0,0,.3.046c.574,0,.94-.552,1.206-.954l0-.007.015-.021c.021-.04.047-.075.075-.118a.9.9,0,0,0,.746.4,1.025,1.025,0,0,0,.306-.047,1.809,1.809,0,0,0,1.011-.95l.036-.072.032-.05a.832.832,0,0,0,.57.251.783.783,0,0,0,.388-.111.806.806,0,0,0,.266-1.065c-.348-.99-.384-1.467-.133-1.762a.294.294,0,0,0,.021.036l.007.015.011.018c.227.373.484.793.987.851.035,0,.067.007.1.007a.89.89,0,0,0,.643-.276c.42-.423.366-1.119.3-1.923v-.011c0-.047-.011-.1-.014-.15l-.008-.129-.007-.083a.344.344,0,0,1,.215.083c.032.043.283.474-.452,2.461-.243.667-.011,1.012.227,1.18a.745.745,0,0,0,.448.151,1.89,1.89,0,0,0,1.059-.557l.035-.028a3.569,3.569,0,0,1,.431-.326.613.613,0,0,1-.157.021.65.65,0,0,1-.144-.019l.354-1.438a.9.9,0,0,0-.215-.028.925.925,0,0,0-.172.018,2.75,2.75,0,0,0-.219-2.317,1.991,1.991,0,0,0-1.726-.707c-.094,0-.194,0-.306.008a.863.863,0,0,0-.6.3,1.76,1.76,0,0,0-.258,1.306.959.959,0,0,0-.943,0,2.322,2.322,0,0,0-1.206,2.68.429.429,0,0,0-.093.051,1.966,1.966,0,0,0-.686.738s0,0,0-.007a.986.986,0,0,0-.725-.315,1.163,1.163,0,0,0-.344.058,1.478,1.478,0,0,0-.617.405,1.139,1.139,0,0,0-.384-.812.862.862,0,0,0-.538-.189.78.78,0,0,0-.184.018c-.459.1-.656.51-.832.872l0,.007a2.153,2.153,0,0,1-.144.27.545.545,0,0,1,.387-.169h.025a.577.577,0,0,1,.416.172l-.125.115a.447.447,0,0,1-.1-.16,1.63,1.63,0,0,1,.009.235l-.893.8a.917.917,0,0,0,.688.327.691.691,0,0,0,.118-.011.933.933,0,0,0,.094-.019A1.023,1.023,0,0,0,13309.5,8983.279Zm45.151-38.547a3.551,3.551,0,0,1,3.626-3.466,3.715,3.715,0,0,1,1.877.5c1.51-3.318,9.869-22.123,10.181-31.321.2-5.884-4.7-10.231-8.828-12.84,2.378,3.358,3.96,7.483,3.87,10.142-.133,3.911-3.781,13.328-8.387,17.8a144.621,144.621,0,0,1-11.942,10.468,3.388,3.388,0,0,1,1.66,2.874,3.77,3.77,0,1,1-3.759-3.466,3.975,3.975,0,0,1,1.736.395c.957-3.121,5.187-17.334,5.488-26.221.233-6.848-13.812-10.328-20.556-11.924.058,4.929-1.022,9.9-1.438,16.48a66.743,66.743,0,0,1-2.239,14.2h-5.765s-1.722-4.251-2.809-13.514c-.861-7.3-1.848-12-1.568-17.055-6.9,1.643-20.326,5.119-20.1,11.816.3,8.851,4.5,22.988,5.475,26.182a3.763,3.763,0,0,1,1.6-.355,3.467,3.467,0,1,1-3.623,3.466,3.424,3.424,0,0,1,1.643-2.9,145.181,145.181,0,0,1-11.9-10.439c-4.609-4.47-8.258-13.887-8.391-17.8-.093-2.658,1.492-6.783,3.875-10.142-4.133,2.608-9.03,6.956-8.833,12.84.295,8.635,7.674,25.722,9.826,30.54a3.9,3.9,0,0,1,2.709-1.062,3.476,3.476,0,1,1-3.76,3.462,3.261,3.261,0,0,1,.725-2.041c-2.357-2.4-8.864-9.016-14.583-14.611-4.609-4.514-8.315-12.345-8.448-16.287-.15-4.459,4.553-11.853,9.629-14.1,4.494-1.987,11.486-1.987,15.394-1.8a10.812,10.812,0,0,1,2.888-1.955c2.826-1.241,10.35-4.087,15.289-3.444a17.445,17.445,0,0,1,10.418,5.5s.194.111.467.291c.067-.456.146-.915.24-1.385,1.355-6.935,3.157-6.708,6.453-6.468.553.043,1.059.035,1.525.032,2.328-.029,3.681-.054,4.8,5.582.165.825.283,1.64.365,2.446.42-.3.768-.5.768-.5a17.449,17.449,0,0,1,10.418-5.5c4.94-.643,12.463,2.2,15.29,3.444a10.8,10.8,0,0,1,2.892,1.955c3.9-.19,10.895-.19,15.39,1.8,5.076,2.246,9.779,9.64,9.629,14.1-.133,3.942-3.839,11.773-8.448,16.287-6.21,6.08-13.36,13.359-15.1,15.135a3.428,3.428,0,0,1,1.582,2.863,3.629,3.629,0,0,1-7.25,0Zm-37.209-11.179c0-2.576,2.4-4.66,5.37-4.66s5.37,2.084,5.37,4.66-2.4,4.664-5.37,4.664S13317.445,8936.13,13317.445,8933.554Zm.269-52.53a5.405,5.405,0,1,1,5.371,4.793A5.109,5.109,0,0,1,13317.714,8881.023Zm3.179-5.862v-4.617h-4.251v-3.816h4.251v-4.617h3.846v4.617h4.255v3.816h-4.255v4.617Z" transform="translate(-12345.763 -8862.11)" fill="#bca162"/>
</svg>
